<?xml version="1.0" encoding="UTF-8"?>
<svg width="35px" height="35px" viewBox="0 0 35 35" version="1.1" xmlns="http://www.w3.org/2000/svg" xmlns:xlink="http://www.w3.org/1999/xlink">
    <!-- Generator: Sketch 62 (91390) - https://sketch.com -->
    <title>Group 9</title>
    <desc>Created with Sketch.</desc>
    <g id="Page-1" stroke="none" stroke-width="1" fill="none" fill-rule="evenodd">
        <g id="Group-9" fill="#606060" fill-rule="nonzero">
            <g id="credit-card">
                <rect id="Rectangle" x="25" y="23" width="4" height="1"></rect>
                <rect id="Rectangle" x="20" y="23" width="4" height="1"></rect>
                <rect id="Rectangle" x="16" y="23" width="4" height="1"></rect>
                <path d="M34.4820464,12.1120958 L22.9151545,0.518464766 C22.5866991,0.186151113 22.1391375,-0.000583090668 21.6723581,1.36784829e-06 L21.667097,1.36784829e-06 C21.2033866,1.36784829e-06 20.7592594,0.187029862 20.4342383,0.518464766 L8.16410837,12.8133376 L1.7537108,12.8133376 C0.785150942,12.8133376 0,13.6001843 0,14.570836 L0,30.9741543 C0,31.944806 0.785150942,32.7316527 1.7537108,32.7316527 L10.4147039,32.7316527 L12.1590616,34.4815352 C12.487517,34.8138489 12.9350786,35.0005831 13.401858,35.0000014 L13.4065345,35.0000014 C13.870391,35.0000014 14.3148106,34.8130434 14.6399778,34.4815352 L16.3878429,32.7316527 L29.8130837,32.7316527 C30.7816435,32.7316527 31.5667945,31.944806 31.5667945,30.9741543 L31.5667945,17.5199183 L34.4791236,14.6012993 C34.8115248,14.2752101 34.9991719,13.828952 34.9999879,13.3628488 C35.0017294,12.8931574 34.8151053,12.4425055 34.4820464,12.1120958 Z M27.045728,6.31645194 L20.5628438,12.8133376 L15.598673,12.8133376 L24.5636427,3.82900589 L27.045728,6.31645194 Z M21.2619898,1.34448901 C21.4843457,1.1162339 21.8492637,1.11184016 22.0771,1.33474954 C22.0803882,1.33797162 22.0836764,1.3411937 22.0868184,1.34448901 L23.7370603,3.00063832 L13.9449237,12.8133376 L9.81727309,12.8133376 L21.2619898,1.34448901 Z M13.8122263,33.655511 C13.705323,33.7674051 13.5575729,33.8308215 13.4030271,33.8312608 C13.2463623,33.8308947 13.09642,33.7676247 12.9868131,33.655511 L12.0684532,32.7316527 L14.7346782,32.7316527 L13.8122263,33.655511 Z M30.3976539,30.9741543 C30.3976539,31.2976805 30.1359126,31.5599871 29.8130837,31.5599871 L1.7537108,31.5599871 C1.43088187,31.5599871 1.16914054,31.2976805 1.16914054,30.9741543 L1.16914054,22.7724952 L30.3976539,22.7724952 L30.3976539,30.9741543 Z M30.3976539,21.6008296 L1.16914054,21.6008296 L1.16914054,18.0858328 L30.3976539,18.0858328 L30.3976539,21.6008296 Z M30.3976539,16.9141672 L1.16914054,16.9141672 L1.16914054,14.570836 C1.16914054,14.2473099 1.43088187,13.9850032 1.7537108,13.9850032 L29.8130837,13.9850032 C30.1359126,13.9850032 30.3976539,14.2473099 30.3976539,14.570836 L30.3976539,16.9141672 Z M33.6554641,13.7700026 L33.6554641,13.7700026 L31.5667945,15.8631832 L31.5667945,14.570836 C31.5667945,13.6001843 30.7816435,12.8133376 29.8130837,12.8133376 L22.2136702,12.8133376 L27.8699721,7.14481951 L33.6531258,12.9404634 C33.7654363,13.0507464 33.828643,13.2017448 33.8284971,13.3593338 C33.8283507,13.5139937 33.7659478,13.6620629 33.6554641,13.7700026 Z" id="Shape"></path>
                <path d="M5.77400726,30.3910298 C5.85728368,30.312142 5.93528402,30.2266933 6.0072953,30.1354646 C6.76155999,31.0978957 8.05754916,31.2807436 9.00980923,30.5591155 C9.62440056,30.0883662 9.99329796,29.3211238 10,28.4995972 C10,27.1192169 8.97850928,26.0001818 7.71845446,26.0001818 C7.60523276,25.9984635 7.49215366,26.0089298 7.38078571,26.0314245 L7.36595567,26.0357985 C7.3602518,26.0357985 7.35454794,26.0357985 7.34941446,26.0357985 C6.82686924,26.1309325 6.35166608,26.4246919 6.0072953,26.8656044 C5.18308697,25.8214736 3.74221966,25.7070472 2.78917531,26.6100392 C1.83605965,27.512953 1.73160765,29.0914119 2.55588727,30.1354646 C3.3800956,31.1795954 4.82089161,31.2940217 5.77400726,30.3910298 Z M7.5741467,27.2630114 C7.62170266,27.2530919 7.67004291,27.2487179 7.71845446,27.2498895 C8.34851752,27.2498895 8.85922723,27.809368 8.85922723,28.4995972 C8.85865684,28.7639885 8.78001482,29.0211159 8.63506538,29.2325508 C8.61453147,29.2631686 8.59856065,29.2950362 8.57517481,29.3269037 C8.5711821,29.3319025 8.56547824,29.3350268 8.56091515,29.3400256 C8.34545169,29.6006678 8.03943939,29.749383 7.71845446,29.7493049 C7.08853399,29.7375108 6.58652267,29.1685814 6.59728871,28.4785084 C6.60684269,27.8657611 7.02051541,27.3509596 7.5741467,27.2630114 Z M4.29613614,27.2498895 C4.9261992,27.2498895 5.43690891,27.809368 5.43690891,28.4995972 C5.43690891,29.1898264 4.9261992,29.7493049 4.29613614,29.7493049 C3.66607308,29.7493049 3.15536337,29.1898264 3.15536337,28.4995972 C3.15536337,27.809368 3.66607308,27.2498895 4.29613614,27.2498895 Z" id="Shape"></path>
            </g>
        </g>
    </g>
</svg>