<?xml version="1.0" encoding="UTF-8"?>
<svg width="25px" height="22px" viewBox="0 0 25 22" version="1.1" xmlns="http://www.w3.org/2000/svg" xmlns:xlink="http://www.w3.org/1999/xlink">
    <!-- Generator: Sketch 62 (91390) - https://sketch.com -->
    <title>customer-service</title>
    <desc>Created with Sketch.</desc>
    <g id="Page-1" stroke="none" stroke-width="1" fill="none" fill-rule="evenodd">
        <g id="new-main-page" transform="translate(-248.000000, -1147.000000)" fill="#313865" fill-rule="nonzero">
            <g id="Group-2" transform="translate(0.000000, 1132.000000)">
                <g id="Group-26-Copy" transform="translate(238.000000, 15.000000)">
                    <g id="customer-service" transform="translate(10.000000, 0.000000)">
                        <g id="Group">
                            <path d="M23.5,10.2666667 L22.5,10.2666667 L22.5,9.77777778 C22.5,4.37766022 18.0228475,4.34220561e-16 12.5,4.34220561e-16 C6.9771525,4.34220561e-16 2.5,4.37766022 2.5,9.77777778 L2.5,10.2666667 L1.5,10.2666667 C0.671572875,10.2666667 2.55351296e-15,10.9233157 2.55351296e-15,11.7333333 L2.55351296e-15,15.6444444 C2.55351296e-15,16.4544621 0.671572875,17.1111111 1.5,17.1111111 L3,17.1111111 C3.27614237,17.1111111 3.5,16.8922281 3.5,16.6222222 L3.5,9.77777778 C3.5,4.91767198 7.52943725,0.977777778 12.5,0.977777778 C17.4705627,0.977777778 21.5,4.91767198 21.5,9.77777778 L21.5,16.6222222 C21.5,16.8922281 21.7238576,17.1111111 22,17.1111111 L23.5,17.1111111 C24.3284271,17.1111111 25,16.4544621 25,15.6444444 L25,11.7333333 C25,10.9233157 24.3284271,10.2666667 23.5,10.2666667 L23.5,10.2666667 Z M1,15.6444444 L1,11.7333333 C1,11.4633275 1.22385763,11.2444444 1.5,11.2444444 L2.5,11.2444444 L2.5,16.1333333 L1.5,16.1333333 C1.22385763,16.1333333 1,15.9144503 1,15.6444444 Z M24,15.6444444 C24,15.9144503 23.7761424,16.1333333 23.5,16.1333333 L22.5,16.1333333 L22.5,11.2444444 L23.5,11.2444444 C23.7761424,11.2444444 24,11.4633275 24,11.7333333 L24,15.6444444 Z" id="Shape"></path>
                            <path d="M18,6.35555556 L7,6.35555556 C5.61997342,6.35717188 4.50165306,7.45064068 4.5,8.8 L4.5,14.6666667 C4.50165306,16.016026 5.61997342,17.1094948 7,17.1111111 L12.293,17.1111111 L17.1465,21.8567556 C17.2894971,21.9965328 17.5045183,22.0383396 17.6913273,21.962687 C17.8781362,21.8870344 17.9999568,21.7088158 18,21.5111111 L18,17.1111111 C19.3800266,17.1094948 20.4983469,16.016026 20.5,14.6666667 L20.5,8.8 C20.4983469,7.45064068 19.3800266,6.35717188 18,6.35555556 Z M19.5,14.6666667 C19.5,15.4766843 18.8284271,16.1333333 18,16.1333333 L17.5,16.1333333 C17.2238576,16.1333333 17,16.3522163 17,16.6222222 L17,20.3309333 L12.8535,16.2765778 C12.7597536,16.184887 12.6325974,16.133361 12.5,16.1333333 L7,16.1333333 C6.17157288,16.1333333 5.5,15.4766843 5.5,14.6666667 L5.5,8.8 C5.5,7.98998237 6.17157288,7.33333333 7,7.33333333 L18,7.33333333 C18.8284271,7.33333333 19.5,7.98998237 19.5,8.8 L19.5,14.6666667 Z" id="Shape"></path>
                            <path d="M17,9.77777778 L8,9.77777778 C7.72385763,9.77777778 7.5,9.55889477 7.5,9.28888889 C7.5,9.01888301 7.72385763,8.8 8,8.8 L17,8.8 C17.2761424,8.8 17.5,9.01888301 17.5,9.28888889 C17.5,9.55889477 17.2761424,9.77777778 17,9.77777778 Z" id="Path"></path>
                            <path d="M17,12.2222222 L8,12.2222222 C7.72385763,12.2222222 7.5,12.0033392 7.5,11.7333333 C7.5,11.4633275 7.72385763,11.2444444 8,11.2444444 L17,11.2444444 C17.2761424,11.2444444 17.5,11.4633275 17.5,11.7333333 C17.5,12.0033392 17.2761424,12.2222222 17,12.2222222 Z" id="Path"></path>
                            <path d="M17,14.6666667 L8,14.6666667 C7.72385763,14.6666667 7.5,14.4477837 7.5,14.1777778 C7.5,13.9077719 7.72385763,13.6888889 8,13.6888889 L17,13.6888889 C17.2761424,13.6888889 17.5,13.9077719 17.5,14.1777778 C17.5,14.4477837 17.2761424,14.6666667 17,14.6666667 Z" id="Path"></path>
                        </g>
                    </g>
                </g>
            </g>
        </g>
    </g>
</svg>