<?xml version="1.0" encoding="UTF-8"?>
<svg width="32px" height="32px" viewBox="0 0 32 32" version="1.1" xmlns="http://www.w3.org/2000/svg" xmlns:xlink="http://www.w3.org/1999/xlink">
    <!-- Generator: Sketch 62 (91390) - https://sketch.com -->
    <title>Group 9</title>
    <desc>Created with Sketch.</desc>
    <g id="Page-1" stroke="none" stroke-width="1" fill="none" fill-rule="evenodd">
        <g id="Group-9" fill="#606060" fill-rule="nonzero">
            <g id="wifi-signal">
                <path d="M16,18 C15.448,18 15,17.7013333 15,17.3333333 L15,6.66666667 C15,6.29866667 15.448,6 16,6 C16.552,6 17,6.29866667 17,6.66666667 L17,17.3333333 C17,17.7013333 16.552,18 16,18 Z" id="Path"></path>
                <path d="M12.3047041,10 C12.0867908,10 11.8702654,9.90314858 11.737019,9.72122496 C11.2553889,9.07205868 11,8.30379132 11,7.50018628 C11,6.69658124 11.2553889,5.92831388 11.737019,5.2791476 C11.9563203,4.98074051 12.3893711,4.91268276 12.7030552,5.11816483 C13.0167394,5.3249557 13.0930785,5.73330224 12.8723892,6.02909171 C12.555929,6.4583791 12.3879831,6.96619466 12.3879831,7.50018628 C12.3879831,8.0341779 12.555929,8.54199346 12.8737772,8.97128085 C13.0944665,9.26707032 13.0181274,9.67541686 12.7044432,9.88220773 C12.5823007,9.96204471 12.4435024,10 12.3047041,10 L12.3047041,10 Z" id="Path"></path>
                <path d="M19.6952959,10 C19.5564976,10 19.4190873,9.96204471 19.2969448,9.88220773 C18.9832606,9.67541686 18.9069215,9.26707032 19.1276108,8.97128085 C19.444071,8.54199346 19.6120169,8.0341779 19.6120169,7.50018628 C19.6120169,6.96619466 19.444071,6.4583791 19.1262228,6.02909171 C18.9055335,5.73330224 18.9818726,5.3249557 19.2955568,5.11816483 C19.6106289,4.91268276 20.0436797,4.98074051 20.261593,5.2791476 C20.7446111,5.92831388 21,6.69658124 21,7.50018628 C21,8.30379132 20.7446111,9.07205868 20.262981,9.72122496 C20.1283466,9.90314858 19.9132092,10 19.6952959,10 L19.6952959,10 Z" id="Path"></path>
                <path d="M10.2349954,12 C9.99159524,12 9.75125669,11.8947313 9.60276727,11.698045 C8.5541564,10.3060047 8,8.68126509 8,6.9997358 C8,5.31820651 8.5541564,3.69346693 9.60276727,2.30142662 C9.841575,1.98423534 10.3222521,1.90666892 10.6651555,2.11997658 C11.015713,2.33466937 11.1045005,2.76544005 10.8672236,3.08263133 C9.99312606,4.24335748 9.53081879,5.59799969 9.53081879,6.9997358 C9.53081879,8.40147191 9.99312606,9.75611413 10.8672236,10.9168403 C11.1045005,11.2340316 11.015713,11.6648022 10.6651555,11.879495 C10.5335051,11.9612168 10.3850157,12 10.2349954,12 Z" id="Path"></path>
                <path d="M21.7650046,12 C21.6149843,12 21.4664949,11.961213 21.3348445,11.8794832 C20.984287,11.6647694 20.8954995,11.2339566 21.1327764,10.9167343 C22.0068739,9.75589465 22.4691812,8.40111993 22.4691812,6.99924671 C22.4691812,5.59737349 22.0068739,4.24259878 21.1327764,3.08175909 C20.8954995,2.76453679 20.984287,2.33372398 21.3348445,2.11901019 C21.6823404,1.90706691 22.1599558,1.98464092 22.3972327,2.30047797 C23.4458436,3.69265444 24,5.31755295 24,6.99924671 C24,8.68094048 23.4458436,10.305839 22.3972327,11.6980155 C22.2487433,11.8933357 22.0084048,12 21.7650046,12 Z" id="Path"></path>
                <path d="M7.19695001,14 C6.94151531,14 6.69090013,13.8996173 6.5350689,13.713381 C4.87715312,11.72686 4,9.40617027 4,6.99962693 C4,4.59308358 4.87715312,2.27239386 6.5350689,0.285872901 C6.78568408,-0.0152752235 7.28691443,-0.0892414295 7.65159164,0.115486462 C8.01787536,0.321535179 8.10944629,0.732311788 7.85883112,1.03345991 C6.3856637,2.79808226 5.60650754,4.86121108 5.60650754,6.99962693 C5.60650754,9.13804278 6.3856637,11.2011716 7.85883112,12.9657939 C8.10944629,13.2669421 8.01787536,13.6777187 7.65159164,13.8837674 C7.51343199,13.9616961 7.35438775,14 7.19695001,14 L7.19695001,14 Z" id="Path"></path>
                <path d="M24.80305,14 C24.6456123,14 24.4881745,13.9630169 24.3484084,13.8837674 C23.9821246,13.6777187 23.8905537,13.2669421 24.1411689,12.9657939 C25.6143363,11.2011716 26.3934925,9.13804278 26.3934925,6.99962693 C26.3934925,4.86121108 25.6143363,2.79808226 24.1411689,1.03345991 C23.8905537,0.732311788 23.9821246,0.321535179 24.3484084,0.115486462 C24.7162986,-0.0892414295 25.2159224,-0.0152752235 25.4649311,0.285872901 C27.1228469,2.27239386 28,4.59308358 28,6.99962693 C28,9.40617027 27.1228469,11.72686 25.4649311,13.713381 C25.3090999,13.8996173 25.0584847,14 24.80305,14 L24.80305,14 Z" id="Path"></path>
                <path d="M28.6666667,29 L3.33333333,29 C1.49466667,29 0,27.504 0,25.6666667 L0,20.3333333 C0,18.496 1.49466667,17 3.33333333,17 L28.6666667,17 C30.5053333,17 32,18.496 32,20.3333333 L32,25.6666667 C32,27.504 30.5053333,29 28.6666667,29 Z M3.33333333,18.3333333 C2.23066667,18.3333333 1.33333333,19.2306667 1.33333333,20.3333333 L1.33333333,25.6666667 C1.33333333,26.7693333 2.23066667,27.6666667 3.33333333,27.6666667 L28.6666667,27.6666667 C29.7693333,27.6666667 30.6666667,26.7693333 30.6666667,25.6666667 L30.6666667,20.3333333 C30.6666667,19.2306667 29.7693333,18.3333333 28.6666667,18.3333333 L3.33333333,18.3333333 Z" id="Shape"></path>
                <path d="M4,32 C3.448,32 3,31.7013333 3,31.3333333 L3,28.6666667 C3,28.2986667 3.448,28 4,28 C4.552,28 5,28.2986667 5,28.6666667 L5,31.3333333 C5,31.7013333 4.552,32 4,32 Z" id="Path"></path>
                <path d="M28,32 C27.448,32 27,31.7013333 27,31.3333333 L27,28.6666667 C27,28.2986667 27.448,28 28,28 C28.552,28 29,28.2986667 29,28.6666667 L29,31.3333333 C29,31.7013333 28.552,32 28,32 Z" id="Path"></path>
                <path d="M26,26 C24.8973333,26 24,25.1026667 24,24 C24,22.8973333 24.8973333,22 26,22 C27.1026667,22 28,22.8973333 28,24 C28,25.1026667 27.1026667,26 26,26 Z M26,23.3333333 C25.6333333,23.3333333 25.3333333,23.632 25.3333333,24 C25.3333333,24.368 25.6333333,24.6666667 26,24.6666667 C26.3666667,24.6666667 26.6666667,24.368 26.6666667,24 C26.6666667,23.632 26.3666667,23.3333333 26,23.3333333 Z" id="Shape"></path>
                <path d="M6,26 C4.89733333,26 4,25.1026667 4,24 C4,22.8973333 4.89733333,22 6,22 C7.10266667,22 8,22.8973333 8,24 C8,25.1026667 7.10266667,26 6,26 Z M6,23.3333333 C5.63333333,23.3333333 5.33333333,23.632 5.33333333,24 C5.33333333,24.368 5.63333333,24.6666667 6,24.6666667 C6.36666667,24.6666667 6.66666667,24.368 6.66666667,24 C6.66666667,23.632 6.36666667,23.3333333 6,23.3333333 Z" id="Shape"></path>
                <path d="M13,26 C11.8973333,26 11,25.1026667 11,24 C11,22.8973333 11.8973333,22 13,22 C14.1026667,22 15,22.8973333 15,24 C15,25.1026667 14.1026667,26 13,26 Z M13,23.3333333 C12.6333333,23.3333333 12.3333333,23.632 12.3333333,24 C12.3333333,24.368 12.6333333,24.6666667 13,24.6666667 C13.3666667,24.6666667 13.6666667,24.368 13.6666667,24 C13.6666667,23.632 13.3666667,23.3333333 13,23.3333333 Z" id="Shape"></path>
            </g>
        </g>
    </g>
</svg>