<?xml version="1.0" encoding="UTF-8"?>
<svg width="26px" height="32px" viewBox="0 0 26 32" version="1.1" xmlns="http://www.w3.org/2000/svg" xmlns:xlink="http://www.w3.org/1999/xlink">
    <!-- Generator: Sketch 62 (91390) - https://sketch.com -->
    <title>Group 9</title>
    <desc>Created with Sketch.</desc>
    <g id="Page-1" stroke="none" stroke-width="1" fill="none" fill-rule="evenodd">
        <g id="Group-9" fill="#606060" fill-rule="nonzero">
            <g id="light-bulb">
                <path d="M13.5,4 C13.776125,4 14,3.7015 14,3.33333333 L14,0.666666667 C14,0.2985 13.776125,0 13.5,0 C13.223875,0 13,0.2985 13,0.666666667 L13,3.33333333 C13,3.7015 13.2238125,4 13.5,4 Z" id="Path"></path>
                <path d="M6.10295404,2.82522757 L7.60032377,4.722796 C7.80471474,4.98588293 8.26178685,5.07787089 8.62124917,4.92827915 C8.98071149,4.77868742 9.10639696,4.44416084 8.90200599,4.18107391 C8.90041504,4.17895059 8.8987305,4.17689575 8.89704596,4.17477243 L7.39967623,2.277204 C7.19528526,2.01411707 6.73821315,1.92212911 6.37875083,2.07172085 C6.01928851,2.22131258 5.89360304,2.55583916 6.09799401,2.81892609 C6.09958496,2.82104941 6.1012695,2.82317274 6.10295404,2.82522757 Z" id="Path"></path>
                <path d="M2.27094017,7.39471258 C2.27299505,7.39639718 2.27511843,7.39798819 2.27724181,7.39967279 L4.17485786,8.89709386 C4.435965,9.10617127 4.77166441,8.98656477 4.9246847,8.6298042 C5.077705,8.27304363 4.99016698,7.81436484 4.72905983,7.60528742 C4.72700495,7.60360282 4.72488157,7.60201181 4.72275819,7.60032721 L2.82514214,6.10290614 C2.564035,5.89382873 2.22833559,6.01343523 2.0753153,6.3701958 C1.922295,6.72686278 2.00983302,7.18563516 2.27094017,7.39471258 Z" id="Path"></path>
                <path d="M3,12.5 C3,12.223875 2.776125,12 2.5,12 L0.5,12 C0.223875,12 0,12.223875 0,12.5 C0,12.776125 0.223875,13 0.5,13 L2.5,13 C2.776125,13 3,12.776125 3,12.5 Z" id="Path"></path>
                <path d="M4.18120905,17.0979056 C4.17908573,17.0995902 4.17696241,17.1012747 4.17483909,17.1029592 L2.27727582,18.6003234 C2.0141896,18.80462 1.9221334,19.2616904 2.07165623,19.6211514 C2.22117907,19.9806124 2.55570473,20.106391 2.81879095,19.9020944 C2.82091427,19.9004098 2.82303759,19.8987253 2.82516091,19.8970408 L4.72272418,18.3996766 C4.9858104,18.19538 5.0778666,17.7383096 4.92834377,17.3788486 C4.77882093,17.0193876 4.44429527,16.893609 4.18120905,17.0979056 Z" id="Path"></path>
                <path d="M23.7291552,18.6053761 C23.7270319,18.6036916 23.7249086,18.6020071 23.7227853,18.6003226 L21.8252335,17.1029707 C21.5642037,16.8938094 21.2284471,17.0134104 21.0753635,17.3700609 C20.9222799,17.7267114 21.009815,18.1854625 21.2708448,18.3946239 C21.2729681,18.3963084 21.2750914,18.3979929 21.2772147,18.3996774 L23.1747665,19.8970293 C23.4357963,20.1061906 23.7715529,19.9865896 23.9246365,19.6299391 C24.0777201,19.273195 23.990185,18.8145375 23.7291552,18.6053761 Z" id="Path"></path>
                <path d="M25.5,12 L23.5,12 C23.223875,12 23,12.223875 23,12.5 C23,12.776125 23.223875,13 23.5,13 L25.5,13 C25.776125,13 26,12.776125 26,12.5 C26,12.223875 25.776125,12 25.5,12 Z" id="Path"></path>
                <path d="M21.5486723,9 C21.6449397,9 21.7395614,8.96534294 21.8229383,8.89958819 L23.7225042,7.40090448 C23.9858681,7.19633416 24.0779529,6.73886095 23.9282037,6.37908319 C23.7784544,6.01930544 23.4435757,5.89350967 23.1802119,6.09808 C23.1780863,6.09967235 23.1760293,6.10135837 23.1739037,6.10304439 L21.2743378,7.6017281 C21.0120024,7.80864012 20.9221118,8.26695633 21.0735751,8.62532907 C21.1716252,8.85715671 21.3527093,9 21.5486723,9 Z" id="Path"></path>
                <path d="M17.3741726,4.92622791 C17.3744536,4.92636502 17.3747346,4.92650214 17.3750155,4.92657069 C17.7334324,5.07787543 18.1916854,4.98786042 18.3983815,4.7254252 C18.3983815,4.72535665 18.3984752,4.72528809 18.3984752,4.72528809 L19.8969519,2.82599203 C20.1062704,2.56472228 19.9865795,2.22865711 19.6296611,2.07543279 C19.2727427,1.92220847 18.8136469,2.00982399 18.6043284,2.27109374 C18.6026426,2.273219 18.6009568,2.27534426 18.599271,2.27746952 L17.1007943,4.17676558 C16.8936299,4.43899512 17.0160367,4.77451183 17.3741726,4.92622791 Z" id="Path"></path>
                <path d="M14.1111111,22 C14.4179167,22 14.6666667,21.7537375 14.6666667,21.45 L14.6666667,15.4 L15.7777778,15.4 C17.0050694,15.4 18,14.4150187 18,13.2 C18,11.9849813 17.0050694,11 15.7777778,11 C14.5504861,11 13.5555556,11.9849813 13.5555556,13.2 L13.5555556,14.3 L12.4444444,14.3 L12.4444444,13.2 C12.4444444,11.9849813 11.4495139,11 10.2222222,11 C8.99493056,11 8,11.9849813 8,13.2 C8,14.4150187 8.99493056,15.4 10.2222222,15.4 L11.3333333,15.4 L11.3333333,21.45 C11.3333333,21.7537375 11.5820833,22 11.8888889,22 C12.1956944,22 12.4444444,21.7537375 12.4444444,21.45 L12.4444444,15.4 L13.5555556,15.4 L13.5555556,21.45 C13.5555556,21.7537375 13.8042361,22 14.1111111,22 Z M14.6666667,13.2 C14.6666667,12.5924562 15.1640972,12.1 15.7777778,12.1 C16.3914583,12.1 16.8888889,12.5924562 16.8888889,13.2 C16.8888889,13.8075437 16.3914583,14.3 15.7777778,14.3 L14.6666667,14.3 L14.6666667,13.2 Z M11.3333333,14.3 L10.2222222,14.3 C9.60854167,14.3 9.11111111,13.8075437 9.11111111,13.2 C9.11111111,12.5924562 9.60854167,12.1 10.2222222,12.1 C10.8359028,12.1 11.3333333,12.5924562 11.3333333,13.2 L11.3333333,14.3 Z" id="Shape"></path>
                <path d="M13.9103023,4.01010606 C9.22003837,3.78180019 5.23513073,7.44943437 5.00982057,12.2020599 C4.88075877,14.9234228 6.02969442,17.546248 8.10803446,19.2748303 C8.4825993,19.572126 8.70545177,20.0242955 8.71488397,20.506282 L8.71488397,21.7689643 C8.71767378,22.451055 9.14298655,23.0578963 9.77766772,23.2852599 L9.77766772,23.9227932 C9.77906262,24.3214535 9.92678956,24.7053735 10.1921534,24.9997077 C9.63950583,25.6084336 9.63950583,26.5448108 10.1921534,27.1535367 C9.60137846,27.8097814 9.64747671,28.8270618 10.2951106,29.4256916 C10.5893024,29.6976125 10.9736315,29.8475728 11.3718433,29.8458229 C11.657865,29.8534286 11.8958621,29.6245842 11.9033016,29.3347596 C11.9062243,29.2216836 11.8730123,29.1106268 11.8086474,29.0182141 C11.7918422,28.9853009 11.771915,28.9540704 11.7491316,28.925061 C11.7054246,28.8845421 11.6555402,28.851427 11.6014046,28.8270618 C11.5859943,28.8189849 11.5705839,28.8125234 11.5546421,28.8060619 C11.5008387,28.7862063 11.4444447,28.7747641 11.3872537,28.7721391 C11.3819398,28.7721391 11.3771572,28.7689084 11.3718433,28.7689084 C11.0783822,28.7689084 10.8404515,28.5278142 10.8404515,28.2304511 C10.8404515,27.9330881 11.0783822,27.6919939 11.3718433,27.6919939 L13.4974108,27.6919939 C13.790872,27.6919939 14.0288027,27.4508997 14.0288027,27.1535367 C14.0288027,26.8561737 13.790872,26.6150794 13.4974108,26.6150794 L11.3718433,26.6150794 C11.0783822,26.6150794 10.8404515,26.3739852 10.8404515,26.0766222 C10.8404515,25.7792592 11.0783822,25.5381649 11.3718433,25.5381649 L13.4974108,25.5381649 C13.790872,25.5381649 14.0288027,25.2970707 14.0288027,24.9997077 C14.0288027,24.7023447 13.790872,24.4612505 13.4974108,24.4612505 L11.3718433,24.4612505 C11.0783822,24.4612505 10.8404515,24.2201562 10.8404515,23.9227932 L10.8404515,23.384336 L13.4974108,23.384336 C13.790872,23.384336 14.0288027,23.1432418 14.0288027,22.8458788 C14.0288027,22.5485157 13.790872,22.3074215 13.4974108,22.3074215 L10.3090596,22.3074215 C10.0155984,22.3074215 9.77766772,22.0663273 9.77766772,21.7689643 L9.77766772,20.506282 C9.76896617,19.7011539 9.40303645,18.9427368 8.78130796,18.4412985 C5.60703861,15.7978773 5.1486467,11.047473 7.75738224,7.83099863 C9.24966347,5.99109025 11.5121972,4.97394452 13.8598201,5.087559 C17.7859425,5.32421096 20.8699416,8.58463685 20.936897,12.5694223 C20.9559607,14.8613656 19.9389431,17.0361271 18.1763162,18.4725291 C17.5592374,18.9875634 17.2063932,19.7587015 17.2171539,20.5687431 L17.2171539,21.7689643 C17.2171539,22.0663273 16.9792232,22.3074215 16.685762,22.3074215 L15.0915864,22.3074215 C14.7981253,22.3074215 14.5601946,22.5485157 14.5601946,22.8458788 C14.5601946,23.1432418 14.7981253,23.384336 15.0915864,23.384336 L16.1543702,23.384336 L16.1543702,23.9227932 C16.1543702,24.2201562 15.9164395,24.4612505 15.6229783,24.4612505 L15.0915864,24.4612505 C14.7981253,24.4612505 14.5601946,24.7023447 14.5601946,24.9997077 C14.5601946,25.2970707 14.7981253,25.5381649 15.0915864,25.5381649 L15.6229783,25.5381649 C15.9164395,25.5381649 16.1543702,25.7792592 16.1543702,26.0766222 C16.1543702,26.3739852 15.9164395,26.6150794 15.6229783,26.6150794 L15.0915864,26.6150794 C14.7981253,26.6150794 14.5601946,26.8561737 14.5601946,27.1535367 C14.5601946,27.4508997 14.7981253,27.6919939 15.0915864,27.6919939 L15.6229783,27.6919939 C15.9164395,27.6919939 16.1543702,27.9330881 16.1543702,28.2304511 C16.1543702,28.5278142 15.9164395,28.7689084 15.6229783,28.7689084 L12.9660189,28.7689084 C12.6725578,28.7689084 12.4346271,29.0100026 12.4346271,29.3073656 C12.4346271,29.6047286 12.6725578,29.8458229 12.9660189,29.8458229 L15.0007184,29.8458229 C14.7073237,30.6869604 13.796518,31.1278222 12.9664175,30.8305265 C12.7122793,30.7395273 12.4851093,30.5846535 12.3060302,30.3805109 C12.1108766,30.1583973 11.7749041,30.138609 11.5557049,30.3363574 C11.3365058,30.5341058 11.3169771,30.8745454 11.5121308,31.096659 C12.4839801,32.2063521 14.1595915,32.3076494 15.2547237,31.3229457 C15.7070711,30.9162085 16.0085695,30.3650303 16.1092019,29.7607466 C16.941428,29.4971718 17.4052002,28.5999001 17.1451503,27.7566088 C17.0760694,27.5325433 16.9590967,27.3266507 16.8026683,27.1535367 C17.3553158,26.5448108 17.3553158,25.6084336 16.8026683,24.9997077 C17.0680321,24.7053735 17.215759,24.3214535 17.2171539,23.9227932 L17.2171539,23.2852599 C17.8518351,23.0578963 18.2771479,22.451055 18.2799377,21.7689643 L18.2799377,20.5687431 C18.2728303,20.0850066 18.4796746,19.6233468 18.8437444,19.3103685 C20.8593138,17.6684105 22.0221321,15.1818149 21.9996808,12.5613455 C21.9228946,8.00680492 18.3977738,4.28047891 13.9103023,4.01010606 Z" id="Path"></path>
            </g>
        </g>
    </g>
</svg>