<?xml version="1.0" encoding="UTF-8"?>
<svg width="23px" height="22px" viewBox="0 0 23 22" version="1.1" xmlns="http://www.w3.org/2000/svg" xmlns:xlink="http://www.w3.org/1999/xlink">
    <!-- Generator: Sketch 62 (91390) - https://sketch.com -->
    <title>question</title>
    <desc>Created with Sketch.</desc>
    <g id="Page-1" stroke="none" stroke-width="1" fill="none" fill-rule="evenodd">
        <g id="new-main-page" transform="translate(-147.000000, -1147.000000)" fill="#313865" fill-rule="nonzero">
            <g id="Group-2" transform="translate(0.000000, 1132.000000)">
                <g id="Group-25-Copy" transform="translate(142.000000, 15.000000)">
                    <g id="question" transform="translate(5.000000, 0.000000)">
                        <path d="M22.9096867,19.9227203 L21.3307182,15.5273211 C22.090172,14.0589081 22.4918209,12.4221867 22.4945162,10.7752816 C22.4990983,7.93926024 21.3519215,5.25762547 19.2642097,3.22451758 C17.1761835,1.19102297 14.3937508,0.0464222375 11.4295631,0.00143398903 C9.87655965,-0.0224136498 8.36960139,0.251297088 6.94826473,0.814058397 C5.57737565,1.35688222 4.34799131,2.1431668 3.29429749,3.15104107 C2.24055874,4.15891534 1.41852842,5.33484026 0.851071888,6.64611665 C0.26272656,8.00564691 -0.0231130466,9.44780602 0.00145936651,10.9325471 C0.0484030076,13.767838 1.24508402,16.4292775 3.37102451,18.4265495 C5.49242787,20.4195676 8.28874153,21.516516 11.247314,21.516473 C11.2531089,21.516473 11.2592183,21.516473 11.2650133,21.516473 C12.9867893,21.5138949 14.6979187,21.1297116 16.233133,20.4032824 L20.8283539,21.9135899 C21.0050776,21.9716836 21.1862037,22 21.3653532,22 C21.7909456,22 22.2049481,21.8400704 22.518864,21.5397191 C22.964896,21.1130827 23.1147114,20.4934738 22.9096867,19.9227203 Z M21.5546102,20.6174385 C21.5093736,20.660708 21.4125215,20.7263642 21.271421,20.6800439 L16.4021301,19.079631 C16.3301199,19.0559982 16.2552347,19.0442248 16.1805741,19.0442248 C16.0705148,19.0442248 15.9609497,19.0697053 15.8617167,19.1199357 C14.4544406,19.8320563 12.8641967,20.2097513 11.262857,20.2120716 C5.89241465,20.2203646 1.44997392,16.0479731 1.36489138,10.9118792 C1.32208057,8.32778339 2.34971955,5.89914844 4.2585064,4.07336462 C6.16729325,2.24762376 8.70557411,1.26484323 11.4079106,1.30570648 C16.7774546,1.3871322 21.1391702,5.63428926 21.1308147,10.7732621 C21.1282991,12.305011 20.7334783,13.8261036 19.9890286,15.1720987 C19.9008913,15.3314267 19.8856627,15.5185555 19.9468916,15.6890124 L21.6200618,20.3465637 C21.6685328,20.4814425 21.5998917,20.574212 21.5546102,20.6174385 Z" id="Shape"></path>
                        <path d="M11.5,16 C11.2386899,16 10.9883404,16.229971 11.0004201,16.5 C11.0125328,16.7708855 11.2199285,17 11.5,17 C11.7613101,17 12.0116596,16.770029 11.9995799,16.5 C11.9874672,16.2290816 11.7800715,16 11.5,16 Z" id="Path"></path>
                        <path d="M11.5,6 C9.57009866,6 8,7.43181722 8,9.19174866 C8,9.54602578 8.31498378,9.83326837 8.70347613,9.83326837 C9.09196848,9.83326837 9.40695226,9.54602578 9.40695226,9.19174866 C9.40695226,8.13931481 10.3459247,7.28303943 11.5,7.28303943 C12.6540753,7.28303943 13.5930477,8.13931481 13.5930477,9.19174866 C13.5930477,10.2441825 12.6540753,11.1004579 11.5,11.1004579 C11.1115076,11.1004579 10.7965239,11.3877005 10.7965239,11.7419776 L10.7965239,14.3584803 C10.7965239,14.7127574 11.1115076,15 11.5,15 C11.8884924,15 12.2034761,14.7127997 12.2034761,14.358438 L12.2034761,12.3187029 C13.7973515,12.020936 15,10.7320215 15,9.19174866 C15,7.43181722 13.4299013,6 11.5,6 Z" id="Path"></path>
                    </g>
                </g>
            </g>
        </g>
    </g>
</svg>