<?xml version="1.0" encoding="UTF-8"?>
<svg width="42px" height="38px" viewBox="0 0 42 38" version="1.1" xmlns="http://www.w3.org/2000/svg" xmlns:xlink="http://www.w3.org/1999/xlink">
    <!-- Generator: Sketch 62 (91390) - https://sketch.com -->
    <title>Group 9</title>
    <desc>Created with Sketch.</desc>
    <g id="Page-1" stroke="none" stroke-width="1" fill="none" fill-rule="evenodd">
        <g id="Group-9" fill="#606060" fill-rule="nonzero">
            <g id="gas-station">
                <path d="M21.8324873,13 L1.16751269,13 C0.525380711,13 0,13.5255474 0,14.1678832 L0,27.8321168 C0,28.4744526 0.525380711,29 1.16751269,29 L21.8324873,29 C22.4746193,29 23,28.4744526 23,27.8321168 L23,14.1678832 C23,13.5255474 22.4746193,13 21.8324873,13 Z M20.6649746,26.6642336 L2.33502538,26.6642336 L2.33502538,15.3357664 L20.6649746,15.3357664 L20.6649746,26.6642336 Z" id="Shape"></path>
                <path d="M41.1112508,36.2242991 L26.3632935,36.2242991 L26.3632935,22.0186916 L27.7976116,22.0186916 C29.0999371,22.0186916 30.1558768,23.0929907 30.1470773,24.4070093 C30.1470773,24.4158879 30.1470773,24.4158879 30.1470773,24.4247664 L30.1470773,26.8841121 C30.1470773,29.485514 32.2325581,31.5897196 34.8108108,31.5897196 C37.3890635,31.5897196 39.4745443,29.485514 39.4745443,26.8841121 L39.4745443,12.8383178 C39.4745443,11.382243 38.937775,9.97943925 37.9522313,8.90514019 L31.0710245,0.994392523 L29.7510999,2.16635514 L35.0835952,8.30140187 C33.1565053,8.62990654 31.8541798,10.467757 32.1797612,12.4121495 C32.4613451,14.1345794 33.9396606,15.3953271 35.6731615,15.3953271 C36.4035198,15.3864486 37.1162791,15.164486 37.7146449,14.7383178 L37.7146449,26.8841121 C37.7146449,28.5 36.4123193,29.8140187 34.8108108,29.8140187 C33.2093023,29.8140187 31.9069767,28.5 31.9069767,26.8841121 L31.9069767,24.4247664 C31.9157762,22.1252336 30.0766813,20.2518692 27.8064111,20.2429907 L27.7976116,20.2429907 L26.3632935,20.2429907 L26.3632935,3.70233645 C26.3632935,1.67803738 24.744186,0 22.7379007,0 L6.38843495,0 C4.38214959,0 2.78064111,1.68691589 2.78064111,3.70233645 L2.78064111,36.2242991 L0.879949717,36.2242991 C0.395977373,36.2242991 0,36.6238318 0,37.1121495 C0,37.6004673 0.395977373,38 0.879949717,38 L41.1200503,38 C41.6040226,38 42,37.6004673 42,37.1121495 C42,36.6238318 41.6040226,36.2242991 41.1112508,36.2242991 Z M36,14 C34.8910891,14 34,13.0990099 34,12 C34,10.9009901 34.9009901,10 36,10 C37.1089109,10 38,10.9009901 38,12 C38,13.0990099 37.0990099,14 36,14 Z M25,36 L5,36 L5,3.90154639 C5,2.86752577 5.80701754,2 6.84210526,2 L23.1403509,2 C24.1754386,2 25,2.87628866 25,3.90154639 L25,36 Z" id="Shape"></path>
            </g>
        </g>
    </g>
</svg>