<?xml version="1.0" encoding="UTF-8"?>
<svg width="22px" height="34px" viewBox="0 0 22 34" version="1.1" xmlns="http://www.w3.org/2000/svg" xmlns:xlink="http://www.w3.org/1999/xlink">
    <!-- Generator: Sketch 62 (91390) - https://sketch.com -->
    <title>Group 9</title>
    <desc>Created with Sketch.</desc>
    <g id="Page-1" stroke="none" stroke-width="1" fill="none" fill-rule="evenodd">
        <g id="Group-9" fill="#606060" fill-rule="nonzero">
            <g id="gas">
                <path d="M19.5902535,13 L18.4097465,13 C18.1834025,13 18,13.2238 18,13.5 C18,13.7762 18.1834572,14 18.4097465,14 L19.5902535,14 C19.8165975,14 20,13.7762 20,13.5 C20,13.2238 19.8165975,13 19.5902535,13 Z" id="Path"></path>
                <path d="M22,13.4125352 C22,10.1406328 19.3579491,7.4491875 16.0111804,7.19451953 L16.0111804,0.498046875 C16.0111804,0.222925781 15.778584,0 15.4915281,0 L6.50833333,0 C6.2212774,0 5.98868103,0.222925781 5.98868103,0.498046875 L5.98868103,7.19478516 C2.64198161,7.44938672 0,10.1406992 0,13.4126016 L0,13.4127344 L0,27.7618633 C0,29.4497109 1.30224868,30.8512148 2.99423658,31.0927344 L2.99423658,33.5019531 C2.99423658,33.7770742 3.22683296,34 3.51388889,34 L18.4859725,34 C18.7730285,34 19.0056248,33.7770742 19.0056248,33.5019531 L19.0056248,31.0927344 C20.6967813,30.8513477 21.998545,29.4511055 22,27.7644531 C22,27.7635898 22,27.7627266 22,27.7618633 C22,27.7613984 22,27.761 22,27.7605352 L22,13.4125352 Z M7.02798564,0.99609375 L14.9718758,0.99609375 L14.9718758,7.17466406 L12.6425863,7.17473047 L12.6425863,4.80296484 C12.6425863,4.52784375 12.4099899,4.30491797 12.122934,4.30491797 L9.87706601,4.30491797 C9.59001008,4.30491797 9.35741371,4.52784375 9.35741371,4.80296484 L9.35741371,7.17479688 L7.02798564,7.17486328 L7.02798564,0.99609375 Z M11.6032817,5.30101172 L11.6032817,7.17466406 L10.3967183,7.17466406 L10.3967183,5.30101172 L11.6032817,5.30101172 Z M17.9663202,33.0039062 L4.03354119,33.0039062 L4.03354119,31.1297891 L17.9663202,31.1297891 L17.9663202,33.0039062 Z M20.9606261,27.26375 L6.68397581,27.26375 C6.39691988,27.26375 6.16432351,27.4866758 6.16432351,27.7617969 C6.16432351,28.036918 6.39691988,28.2598437 6.68397581,28.2598437 L20.9052658,28.2598437 C20.66581,29.3293828 19.6722348,30.1336953 18.4859033,30.1336953 L3.51409675,30.1336953 C2.14955908,30.1336953 1.03930461,29.0697344 1.03930461,27.7617969 L1.03930461,13.9107148 L15.3159549,13.9107148 C15.6030108,13.9107148 15.8356072,13.6877891 15.8356072,13.412668 C15.8356072,13.1375469 15.6030108,12.9146211 15.3159549,12.9146211 L1.06466364,12.9146211 C1.32726127,10.2571094 3.66798312,8.17075781 6.50833333,8.17075781 L15.4915281,8.17075781 C15.4924288,8.17075781 15.4932603,8.17075781 15.494161,8.17075781 C18.5086294,8.17215234 20.9606261,10.523 20.9606261,13.4125352 L20.9606261,27.26375 Z" id="Shape"></path>
                <path d="M3.59026469,27 L2.40973531,27 C2.18339753,27 2,27.2238 2,27.5 C2,27.7762 2.18339753,28 2.40973531,28 L3.59026469,28 C3.81660247,28 4,27.7762 4,27.5 C4,27.2238 3.81654784,27 3.59026469,27 Z" id="Path"></path>
                <path d="M14.9682455,22.0864814 C14.9625283,22.0288941 14.9575688,21.9804323 14.9560534,21.9581025 L14.9560534,21.9582408 C14.7086987,17.985614 11.9023151,16.1564386 11.7830118,16.0805312 C11.6275455,15.9816718 11.4314389,15.9733068 11.2682579,16.0583397 C11.1050079,16.1434417 10.9991366,16.3092904 10.9903886,16.4937358 C10.948164,17.3811199 10.5848123,18.0871004 10.307563,18.5030703 L10.0447788,18.23933 C9.93601436,18.1301699 9.78371663,18.0752787 9.6314189,18.0896583 C9.47829459,18.1040378 9.33956658,18.186098 9.25284435,18.3135091 C8.60266874,19.2691961 8.18662248,20.3672958 8.04968539,21.489108 C8.00594543,21.8468684 7.99099807,22.1975081 8.00518773,22.5313487 C8.01372908,22.7325933 8.02626557,22.8626314 8.04265945,22.9520888 C8.26934956,24.6908389 9.75533732,26 11.5064512,26 C13.4328006,26 15,24.4270986 15,22.4937407 C15,22.4116113 14.9873946,22.2791536 14.9682455,22.0864814 Z M11.5064512,24.9629442 C10.2691269,24.9629442 9.21978107,24.0354633 9.06555465,22.8055971 C9.06479695,22.7998591 9.06369484,22.7921163 9.06279938,22.7864474 C9.0600441,22.7690952 8.82433048,21.1925989 9.77724174,19.4373953 L9.98843344,19.6493554 C10.0853502,19.7466247 10.2167078,19.8012393 10.3537827,19.8012393 C10.3539893,19.8012393 10.3542648,19.8012393 10.3544715,19.8012393 C10.491753,19.8010319 10.6232484,19.7460717 10.7200963,19.6483875 C10.7605988,19.6075302 11.5459894,18.8014459 11.8797219,17.4922848 C12.6312227,18.2170694 13.7796895,19.6910422 13.9248235,22.0228796 L13.9248235,22.0230179 C13.9265455,22.0506017 13.9326071,22.113927 13.9401153,22.1894196 C13.9485188,22.2737612 13.9660148,22.4492885 13.9667725,22.4936715 C13.9667725,23.855235 12.8631478,24.9629442 11.5064512,24.9629442 Z" id="Shape"></path>
            </g>
        </g>
    </g>
</svg>