<?xml version="1.0" encoding="UTF-8"?>
<svg width="24px" height="22px" viewBox="0 0 24 22" version="1.1" xmlns="http://www.w3.org/2000/svg" xmlns:xlink="http://www.w3.org/1999/xlink">
    <!-- Generator: Sketch 62 (91390) - https://sketch.com -->
    <title>Shape</title>
    <desc>Created with Sketch.</desc>
    <g id="Page-1" stroke="none" stroke-width="1" fill="none" fill-rule="evenodd">
        <g id="new-main-page" transform="translate(-44.000000, -1147.000000)" fill="#313865" fill-rule="nonzero">
            <g id="Group-2" transform="translate(0.000000, 1132.000000)">
                <g id="Group-17" transform="translate(16.037500, 9.022222)">
                    <g id="home" transform="translate(28.000000, 6.000000)">
                        <path d="M22.5526278,9.53027681 C22.5519205,9.52977533 22.55139,9.52910666 22.5508595,9.52860514 L13.0963391,0.590940698 C12.6933457,0.209796492 12.1575535,0 11.5876334,0 C11.0177133,0 10.4819212,0.209796492 10.0787509,0.590940698 L0.62918169,9.52409158 C0.625998744,9.52710064 0.62263898,9.53027681 0.619632897,9.53328586 C-0.207927196,10.3201481 -0.206512564,11.596814 0.623699977,12.3816701 C1.00299834,12.7404137 1.5037783,12.9480371 2.03939357,12.9699361 C2.06132037,12.9719422 2.08324718,12.9729451 2.1053508,12.9729451 L2.48199677,12.9729451 L2.48199677,19.5503574 C2.48199677,20.8520986 3.60238582,21.9111111 4.97935387,21.9111111 L8.67826454,21.9111111 C9.05331905,21.9111111 9.35728821,21.6235813 9.35728821,21.269184 L9.35728821,16.1123698 C9.35728821,15.5184201 9.86850109,15.0353031 10.4967748,15.0353031 L12.678492,15.0353031 C13.3067657,15.0353031 13.8178018,15.5184201 13.8178018,16.1123698 L13.8178018,21.269184 C13.8178018,21.6235813 14.1217709,21.9111111 14.4968254,21.9111111 L18.1957361,21.9111111 C19.572881,21.9111111 20.6930932,20.8520986 20.6930932,19.5503574 L20.6930932,12.9729451 L21.0425075,12.9729451 C21.6122508,12.9729451 22.1480429,12.7631487 22.55139,12.3818373 C23.3824867,11.595811 23.3828403,10.3168047 22.5526278,9.53027681 L22.5526278,9.53027681 Z M21.5910313,11.4741123 C21.44444,11.612695 21.2495743,11.689091 21.0425075,11.689091 L20.0140696,11.689091 C19.6390151,11.689091 19.3350459,11.9764537 19.3350459,12.3310181 L19.3350459,19.5503574 C19.3350459,20.14414 18.8240098,20.6272569 18.1957361,20.6272569 L15.1758491,20.6272569 L15.1758491,16.1123698 C15.1758491,14.8106286 14.0556369,13.7514489 12.678492,13.7514489 L10.4967748,13.7514489 C9.11962992,13.7514489 7.99924087,14.8106286 7.99924087,16.1123698 L7.99924087,20.6272569 L4.97935387,20.6272569 C4.35125698,20.6272569 3.8400441,20.14414 3.8400441,19.5503574 L3.8400441,12.3310181 C3.8400441,11.9764537 3.5360749,11.689091 3.16102043,11.689091 L2.15026541,11.689091 C2.13965567,11.6884223 2.12922274,11.6879208 2.11843618,11.6877536 C1.91614371,11.6844103 1.72640612,11.6085157 1.58423554,11.4739451 C1.28185779,11.188087 1.28185779,10.722857 1.58423554,10.4368317 C1.58441236,10.4368317 1.58441236,10.4366645 1.58458917,10.4364973 L1.58511967,10.4359958 L11.0392864,1.49866569 C11.1857009,1.36008301 11.3803897,1.28385417 11.5876334,1.28385417 C11.7947002,1.28385417 11.989389,1.36008301 12.1359804,1.49866569 L21.5880252,10.434157 C21.5894398,10.4354943 21.5910313,10.4368317 21.5924459,10.438169 C21.8932322,10.7245287 21.8927017,11.1887556 21.5910313,11.4741123 Z" id="Shape"></path>
                    </g>
                </g>
            </g>
        </g>
    </g>
</svg>