<?xml version="1.0" encoding="UTF-8"?>
<svg width="43px" height="30px" viewBox="0 0 43 30" version="1.1" xmlns="http://www.w3.org/2000/svg" xmlns:xlink="http://www.w3.org/1999/xlink">
    <!-- Generator: Sketch 62 (91390) - https://sketch.com -->
    <title>india (1)</title>
    <desc>Created with Sketch.</desc>
    <g id="Page-1" stroke="none" stroke-width="1" fill="none" fill-rule="evenodd">
        <g id="new-main-page" transform="translate(-356.000000, -153.000000)" fill-rule="nonzero">
            <g id="india-(1)" transform="translate(356.000000, 153.000000)">
                <path d="M39.7796191,0 L3.22038086,0 C1.44175977,0 0,1.38176111 0,3.0863651 L0,9 L43,9 L43,3.0863651 C43,1.38176111 41.5582402,0 39.7796191,0 Z" id="Path" fill="#FAB446"></path>
                <path d="M0,26.9136349 C0,28.6181584 1.44175977,30 3.22038086,30 L39.7796191,30 C41.5581562,30 43,28.6182389 43,26.9136349 L43,21 L0,21 L0,26.9136349 Z" id="Path" fill="#73AF00"></path>
                <rect id="Rectangle" fill="#F5F5F5" x="0" y="9" width="43" height="12"></rect>
                <g id="Group" transform="translate(18.000000, 11.000000)" fill="#41479B">
                    <path d="M4,7.954 C1.81966667,7.954 0.046,6.18033333 0.046,4 C0.046,1.81966667 1.81966667,0.046 4,0.046 C6.18033333,0.046 7.954,1.81966667 7.954,4 C7.954,6.18033333 6.18033333,7.954 4,7.954 Z M4,0.781583333 C2.22516667,0.781583333 0.781583333,2.22516667 0.781583333,4 C0.781583333,5.77483333 2.22516667,7.21841667 4,7.21841667 C5.77483333,7.21841667 7.21841667,5.77483333 7.21841667,4 C7.21841667,2.22516667 5.77483333,0.781583333 4,0.781583333 Z" id="Shape"></path>
                    <circle id="Oval" cx="4" cy="4" r="1"></circle>
                    <polygon id="Path" points="4 4.06725 2.86083333 4.18225 0.413833333 4.06725 0.413833333 3.93275 2.86083333 3.81775 4 3.93275"></polygon>
                    <polygon id="Path" points="4 4.06725 5.13916667 4.18225 7.58616667 4.06725 7.58616667 3.93275 5.13916667 3.81775 4 3.93275"></polygon>
                    <polygon id="Path" points="3.93275 4 3.81775 2.86083333 3.93275 0.413833333 4.06725 0.413833333 4.18225 2.86083333 4.06725 4"></polygon>
                    <polygon id="Path" points="3.93275 4 3.81775 5.13916667 3.93275 7.58616667 4.06725 7.58616667 4.18225 5.13916667 4.06725 4"></polygon>
                    <polygon id="Path" points="3.9525 4.0475 3.06566667 3.32341667 1.41666667 1.51175 1.51175 1.41666667 3.32341667 3.06566667 4.0475 3.9525"></polygon>
                    <polygon id="Path" points="3.9525 4.0475 4.67658333 4.93433333 6.48825 6.58333333 6.58333333 6.48825 4.93433333 4.67658333 4.0475 3.9525"></polygon>
                    <polygon id="Path" points="3.9525 3.9525 4.67658333 3.06566667 6.48825 1.41666667 6.58333333 1.51175 4.93433333 3.32341667 4.0475 4.0475"></polygon>
                    <polygon id="Path" points="3.9525 3.9525 3.06566667 4.67658333 1.41666667 6.48825 1.51175 6.58333333 3.32341667 4.93433333 4.0475 4.0475"></polygon>
                    <polygon id="Path" points="4.02575 4.06216667 3.01725 4.60433333 0.712583333 5.4345 0.661083333 5.31025 2.87783333 4.26758333 3.97425 3.93783333"></polygon>
                    <polygon id="Path" points="4.02575 4.06216667 5.12216667 3.73241667 7.33891667 2.68975 7.28741667 2.5655 4.98275 3.39566667 3.97425 3.93783333"></polygon>
                    <polygon id="Path" points="3.93783333 4.02575 3.39566667 3.01725 2.5655 0.712583333 2.68975 0.661083333 3.73241667 2.87783333 4.06216667 3.97425"></polygon>
                    <polygon id="Path" points="3.93783333 4.02575 4.26758333 5.12216667 5.31025 7.33891667 5.4345 7.28741667 4.60433333 4.98275 4.06216667 3.97425"></polygon>
                    <polygon id="Path" points="3.97425 4.06216667 2.87783333 3.73241667 0.661083333 2.68975 0.712583333 2.5655 3.01725 3.39566667 4.02575 3.93783333"></polygon>
                    <polygon id="Path" points="3.97425 4.06216667 4.98275 4.60433333 7.28741667 5.4345 7.33891667 5.31025 5.12216667 4.26758333 4.02575 3.93783333"></polygon>
                    <polygon id="Path" points="3.93783333 3.97425 4.26758333 2.87783333 5.31025 0.661083333 5.4345 0.712583333 4.60433333 3.01725 4.06216667 4.02575"></polygon>
                    <polygon id="Path" points="3.93783333 3.97425 3.39566667 4.98275 2.5655 7.28741667 2.68975 7.33891667 3.73241667 5.12216667 4.06216667 4.02575"></polygon>
                </g>
                <circle id="Oval" fill="#F5F5F5" cx="22" cy="15" r="1"></circle>
                <circle id="Oval" fill="#41479B" cx="22.5" cy="15.5" r="1"></circle>
            </g>
        </g>
    </g>
</svg>