<?xml version="1.0" encoding="UTF-8"?>
<svg width="38px" height="32px" viewBox="0 0 38 32" version="1.1" xmlns="http://www.w3.org/2000/svg" xmlns:xlink="http://www.w3.org/1999/xlink">
    <!-- Generator: Sketch 62 (91390) - https://sketch.com -->
    <title>Group 9</title>
    <desc>Created with Sketch.</desc>
    <g id="Page-1" stroke="none" stroke-width="1" fill="none" fill-rule="evenodd">
        <g id="Group-9" fill="#606060" fill-rule="nonzero">
            <g id="landline">
                <path d="M4.5,29 L1.2915,29 C0.57868092,28.9988029 0.00110130607,28.370999 0,27.5961957 L0,5.40380435 C0.00110130607,4.629001 0.57868092,4.00119707 1.2915,4 L4.5,4 C4.77614237,4 5,4.24332351 5,4.54347826 C5,4.84363302 4.77614237,5.08695652 4.5,5.08695652 L1.2915,5.08695652 C1.13062314,5.08725569 1.00027524,5.2289382 1,5.40380435 L1,27.5961957 C1.00027524,27.7710618 1.13062314,27.9127443 1.2915,27.9130435 L4.5,27.9130435 C4.77614237,27.9130435 5,28.156367 5,28.4565217 C5,28.7566765 4.77614237,29 4.5,29 Z" id="Path"></path>
                <path d="M36.551,29 L15.5609756,29 C15.2511573,29 15,28.7566765 15,28.4565217 C15,28.156367 15.2511573,27.9130435 15.5609756,27.9130435 L36.551,27.9130435 C36.731496,27.9127443 36.87774,27.7710618 36.8780488,27.5961957 L36.8780488,5.40380435 C36.87774,5.2289382 36.731496,5.08725569 36.551,5.08695652 L15.5609756,5.08695652 C15.2511573,5.08695652 15,4.84363302 15,4.54347826 C15,4.24332351 15.2511573,4 15.5609756,4 L36.551,4 C37.3507482,4.00119707 37.9987644,4.629001 38,5.40380435 L38,27.5961957 C37.9987644,28.370999 37.3507482,28.9988029 36.551,29 Z" id="Path"></path>
                <path d="M14.5714286,32 L7.42857143,32 C6.08796115,31.9984799 5.00157441,30.9495548 5,29.6551724 L5,2.34482759 C5.00157441,1.05044525 6.08796115,0.00152012176 7.42857143,0 L14.5714286,0 C15.9120389,0.00152012176 16.9984256,1.05044525 17,2.34482759 L17,29.6551724 C16.9984256,30.9495548 15.9120389,31.9984799 14.5714286,32 L14.5714286,32 Z M7.42857143,1.10344828 C6.71888257,1.10436008 6.14380151,1.65961076 6.14285714,2.34482759 L6.14285714,29.6551724 C6.14380151,30.3403892 6.71888257,30.8956399 7.42857143,30.8965517 L14.5714286,30.8965517 C15.2811174,30.8956399 15.8561985,30.3403892 15.8571429,29.6551724 L15.8571429,2.34482759 C15.8561985,1.65961076 15.2811174,1.10436008 14.5714286,1.10344828 L7.42857143,1.10344828 Z" id="Shape"></path>
                <path d="M33.4444444,14 L19.5555556,14 C19.2487307,14 19,13.7388328 19,13.4166667 L19,7.58333333 C19,7.26116723 19.2487307,7 19.5555556,7 L33.4444444,7 C33.7512693,7 34,7.26116723 34,7.58333333 L34,13.4166667 C34,13.7388328 33.7512693,14 33.4444444,14 Z M20.1111111,12.8333333 L32.8888889,12.8333333 L32.8888889,8.16666667 L20.1111111,8.16666667 L20.1111111,12.8333333 Z" id="Shape"></path>
                <path d="M32.4,18 L30.6,18 C30.2686292,18 30,17.7761424 30,17.5 C30,17.2238576 30.2686292,17 30.6,17 L32.4,17 C32.7313708,17 33,17.2238576 33,17.5 C33,17.7761424 32.7313708,18 32.4,18 Z" id="Path"></path>
                <path d="M27.4,18 L25.6,18 C25.2686292,18 25,17.7761424 25,17.5 C25,17.2238576 25.2686292,17 25.6,17 L27.4,17 C27.7313708,17 28,17.2238576 28,17.5 C28,17.7761424 27.7313708,18 27.4,18 Z" id="Path"></path>
                <path d="M22.4,18 L20.6,18 C20.2686292,18 20,17.7761424 20,17.5 C20,17.2238576 20.2686292,17 20.6,17 L22.4,17 C22.7313708,17 23,17.2238576 23,17.5 C23,17.7761424 22.7313708,18 22.4,18 Z" id="Path"></path>
                <path d="M32.4,21 L30.6,21 C30.2686292,21 30,20.7761424 30,20.5 C30,20.2238576 30.2686292,20 30.6,20 L32.4,20 C32.7313708,20 33,20.2238576 33,20.5 C33,20.7761424 32.7313708,21 32.4,21 Z" id="Path"></path>
                <path d="M27.4,21 L25.6,21 C25.2686292,21 25,20.7761424 25,20.5 C25,20.2238576 25.2686292,20 25.6,20 L27.4,20 C27.7313708,20 28,20.2238576 28,20.5 C28,20.7761424 27.7313708,21 27.4,21 Z" id="Path"></path>
                <path d="M22.4,21 L20.6,21 C20.2686292,21 20,20.7761424 20,20.5 C20,20.2238576 20.2686292,20 20.6,20 L22.4,20 C22.7313708,20 23,20.2238576 23,20.5 C23,20.7761424 22.7313708,21 22.4,21 Z" id="Path"></path>
                <path d="M32.4,25 L30.6,25 C30.2686292,25 30,24.7761424 30,24.5 C30,24.2238576 30.2686292,24 30.6,24 L32.4,24 C32.7313708,24 33,24.2238576 33,24.5 C33,24.7761424 32.7313708,25 32.4,25 Z" id="Path"></path>
                <path d="M27.4,25 L25.6,25 C25.2686292,25 25,24.7761424 25,24.5 C25,24.2238576 25.2686292,24 25.6,24 L27.4,24 C27.7313708,24 28,24.2238576 28,24.5 C28,24.7761424 27.7313708,25 27.4,25 Z" id="Path"></path>
                <path d="M22.4,25 L20.6,25 C20.2686292,25 20,24.7761424 20,24.5 C20,24.2238576 20.2686292,24 20.6,24 L22.4,24 C22.7313708,24 23,24.2238576 23,24.5 C23,24.7761424 22.7313708,25 22.4,25 Z" id="Path"></path>
            </g>
        </g>
    </g>
</svg>