<?xml version="1.0" encoding="UTF-8"?>
<svg width="18px" height="33px" viewBox="0 0 18 33" version="1.1" xmlns="http://www.w3.org/2000/svg" xmlns:xlink="http://www.w3.org/1999/xlink">
    <!-- Generator: Sketch 62 (91390) - https://sketch.com -->
    <title>Group 9</title>
    <desc>Created with Sketch.</desc>
    <g id="Page-1" stroke="none" stroke-width="1" fill="none" fill-rule="evenodd">
        <g id="Group-9" fill="#606060" fill-rule="nonzero">
            <g id="alarm-clock">
                <path d="M18,29.4237885 L18,3.57621145 C17.9974477,1.60218694 16.404383,0.00256283934 14.4384531,0 L3.56154688,0 C1.59561703,0.00256283934 0.00255233019,1.60218694 0,3.57621145 L0,29.4237885 C0.00255233019,31.3978131 1.59561703,32.9974372 3.56154688,33 L14.437874,33 C16.40403,32.9977575 17.997447,31.3980398 18,29.4237885 L18,29.4237885 Z M14.4384531,31.9823789 L3.56154688,31.9823789 C2.15499843,31.9806167 1.0152032,30.8361284 1.0134483,29.4237885 L1.0134483,3.57621145 C1.0152032,2.16387158 2.15499843,1.01938327 3.56154688,1.01762115 L14.437874,1.01762115 C15.8444225,1.01938327 16.9842177,2.16387158 16.9859726,3.57621145 L16.9859726,29.4237885 C16.9845367,30.8363555 15.8446482,31.9811976 14.437874,31.9829604 L14.4384531,31.9823789 Z" id="Shape"></path>
                <path d="M7.60344828,3 L11.3965517,3 C11.729827,3 12,2.77614237 12,2.5 C12,2.22385763 11.729827,2 11.3965517,2 L7.60344828,2 C7.270173,2 7,2.22385763 7,2.5 C7,2.77614237 7.270173,3 7.60344828,3 L7.60344828,3 Z" id="Path"></path>
                <path d="M9,27 C7.8954305,27 7,27.8954305 7,29 C7,30.1045695 7.8954305,31 9,31 C10.1045695,31 11,30.1045695 11,29 C10.9987925,27.895931 10.104069,27.0012075 9,27 L9,27 Z M9,30.6514465 C8.08793128,30.6514465 7.3485535,29.9120687 7.3485535,29 C7.3485535,28.0879313 8.08793128,27.3485535 9,27.3485535 C9.91206872,27.3485535 10.6514465,28.0879313 10.6514465,29 C10.6505133,29.9116819 9.9116819,30.6505133 9,30.6514465 L9,30.6514465 Z" id="Shape"></path>
            </g>
        </g>
    </g>
</svg>