<?xml version="1.0" encoding="UTF-8"?>
<svg width="21px" height="24px" viewBox="0 0 21 24" version="1.1" xmlns="http://www.w3.org/2000/svg" xmlns:xlink="http://www.w3.org/1999/xlink">
    <!-- Generator: Sketch 62 (91390) - https://sketch.com -->
    <title>bell</title>
    <desc>Created with Sketch.</desc>
    <defs>
        <path d="M21.3593058,16.7030289 C20.483891,15.7459092 18.8458866,14.3060804 18.8458866,9.58963815 C18.8458866,6.00735503 16.3773256,3.13968438 13.0487556,2.43613689 L13.0487556,1.4753289 C13.0487556,0.660670698 12.3998974,-4.91776322e-08 11.5996994,-4.91776322e-08 C10.7995014,-4.91776322e-08 10.1506432,0.660670698 10.1506432,1.4753289 L10.1506432,2.43613689 C6.82207317,3.13968438 4.35351214,6.00735503 4.35351214,9.58963815 C4.35351214,14.3060804 2.71550771,15.7459092 1.84009289,16.7030289 C1.56822494,17.0003999 1.44769681,17.355862 1.44993105,17.7039474 C1.45494662,18.4600535 2.03810339,19.1792763 2.90445594,19.1792763 L20.2949428,19.1792763 C21.1612954,19.1792763 21.7449052,18.4600535 21.7494677,17.7039474 C21.7517019,17.355862 21.6311738,16.9999389 21.3593058,16.7030289 L21.3593058,16.7030289 Z M4.50983621,16.9662829 C5.47134255,15.6767532 6.52256531,13.5393704 6.52754955,9.61637849 C6.52754955,9.60715768 6.52483087,9.59885895 6.52483087,9.58963815 C6.52483087,6.73764287 8.79674075,4.42598681 11.5996994,4.42598681 C14.402658,4.42598681 16.6745679,6.73764287 16.6745679,9.58963815 C16.6745679,9.59885895 16.6718492,9.60715768 16.6718492,9.61637849 C16.6768334,13.5398314 17.7280562,15.6772142 18.6895625,16.9662829 L4.50983621,16.9662829 Z M11.5996994,23.6052632 C13.2000954,23.6052632 14.4982649,22.2843828 14.4982649,20.6546053 L8.70113386,20.6546053 C8.70113386,22.2843828 9.99930334,23.6052632 11.5996994,23.6052632 Z" id="path-1"></path>
    </defs>
    <g id="Page-1" stroke="none" stroke-width="1" fill="none" fill-rule="evenodd">
        <g id="new-main-page" transform="translate(-374.000000, -51.000000)">
            <g id="Group-7" transform="translate(373.000000, 50.000000)">
                <g id="Group-24" transform="translate(0.169895, 0.000000)">
                    <g id="bell" transform="translate(0.000000, 1.394737)">
                        <mask id="mask-2" fill="white">
                            <use xlink:href="#path-1"></use>
                        </mask>
                        <g fill-rule="nonzero"></g>
                        <g id="color/gray" mask="url(#mask-2)" fill="#FFFFFF" fill-rule="evenodd">
                            <rect id="Rectangle" x="0" y="0" width="23.1993987" height="23.6052632"></rect>
                        </g>
                    </g>
                </g>
            </g>
        </g>
    </g>
</svg>