<?xml version="1.0" encoding="UTF-8"?>
<svg width="44px" height="38px" viewBox="0 0 44 38" version="1.1" xmlns="http://www.w3.org/2000/svg" xmlns:xlink="http://www.w3.org/1999/xlink">
    <!-- Generator: Sketch 62 (91390) - https://sketch.com -->
    <title>Group 28</title>
    <desc>Created with Sketch.</desc>
    <g id="Page-1" stroke="none" stroke-width="1" fill="none" fill-rule="evenodd">
        <g id="new-main-page" transform="translate(-50.000000, -256.000000)" fill="#FFFFFF" fill-rule="nonzero">
            <g id="Group-38" transform="translate(17.000000, 229.000000)">
                <g id="Group-5" transform="translate(15.000000, 8.000000)">
                    <g id="Group-28" transform="translate(18.000000, 18.500000)">
                        <path d="M17.25,35.5 L6.6735,35.5 C6.3075,35.5 5.9955,35.21975 5.934,34.83975 C5.712,33.4369167 4.7775,32.2668333 3.498,31.7855 C3.1995,31.6746667 3,31.377 3,31.0413333 L3,20.96025 C3,20.6245833 3.1995,20.3269167 3.498,20.2145 C4.779,19.7331667 5.712,18.5630833 5.934,17.16025 C5.994,16.78025 6.3075,16.5 6.6735,16.5 L17.25,16.5 C17.664,16.5 18,16.8546667 18,17.2916667 C18,17.7286667 17.664,18.0833333 17.25,18.0833333 L7.269,18.0833333 C6.846,19.57325 5.841,20.8145833 4.5,21.4859167 L4.5,30.5125 C5.8395,31.1854167 6.846,32.42675 7.269,33.9166667 L17.25,33.9166667 C17.664,33.9166667 18,34.2713333 18,34.7083333 C18,35.1453333 17.664,35.5 17.25,35.5 Z" id="Path"></path>
                        <path d="M26.75,35.5 L37.3265,35.5 C37.6925,35.5 38.0045,35.21975 38.066,34.83975 C38.288,33.4369167 39.2225,32.2668333 40.502,31.7855 C40.8005,31.6746667 41,31.377 41,31.0413333 L41,20.96025 C41,20.6245833 40.8005,20.3269167 40.502,20.2145 C39.221,19.7331667 38.288,18.5630833 38.066,17.16025 C38.006,16.78025 37.6925,16.5 37.3265,16.5 L26.75,16.5 C26.336,16.5 26,16.8546667 26,17.2916667 C26,17.7286667 26.336,18.0833333 26.75,18.0833333 L36.731,18.0833333 C37.1525,19.57325 38.159,20.8145833 39.5,21.4859167 L39.5,30.5125 C38.1605,31.1854167 37.154,32.4251667 36.731,33.9150833 L26.75,33.9150833 C26.336,33.9150833 26,34.26975 26,34.70675 C26,35.14375 26.336,35.5 26.75,35.5 Z" id="Path"></path>
                        <path d="M1.72222222,8.5 C1.32355556,8.5 1,8.14160494 1,7.70001103 C1,7.25841712 1.32355556,6.90002206 1.72222222,6.90002206 C22.4991111,6.90002206 35.0397778,6.90002206 38.6768889,0.856905367 C38.8545556,0.562509426 39.1838889,0.431311235 39.4872222,0.535309801 C39.7905556,0.636108411 40,0.946504132 40,1.30009926 L40,5.30004411 C40,5.74163803 39.6764444,6.10003309 39.2777778,6.10003309 C38.8791111,6.10003309 38.5555556,5.74163803 38.5555556,5.30004411 L38.5555556,3.42167001 C33.4147778,8.5 21.0517778,8.5 1.72222222,8.5 Z" id="Path"></path>
                        <path d="M18.7971724,12.5 C16.2192414,12.5 13.4588276,12.4771084 10.5231724,12.455852 C7.40503448,12.4313253 4.12903448,12.4051636 0.724137931,12.4051636 C0.324413793,12.4051636 0,12.0388987 0,11.5876082 C0,11.1363176 0.324413793,10.7700528 0.724137931,10.7700528 C4.13337931,10.7700528 7.41227586,10.7962145 10.5318621,10.8191061 C25.872,10.9319287 37.9868276,11.0316705 40.7501379,7.75327328 C40.9557931,7.51127688 41.270069,7.43442667 41.5437931,7.5586951 C41.8189655,7.68132841 42,7.98382391 42,8.31738652 L42,11.5876082 C42,12.0388987 41.6755862,12.4051636 41.2758621,12.4051636 C40.8761379,12.4051636 40.5517241,12.0388987 40.5517241,11.5876082 L40.5517241,9.93941645 C37.0642759,12.1271947 29.5288966,12.5 18.7971724,12.5 Z" id="Path"></path>
                        <path d="M22.5007856,32.5 C24.463145,32.5 26,30.71575 26,28.4375 C26,26.593125 24.9208423,25.24925 22.7933199,24.44325 L22.6351554,24.383125 C21.8373345,24.080875 21.1010998,23.674625 21.1010998,22.75 C21.1010998,21.792875 21.6763706,21.125 22.5007856,21.125 C23.4861644,21.125 24.1440167,21.73925 24.1496154,21.74575 C24.4477485,22.035 24.8872498,21.9895 25.1363939,21.64825 C25.3855379,21.30375 25.3463467,20.7935 25.051013,20.50425 C25.0090225,20.463625 24.0068475,19.5 22.5007856,19.5 C20.9037441,19.5 19.701414,20.8975 19.701414,22.75 C19.701414,24.98275 21.5825917,25.696125 22.1998531,25.926875 L22.3580176,25.987 C23.8668789,26.559 24.6003142,27.36175 24.6003142,28.4375 C24.6003142,29.826875 23.6975169,30.875 22.5007856,30.875 C21.2018772,30.875 20.458644,29.8805 20.2612883,29.575 C20.0289405,29.21425 19.5894392,29.144375 19.2815083,29.410875 C18.970778,29.680625 18.9077922,30.18925 19.14014,30.548375 C19.4368734,31.00825 20.552423,32.5 22.5007856,32.5 Z" id="Path"></path>
                        <path d="M22.5,33.5 C22.776,33.5 23,33.2013333 23,32.8333333 L23,32.1666667 C23,31.7986667 22.776,31.5 22.5,31.5 C22.224,31.5 22,31.7986667 22,32.1666667 L22,32.8333333 C22,33.2013333 22.224,33.5 22.5,33.5 Z" id="Path"></path>
                        <path d="M22.5,20.5 C22.776,20.5 23,20.2013333 23,19.8333333 L23,19.1666667 C23,18.7986667 22.776,18.5 22.5,18.5 C22.224,18.5 22,18.7986667 22,19.1666667 L22,19.8333333 C22,20.2013333 22.224,20.5 22.5,20.5 Z" id="Path"></path>
                        <path d="M0.733333333,13.5 C0.328533333,13.5 0,13.85 0,14.28125 C0,14.7125 0.328533333,15.0625 0.733333333,15.0625 L42.5333333,15.0625 L42.5333333,36.9375 L0.733333333,36.9375 C0.328533333,36.9375 0,37.2875 0,37.71875 C0,38.15 0.328533333,38.5 0.733333333,38.5 L43.2666667,38.5 C43.6714667,38.5 44,38.15 44,37.71875 L44,14.28125 C44,13.85 43.6714667,13.5 43.2666667,13.5 L0.733333333,13.5 Z" id="Path"></path>
                        <path d="M1,17.2856582 L1,37.7143418 C1,38.1480251 1.224,38.5 1.5,38.5 L1.5,38.5 C1.776,38.5 2,38.1480251 2,37.7143418 L2,17.2856582 C2,16.8519749 1.776,16.5 1.5,16.5 C1.224,16.5 1,16.8519749 1,17.2856582 Z" id="Path"></path>
                    </g>
                </g>
            </g>
        </g>
    </g>
</svg>