<?xml version="1.0" encoding="UTF-8"?>
<svg width="29px" height="36px" viewBox="0 0 29 36" version="1.1" xmlns="http://www.w3.org/2000/svg" xmlns:xlink="http://www.w3.org/1999/xlink">
    <!-- Generator: Sketch 62 (91390) - https://sketch.com -->
    <title>Rectangle</title>
    <desc>Created with Sketch.</desc>
    <g id="Page-1" stroke="none" stroke-width="1" fill="none" fill-rule="evenodd">
        <g id="new-main-page" transform="translate(-267.000000, -289.000000)">
            <g id="Group-38-Copy" transform="translate(230.000000, 257.000000)">
                <g id="Group-5" transform="translate(18.000000, 19.000000)">
                    <g id="Rectangle" transform="translate(19.000000, 13.000000)">
                        <g id="Mask" fill="#000000" fill-rule="nonzero">
                            <path d="M21.2598861,10.4670267 C21.6645575,10.4670267 21.9930093,10.1062925 21.9930093,9.66184756 L21.9930093,5.63610291 C21.9930093,4.30435309 21.0062792,3.22064101 19.7937084,3.22064101 L18.5584573,3.22064101 C17.7329634,1.31967251 15.9705673,0 13.9289288,0 L8.06414923,0 C6.02244196,0 4.26011463,1.31967251 3.43462077,3.22064101 L2.19930093,3.22064101 C0.986730108,3.22064101 0,4.30435309 0,5.63610291 L0,33.0113628 C0,34.3431126 0.986730108,35.4268247 2.19930093,35.4268247 L19.7937084,35.4268247 C21.0062792,35.4268247 21.9930093,34.3431126 21.9930093,33.0113628 L21.9930093,28.9855427 C21.9930093,28.5410977 21.6645575,28.1803636 21.2598861,28.1803636 C20.8552147,28.1803636 20.5267629,28.5410977 20.5267629,28.9855427 L20.5267629,33.0112873 C20.5267629,33.454902 20.1976237,33.8164665 19.7936396,33.8164665 L2.19930093,33.8164665 C1.79538557,33.8164665 1.46617771,33.4549775 1.46617771,33.0112873 L1.46617771,5.63610291 C1.46617771,5.19241275 1.79538557,4.83092378 2.19930093,4.83092378 L2.99104926,4.83092378 C2.95661646,5.09503944 2.93242415,5.3623254 2.93242415,5.63610291 L2.93242415,7.24638567 C2.93242415,7.69083066 3.260876,8.0515648 3.66554737,8.0515648 L18.3275307,8.0515648 C18.732202,8.0515648 19.0606539,7.69083066 19.0606539,7.24638567 L19.0606539,5.63610291 C19.0606539,5.3623254 19.0364616,5.09503944 19.0020288,4.83092378 L19.7937084,4.83092378 C20.1976237,4.83092378 20.5268316,5.19241275 20.5268316,5.63610291 L20.5268316,9.66184756 C20.5268316,10.1062925 20.8552147,10.4670267 21.2598861,10.4670267 Z M17.5944074,6.44120655 L4.39860186,6.44120655 L4.39860186,5.63610291 C4.39860186,3.41629343 6.04292295,1.61035825 8.0640805,1.61035825 L13.9288601,1.61035825 C15.9500176,1.61035825 17.5944074,3.41629343 17.5944074,5.63610291 L17.5944074,6.44120655 L17.5944074,6.44120655 Z" id="Shape"></path>
                            <ellipse id="Oval" cx="10.9965047" cy="4.42835309" rx="1" ry="1"></ellipse>
                            <path d="M17.4243241,9.84078464 L5.5248333,9.84078464 C5.11429926,9.84078464 4.78108898,10.061237 4.78108898,10.3328469 C4.78108898,10.6044568 5.11429926,10.8248631 5.5248333,10.8248631 L17.4243938,10.8248631 C17.8349278,10.8248631 18.1681381,10.6044107 18.1681381,10.3328008 C18.1681381,10.0611909 17.8348581,9.84078464 17.4243241,9.84078464 Z" id="Path"></path>
                            <path d="M13.6076936,14.761177 L5.51666235,14.761177 C5.11063854,14.761177 4.78108898,14.981619 4.78108898,15.2532162 C4.78108898,15.5248134 5.11063854,15.7452554 5.51666235,15.7452554 L13.6076936,15.7452554 C14.0137174,15.7452554 14.3432669,15.5248134 14.3432669,15.2532162 C14.3432669,14.981619 14.0137174,14.761177 13.6076936,14.761177 Z" id="Path"></path>
                            <path d="M12.6698018,18.6974908 L5.49826913,18.6974908 C5.10239806,18.6974908 4.78108898,18.9179329 4.78108898,19.1895301 C4.78108898,19.4611272 5.10239806,19.6815693 5.49826913,19.6815693 L12.669869,19.6815693 C13.0657401,19.6815693 13.3870491,19.4611272 13.3870491,19.1895301 C13.3870491,18.9179329 13.0656728,18.6974908 12.6698018,18.6974908 Z" id="Path"></path>
                            <path d="M17.4031424,26.5701185 L11.2833915,26.5701185 C10.861127,26.5701185 10.5183958,26.7905606 10.5183958,27.0621578 C10.5183958,27.3337549 10.861127,27.554197 11.2833915,27.554197 L17.4031424,27.554197 C17.8254068,27.554197 18.1681381,27.3337549 18.1681381,27.0621578 C18.1681381,26.7905606 17.8254068,26.5701185 17.4031424,26.5701185 Z" id="Path"></path>
                            <path d="M8.76524264,26.5701185 L5.57787489,26.5701185 C5.13809628,26.5701185 4.78108898,26.7905606 4.78108898,27.0621578 C4.78108898,27.3337549 5.13809628,27.554197 5.57794959,27.554197 L8.76531734,27.554197 C9.20517066,27.554197 9.56217796,27.3337549 9.56217796,27.0621578 C9.56210325,26.7905606 9.20509595,26.5701185 8.76524264,26.5701185 Z" id="Path"></path>
                            <path d="M13.6076936,23.6178831 L5.51666235,23.6178831 C5.11063854,23.6178831 4.78108898,23.8383355 4.78108898,24.1099454 C4.78108898,24.3815553 5.11063854,24.6019616 5.51666235,24.6019616 L13.6076936,24.6019616 C14.0137174,24.6019616 14.3432669,24.3815092 14.3432669,24.1098993 C14.3432669,23.8382894 14.0137174,23.6178831 13.6076936,23.6178831 Z" id="Path"></path>
                            <path d="M21.9930093,10.8248631 C18.3026461,10.8248631 15.2994847,13.9155255 15.2994847,17.7134124 C15.2994847,21.5112992 18.3026461,24.6019616 21.9930093,24.6019616 C25.6833725,24.6019616 28.6865339,21.5112992 28.6865339,17.7134124 C28.6865339,13.9155255 25.6833725,10.8248631 21.9930093,10.8248631 Z M21.9930093,23.0711968 C19.1222542,23.0711968 16.7869114,20.6678824 16.7869114,17.7134124 C16.7869114,14.7589423 19.1221845,12.3556279 21.9930093,12.3556279 C24.8638341,12.3556279 27.1991072,14.759014 27.1991072,17.7134124 C27.1991072,20.6678107 24.8638341,23.0711968 21.9930093,23.0711968 Z" id="Shape"></path>
                            <path d="M24.4557276,15.8856549 C24.0591117,15.6061965 23.5453781,15.7567664 23.3076909,16.2232377 L21.3488509,20.0632303 L19.5967123,18.00249 C19.2695199,17.6176696 18.7407249,17.6176696 18.4135324,18.00249 C18.08634,18.3873103 18.08634,19.0092414 18.4135324,19.3940617 L20.9237596,22.3464118 C21.0802566,22.531395 21.2936259,22.6338047 21.5145259,22.6338047 C21.5488061,22.6338047 21.5831649,22.6318672 21.6165823,22.6268851 C21.8726254,22.5895194 22.0994088,22.4162534 22.2315879,22.1564466 L24.7418151,17.2358938 C24.9803651,16.7693302 24.8514806,16.1651133 24.4557276,15.8856549 Z" id="Path"></path>
                        </g>
                        <rect fill="#FFFFFF" x="-5" y="0" width="35" height="36"></rect>
                    </g>
                </g>
            </g>
        </g>
    </g>
</svg>