<?xml version="1.0" encoding="UTF-8"?>
<svg width="406px" height="470px" viewBox="0 0 406 470" version="1.1" xmlns="http://www.w3.org/2000/svg" xmlns:xlink="http://www.w3.org/1999/xlink">
    <!-- Generator: Sketch 62 (91390) - https://sketch.com -->
    <title>medical-history</title>
    <desc>Created with Sketch.</desc>
    <g id="Page-1" stroke="none" stroke-width="1" fill="none" fill-rule="evenodd">
        <g id="medical-history" fill="#FFFFFF" fill-rule="nonzero">
            <path d="M309.333,138.667 C315.221,138.667 320,133.888 320,128 L320,74.667 C320,57.024 305.643,42.667 288,42.667 L270.027,42.667 C258.016,17.483 232.373,0 202.667,0 L117.334,0 C87.627,0 61.985,17.483 49.974,42.667 L32,42.667 C14.357,42.667 0,57.024 0,74.667 L0,437.334 C0,454.977 14.357,469.334 32,469.334 L288,469.334 C305.643,469.334 320,454.977 320,437.334 L320,384 C320,378.112 315.221,373.333 309.333,373.333 C303.445,373.333 298.666,378.112 298.666,384 L298.666,437.333 C298.666,443.21 293.877,448 287.999,448 L32,448 C26.123,448 21.333,443.211 21.333,437.333 L21.333,74.667 C21.333,68.789 26.123,64 32,64 L43.52,64 C43.019,67.499 42.667,71.04 42.667,74.667 L42.667,96 C42.667,101.888 47.446,106.667 53.334,106.667 L266.667,106.667 C272.555,106.667 277.334,101.888 277.334,96 L277.334,74.667 C277.334,71.04 276.982,67.499 276.481,64 L288,64 C293.877,64 298.667,68.789 298.667,74.667 L298.667,128 C298.667,133.888 303.445,138.667 309.333,138.667 Z M256,85.333 L64,85.333 L64,74.667 C64,45.259 87.925,21.334 117.333,21.334 L202.666,21.334 C232.074,21.334 256,45.259 256,74.667 L256,85.333 L256,85.333 Z" id="Shape"></path>
            <circle id="Oval" cx="160" cy="53.333" r="10.667"></circle>
            <path d="M245.333,138.667 L74.667,138.667 C68.779,138.667 64,143.446 64,149.334 C64,155.222 68.779,160 74.667,160 L245.334,160 C251.222,160 256.001,155.221 256.001,149.333 C256.001,143.445 251.221,138.667 245.333,138.667 Z" id="Path"></path>
            <path d="M192,192 L74.667,192 C68.779,192 64,196.779 64,202.667 C64,208.555 68.779,213.334 74.667,213.334 L192,213.334 C197.888,213.334 202.667,208.555 202.667,202.667 C202.667,196.779 197.888,192 192,192 Z" id="Path"></path>
            <path d="M181.333,245.333 L74.667,245.333 C68.779,245.333 64,250.112 64,256 C64,261.888 68.779,266.667 74.667,266.667 L181.334,266.667 C187.222,266.667 192.001,261.888 192.001,256 C192.001,250.112 187.221,245.333 181.333,245.333 Z" id="Path"></path>
            <path d="M245.333,352 L160,352 C154.112,352 149.333,356.779 149.333,362.667 C149.333,368.555 154.112,373.334 160,373.334 L245.333,373.334 C251.221,373.334 256,368.555 256,362.667 C256,356.779 251.221,352 245.333,352 Z" id="Path"></path>
            <path d="M117.333,352 L74.666,352 C68.779,352 64,356.779 64,362.667 C64,368.555 68.779,373.334 74.667,373.334 L117.334,373.334 C123.222,373.334 128.001,368.555 128.001,362.667 C128,356.779 123.221,352 117.333,352 Z" id="Path"></path>
            <path d="M192,298.667 L74.667,298.667 C68.779,298.667 64,303.446 64,309.334 C64,315.222 68.779,320 74.667,320 L192,320 C197.888,320 202.667,315.221 202.667,309.333 C202.667,303.445 197.888,298.667 192,298.667 Z" id="Path"></path>
            <path d="M309.333,160 C256.405,160 213.333,203.072 213.333,256 C213.333,308.928 256.405,352 309.333,352 C362.261,352 405.333,308.928 405.333,256 C405.333,203.072 362.261,160 309.333,160 Z M309.333,330.667 C268.16,330.667 234.666,297.174 234.666,256 C234.666,214.826 268.159,181.333 309.333,181.333 C350.507,181.333 384,214.827 384,256 C384,297.173 350.507,330.667 309.333,330.667 Z" id="Shape"></path>
            <path d="M346.827,214.859 C341.771,211.83 335.222,213.462 332.192,218.518 L307.221,260.139 L284.885,237.803 C280.714,233.632 273.973,233.632 269.802,237.803 C265.631,241.974 265.631,248.715 269.802,252.886 L301.802,284.886 C303.797,286.891 306.517,288.001 309.333,288.001 C309.77,288.001 310.208,287.98 310.634,287.926 C313.898,287.521 316.789,285.643 318.474,282.827 L350.474,229.494 C353.515,224.437 351.872,217.888 346.827,214.859 Z" id="Path"></path>
        </g>
    </g>
</svg>