<?xml version="1.0" encoding="UTF-8"?>
<svg width="333px" height="321px" viewBox="0 0 333 321" version="1.1" xmlns="http://www.w3.org/2000/svg" xmlns:xlink="http://www.w3.org/1999/xlink">
    <!-- Generator: Sketch 62 (91390) - https://sketch.com -->
    <title>Group</title>
    <desc>Created with Sketch.</desc>
    <defs>
        <path d="M76.816,72.071 C76.816,96.355 59.766,106.198 38.735,94.055 C17.703,81.914 0.655,52.384 0.655,28.099 C0.655,3.815 17.703,-6.027 38.735,6.115 C59.766,18.258 76.816,47.787 76.816,72.071" id="path-1"></path>
    </defs>
    <g id="Page-1" stroke="none" stroke-width="1" fill="none" fill-rule="evenodd">
        <g id="HInt-screen2" transform="translate(-40.000000, -83.000000)">
            <g id="Group" transform="translate(40.000000, 83.000000)">
                <path d="M125.666,320.619068 C122.697,320.619068 119.861,320.018068 117.745,318.792068 L32.057,269.172068 C27.402,266.476068 27.993,261.780068 33.376,258.681068 L213.211,155.186068 C216.147,153.496068 219.902,152.631068 223.464,152.631068 C226.434,152.631068 229.27,153.233068 231.386,154.458068 L317.073,204.078068 C321.729,206.775068 321.138,211.471068 315.754,214.570068 L135.92,318.065068 C132.984,319.754068 129.229,320.619068 125.666,320.619068" id="Fill-6" fill="#8595AC"></path>
                <path d="M115.252,300.413068 L26.076,248.772068 C23.147,247.076068 21.781,244.787068 21.878,242.409068 L21.858,242.415068 L21.895,229.475068 L26.854,235.285068 C27.175,235.073068 27.499,234.861068 27.852,234.658068 L210.277,129.672068 C217.52,125.504068 228.467,125.065068 234.73,128.693068 L322.652,179.608068 C324.432,177.660068 328.163,173.545068 328.163,173.545068 L328.121,186.202068 L328.119,186.201068 C328.251,189.054068 326.22,192.093068 322.13,194.447068 L139.704,299.433068 C132.462,303.601068 121.514,304.040068 115.252,300.413068" id="Fill-7" fill="#3B6397"></path>
                <path d="M67.03,268.733068 L72.167,271.698068 C72.849,272.091068 73.401,271.673068 73.401,270.764068 C73.401,269.855068 72.849,268.798068 72.167,268.405068 L67.03,265.439068 C66.349,265.045068 65.796,265.463068 65.796,266.372068 C65.796,267.283068 66.349,268.338068 67.03,268.733068" id="Fill-8" fill="#263764"></path>
                <path d="M210.277,129.672068 C217.52,125.503068 228.467,125.065068 234.73,128.692068 L322.652,179.608068 C324.432,177.660068 328.163,173.545068 328.163,173.545068 L328.121,186.202068 L328.119,186.201068 C328.251,189.054068 326.22,192.093068 322.13,194.447068 L139.704,299.433068 C135.926,301.608068 131.142,302.757068 126.537,302.854068 L126.711,177.764068 L210.277,129.672068" id="Fill-9" fill="#5589BB"></path>
                <path d="M323.942,167.324068 L234.767,115.683068 C228.505,112.055068 217.557,112.494068 210.314,116.662068 L27.889,221.648068 C20.647,225.817068 19.852,232.135068 26.113,235.763068 L115.289,287.404068 C121.551,291.031068 132.499,290.592068 139.741,286.423068 L322.167,181.438068 C329.41,177.270068 330.204,170.951068 323.942,167.324068" id="Fill-10" fill="#D4EAF2"></path>
                <path d="M115.222,288.785068 L26.046,237.144068 C22.816,235.273068 21.479,232.686068 21.919,230.048068 C22.077,232.191068 23.451,234.221068 26.113,235.763068 L115.289,287.404068 C121.551,291.031068 132.499,290.592068 139.741,286.423068 L322.167,181.438068 C325.675,179.419068 327.655,176.896068 328.069,174.418068 C328.283,177.317068 326.263,180.422068 322.1,182.819068 L139.674,287.805068 C132.431,291.973068 121.483,292.411068 115.222,288.785068" id="Fill-11" fill="#FFFFFE"></path>
                <path d="M317.073,169.358068 L231.386,119.738068 C226.731,117.041068 218.594,117.368068 213.211,120.466068 L33.376,223.961068 C27.993,227.059068 27.402,231.756068 32.057,234.452068 L117.745,284.073068 C122.399,286.768068 130.536,286.442068 135.92,283.344068 L315.754,179.849068 C321.138,176.751068 321.729,172.054068 317.073,169.358068" id="Fill-12" fill="#263764"></path>
                <polyline id="Fill-13" fill="#D4EAF2" points="139.329 258.300068 78.863 223.391068 82.723 221.162068 143.189 256.073068 139.329 258.300068"></polyline>
                <polyline id="Fill-14" fill="#D4EAF2" points="97.259 248.122068 66.643 230.447068 70.502 228.218068 101.118 245.895068 97.259 248.122068"></polyline>
                <polyline id="Fill-15" fill="#6CBDDE" points="112.116 256.702068 102.187 250.968068 106.046 248.740068 115.976 254.473068 112.116 256.702068"></polyline>
                <polyline id="Fill-16" fill="#FFFFFE" points="127.108 265.357068 117.178 259.623068 121.037 257.396068 130.968 263.128068 127.108 265.357068"></polyline>
                <polyline id="Fill-17" fill="#FFFFFE" points="97.601 241.265068 72.753 226.918068 76.612 224.691068 101.46 239.036068 97.601 241.265068"></polyline>
                <polyline id="Fill-18" fill="#D4EAF2" points="127.933 258.777068 103.084 244.430068 106.943 242.202068 131.792 256.548068 127.933 258.777068"></polyline>
                <path d="M109.536,228.110068 C108.293,228.828068 106.277,228.828068 105.033,228.110068 C103.79,227.392068 103.79,226.229068 105.033,225.510068 C106.277,224.792068 108.293,224.792068 109.536,225.510068 C110.779,226.229068 110.779,227.392068 109.536,228.110068" id="Fill-19" fill="#6CBDDE"></path>
                <path d="M116.265,231.994068 C115.021,232.712068 113.005,232.712068 111.762,231.994068 C110.519,231.277068 110.519,230.113068 111.762,229.395068 C113.005,228.677068 115.021,228.677068 116.265,229.395068 C117.508,230.113068 117.508,231.277068 116.265,231.994068" id="Fill-20" fill="#FFFFFE"></path>
                <path d="M122.992,235.879068 C121.749,236.597068 119.733,236.597068 118.489,235.879068 C117.246,235.161068 117.246,233.997068 118.489,233.280068 C119.732,232.562068 121.749,232.562068 122.992,233.280068 C124.235,233.997068 124.235,235.161068 122.992,235.879068" id="Fill-21" fill="#D4EAF2"></path>
                <path d="M129.721,239.763068 C128.477,240.481068 126.461,240.481068 125.218,239.763068 C123.975,239.045068 123.974,237.881068 125.218,237.163068 C126.461,236.446068 128.477,236.446068 129.72,237.163068 C130.964,237.881068 130.964,239.045068 129.721,239.763068" id="Fill-22" fill="#6CBDDE"></path>
                <path d="M136.448,243.648068 C135.205,244.366068 133.189,244.366068 131.945,243.648068 C130.702,242.930068 130.702,241.766068 131.945,241.048068 C133.189,240.330068 135.205,240.330068 136.448,241.048068 C137.691,241.766068 137.691,242.930068 136.448,243.648068" id="Fill-23" fill="#FFFFFE"></path>
                <polyline id="Fill-24" fill="#6CBDDE" points="271.682 169.741068 261.501 163.863068 265.458 161.578068 275.639 167.456068 271.682 169.741068"></polyline>
                <polyline id="Fill-25" fill="#FFFFFE" points="285.858 177.925068 275.678 172.047068 279.635 169.763068 289.815 175.641068 285.858 177.925068"></polyline>
                <polyline id="Fill-26" fill="#FFFFFE" points="226.208 143.241068 216.027 137.363068 219.984 135.077068 230.165 140.955068 226.208 143.241068"></polyline>
                <polyline id="Fill-27" fill="#FFFFFE" points="269.412 175.664068 255.236 167.480068 259.193 165.196068 273.369 173.380068 269.412 175.664068"></polyline>
                <polyline id="Fill-136" fill="#8595AC" points="315.753 284.988068 298.522 275.039068 315.753 265.091068 332.984 275.039068 315.753 284.988068"></polyline>
                <polyline id="Fill-137" fill="#589FC8" points="332.984 262.409068 315.753 272.357068 315.753 252.461068 332.984 242.513068 332.984 262.409068"></polyline>
                <polyline id="Fill-138" fill="#6CBDDE" points="315.753 252.461068 298.523 242.513068 315.753 232.565068 332.983 242.513068 315.753 252.461068"></polyline>
                <polyline id="Fill-139" fill="#6CBDDE" points="315.753 272.357068 298.523 262.409068 298.523 242.513068 315.753 252.461068 315.753 272.357068"></polyline>
                <polyline id="Fill-140" fill="#FFFFFE" points="309.548 261.609068 304.729 258.827068 304.729 253.261068 309.548 256.044068 309.548 261.609068"></polyline>
                <polyline id="Fill-141" fill="#8595AC" points="17.939 205.892068 -1.42108547e-14 195.535068 17.937 185.179068 35.877 195.535068 17.939 205.892068"></polyline>
                <polyline id="Fill-142" fill="#263764" points="35.877 182.386068 17.939 192.743068 17.939 172.030068 35.877 161.673068 35.877 182.386068"></polyline>
                <polyline id="Fill-143" fill="#D4EAF2" points="17.939 172.030068 -1.42108547e-14 161.673068 17.938 151.317068 35.876 161.673068 17.939 172.030068"></polyline>
                <polyline id="Fill-144" fill="#5589BB" points="17.939 192.743068 -1.42108547e-14 182.386068 -1.42108547e-14 161.673068 17.939 172.030068 17.939 192.743068"></polyline>
                <polyline id="Fill-145" fill="#FFFFFE" points="11.478 181.553068 6.461 178.657068 6.461 172.863068 11.478 175.760068 11.478 181.553068"></polyline>
                <path d="M140.187,21.8950682 L102.867,0.349068167 C102.128,-0.0779318333 101.461,-0.0929318333 100.938,0.194068167 L100.94,0.170068167 L97.32,2.26106817 C97.32,2.26106817 98.923,2.84606817 99.864,3.19106817 L99.864,30.3680682 C99.864,32.5790682 101.208,35.1480682 102.867,36.1060682 L138.537,56.7000682 L138.537,59.8880682 L142.194,57.7830682 L142.175,57.7760682 C142.792,57.3990682 143.189,56.5720682 143.189,55.3820682 L143.189,27.6320682 C143.189,25.4210682 141.845,22.8530682 140.187,21.8950682" id="Fill-146" fill="#589FC8"></path>
                <path d="M136.5,59.7770682 L99.181,38.2300682 C97.523,37.2730682 96.178,34.7040682 96.178,32.4930682 L96.178,4.74306817 C96.178,2.53306817 97.523,1.51606817 99.181,2.47406817 L136.5,24.0200682 C138.158,24.9780682 139.503,27.5460682 139.503,29.7570682 L139.503,57.5060682 C139.503,59.7180682 138.158,60.7340682 136.5,59.7770682" id="Fill-147" fill="#6CBDDE"></path>
                <path d="M137.416,23.3610682 L100.097,1.81406817 C99.047,1.20706817 98.125,1.39706817 97.589,2.17506817 C98.051,2.05406817 98.594,2.13506817 99.181,2.47406817 L136.5,24.0200682 C138.158,24.9780682 139.503,27.5460682 139.503,29.7570682 L139.503,57.5060682 C139.503,58.3180682 139.318,58.9640682 139.008,59.4150682 C139.853,59.1950682 140.418,58.2760682 140.418,56.8470682 L140.418,29.0970682 C140.418,26.8860682 139.074,24.3180682 137.416,23.3610682" id="Fill-148" fill="#FFFFFE"></path>
                <path d="M111.731,28.6670682 C111.731,30.2740682 110.604,30.9240682 109.213,30.1210682 C107.822,29.3190682 106.694,27.3660682 106.694,25.7600682 C106.694,24.1550682 107.822,23.5030682 109.213,24.3060682 C110.604,25.1100682 111.731,27.0620682 111.731,28.6670682" id="Fill-149" fill="#FFFFFE"></path>
                <path d="M119.358,33.0720682 C119.358,34.6770682 118.231,35.3280682 116.841,34.5260682 C115.45,33.7230682 114.322,31.7700682 114.322,30.1640682 C114.322,28.5590682 115.45,27.9080682 116.841,28.7100682 C118.231,29.5130682 119.358,31.4660682 119.358,33.0720682" id="Fill-150" fill="#FFFFFE"></path>
                <path d="M126.986,37.4760682 C126.986,39.0810682 125.859,39.7330682 124.469,38.9300682 C123.078,38.1260682 121.951,36.1740682 121.951,34.5690682 C121.951,32.9620682 123.078,32.3120682 124.469,33.1150682 C125.859,33.9170682 126.986,35.8700682 126.986,37.4760682" id="Fill-151" fill="#FFFFFE"></path>
                <path d="M167.634,222.107068 L228.871,186.750068 C235.501,182.923068 234.669,176.238068 227.015,171.818068 C219.359,167.399068 207.779,166.918068 201.15,170.746068 L139.912,206.102068 C133.283,209.929068 134.114,216.615068 141.77,221.035068 C149.425,225.453068 161.004,225.934068 167.634,222.107068" id="Fill-152" fill="#1F2A4C"></path>
                <path d="M201.234,164.294068 L201.25,157.099068 L209.761,114.214068 L201.355,109.021068 L184.512,118.318068 L184.391966,173.591068 C184.384,177.311068 185.777,179.826068 187.919,180.645068 L187.919,180.648068 L195.407,185.356068 L196.348,181.796068 L197.635,175.312068 C199.804,172.117068 201.226,168.033068 201.234,164.294068" id="Fill-153" fill="#5589BB"></path>
                <path d="M201.195,185.191068 L201.195,185.191068 C196.545,187.757068 192.785,184.890068 192.798961,178.785068 L192.919,123.511068 L209.761,114.214068 L209.641,169.488068 C209.627,175.592068 205.847,182.623068 201.195,185.191068" id="Fill-154" fill="#5589BB"></path>
                <path d="M246.656,84.4520682 C246.656,98.4800682 236.808,104.165068 224.658,97.1520682 C212.509,90.1370682 202.66,73.0780682 202.66,59.0500682 C202.66,45.0220682 212.509,39.3350682 224.658,46.3500682 C236.808,53.3650682 246.656,70.4230682 246.656,84.4520682" id="Fill-155" fill="#6CBDDE"></path>
                <polyline id="Fill-156" fill="#6CBDDE" points="240.43 98.5640682 176.411 135.274068 141.997 83.5780682 208.691 45.0610682 240.43 98.5640682"></polyline>
                <path d="M215.251,103.186068 C215.251,88.7570682 205.121,71.2120682 192.625,63.9970682 C186.946,60.7190682 181.761,60.1460682 177.788,61.8420682 L177.782,61.8320682 L177.7,61.8720682 L177.599,61.9220682 C177.424,62.0000682 177.253,62.0850682 177.083,62.1730682 C153.457,73.7850682 127.31,79.3350682 100.997,78.3110682 L93.542,78.0210682 L154.232,182.024068 L157.52,175.670068 C169.508,152.501068 187.028,132.660068 208.513,117.892068 C212.671,115.556068 215.251,110.464068 215.251,103.186068" id="Fill-157" fill="#D4EAF2"></path>
                <path d="M161.311,158.521068 C161.311,130.842068 141.878,97.1850682 117.907,83.3450682 C105.952,76.4440682 95.128,75.7750682 87.278,80.2700682 L87.278,80.2690682 L87.236,80.2930682 L87.178,80.3270682 L80.057,84.4990682 L82.544,83.9800682 C77.481,89.2550682 74.503,97.5680682 74.503,108.403068 C74.503,136.081068 93.936,169.739068 117.907,183.578068 C127.314,189.010068 136.022,190.580068 143.131,188.813068 L142.003,190.473068 L148.56,186.641068 L148.662,186.580068 L148.898,186.443068 L148.889,186.444068 C156.571,181.837068 161.311,172.188068 161.311,158.521068" id="Fill-158" fill="#D4EAF2"></path>
                <path d="M156.231,161.485068 C156.231,133.806068 136.799,100.148068 112.827,86.3080682 C101.034,79.4990682 90.341,78.7590682 82.519,83.0570682 L81.429,83.6960682 C81.057,83.9310682 80.693,84.1820682 80.336,84.4420682 L82.544,83.9800682 C77.481,89.2550682 74.503,97.5680682 74.503,108.403068 C74.503,136.081068 93.936,169.739068 117.907,183.578068 C127.314,189.010068 136.022,190.580068 143.131,188.813068 L142.103,190.327068 C150.784,186.175068 156.231,176.137068 156.231,161.485068" id="Fill-159" fill="#FFFFFE"></path>
                <path d="M154.792,162.330068 C154.792,190.010068 135.359,201.229068 111.388,187.389068 C87.417,173.549068 67.984,139.891068 67.984,112.212068 C67.984,84.5340682 87.417,73.3150682 111.388,87.1550682 C135.359,100.994068 154.792,134.652068 154.792,162.330068" id="Fill-160" fill="#5589BB"></path>
                <path d="M149.469,159.257068 C149.469,183.541068 132.419,193.384068 111.388,181.242068 C90.356,169.100068 73.308,139.570068 73.308,115.285068 C73.308,91.0010682 90.356,81.1590682 111.388,93.3010682 C132.419,105.444068 149.469,134.973068 149.469,159.257068" id="Fill-161" fill="#263764"></path>
                <path d="M113.166,180.480068 C92.135,168.337068 75.085,138.808068 75.085,114.524068 C75.085,101.772068 79.788,93.0050682 87.299,89.3100682 C78.76,92.4430682 73.308,101.555068 73.308,115.286068 C73.308,139.570068 90.356,169.100068 111.388,181.242068 C121.375,187.008068 130.463,187.813068 137.255,184.471068 C130.691,186.879068 122.306,185.757068 113.166,180.480068" id="Fill-162" fill="#FFFFFE"></path>
                <g id="Group-166" transform="translate(72.653000, 87.186068)">
                    <mask id="mask-2" fill="white">
                        <use xlink:href="#path-1"></use>
                    </mask>
                    <g id="Clip-164"></g>
                    <polyline id="Fill-163" fill="#D4EAF2" mask="url(#mask-2)" points="33.036 40.982 88.288 -1.74 108.353 33.069 43.5 59.681 33.036 40.982"></polyline>
                    <path d="M46.339,54.476 C46.339,59.326 42.935,61.291 38.735,58.866 C34.536,56.441 31.13,50.545 31.13,45.695 C31.13,40.846 34.536,38.88 38.735,41.305 C42.935,43.729 46.339,49.627 46.339,54.476" id="Fill-165" fill="#5589BB" mask="url(#mask-2)"></path>
                </g>
                <path d="M188.737,164.768068 L188.439,164.597068 C187.333,163.963068 186.434,162.256068 186.43,160.785068 L186.398987,150.126068 C186.395,148.655068 187.287,147.976068 188.393,148.610068 L188.691,148.782068 C189.796,149.415068 190.695,151.121068 190.7,152.593068 L190.731013,163.252068 C190.735,164.723068 189.843,165.402068 188.737,164.768068" id="Fill-167" fill="#FFFFFE"></path>
            </g>
        </g>
    </g>
</svg>