<?xml version="1.0" encoding="UTF-8"?>
<svg width="310px" height="378px" viewBox="0 0 310 378" version="1.1" xmlns="http://www.w3.org/2000/svg" xmlns:xlink="http://www.w3.org/1999/xlink">
    <!-- Generator: Sketch 62 (91390) - https://sketch.com -->
    <title>Group</title>
    <desc>Created with Sketch.</desc>
    <defs>
        <path d="M207.793852,129.893636 C205.560426,129.893636 203.428042,129.441919 201.834987,128.521414 L2.58109283,13.4044444 C-0.935700422,11.3717172 -0.49478903,7.82363636 3.56658228,5.47707071 L12.5462152,0.287575758 L201.834987,109.647778 C203.428042,110.568283 205.560426,111.018687 207.793852,111.018687 C210.490498,111.018687 213.334114,110.362121 215.554418,109.079192 L297.479954,61.7276768 L307.445076,67.4844444 C310.961869,69.5171717 310.520958,73.0652525 306.459586,75.4118182 L215.554418,127.952828 C213.334114,129.235758 210.489186,129.893636 207.793852,129.893636" id="path-1"></path>
        <radialGradient cx="-127.147778%" cy="9.90881459%" fx="-127.147778%" fy="9.90881459%" r="987.832237%" gradientTransform="translate(-1.271478,0.099088),scale(0.418607,1.000000),rotate(0.277239),scale(1.000000,0.758811),translate(1.271478,-0.099088)" id="radialGradient-3">
            <stop stop-color="#232752" offset="0%"></stop>
            <stop stop-color="#234283" offset="100%"></stop>
        </radialGradient>
        <path d="M207.793852,129.40395 C205.560426,129.40395 203.428042,128.95462 201.834987,128.03631 L2.58109283,13.19254 C0.980164557,12.2703 0.207257384,11.03366 0.216443038,9.73938 L0.207257384,9.73807 L0.207257384,0.22747 C0.238751055,1.48638 1.01953165,2.68503 2.58109283,3.585 L201.834987,118.42877 C203.428042,119.34577 205.560426,119.79641 207.793852,119.79641 C210.489186,119.79641 213.334114,119.1401 215.554418,117.86023 L306.459586,65.44451 C308.67989,64.16464 309.818911,62.52714 309.818911,60.97348 L309.818911,70.50897 L309.813662,70.50897 C309.849093,72.08359 308.715321,73.75384 306.459586,75.05205 L215.554418,127.46908 C213.334114,128.74895 210.490498,129.40395 207.793852,129.40395" id="path-4"></path>
        <path d="M207.793852,176.967338 C205.560426,176.967338 203.428042,176.517103 201.834987,175.600926 L2.58109283,60.8602941 C1.01953165,59.9611324 0.238751055,58.7635588 0.206273207,57.5057794 C0.206273207,57.4547353 0.206273207,57.4023824 0.206273207,57.3513382 C0.206273207,57.3487206 0.206273207,57.3474118 0.206273207,57.3447941 C0.247936709,55.8173971 1.38564557,54.2153971 3.56658228,52.9589265 L94.4717511,0.590279412 C94.6725232,0.475102941 94.8785443,0.363852941 95.0898143,0.257838235 C96.0005063,2.43964706 96.965,4.65155882 97.9832954,6.88048529 L3.42879747,61.3484853 L200.98597,175.111426 L306.597371,114.274691 L307.445076,114.764191 C309.039443,115.681676 309.818913,116.910662 309.818913,118.197235 C309.818913,119.7495 308.67989,121.385529 306.459586,122.66425 L215.554418,175.032897 C213.334114,176.311618 210.489186,176.967338 207.793852,176.967338" id="path-6"></path>
        <linearGradient x1="9.11269784%" y1="54.8693145%" x2="90.4959991%" y2="44.8835283%" id="linearGradient-8">
            <stop stop-color="#61B5DA" offset="0%"></stop>
            <stop stop-color="#83CEE8" offset="100%"></stop>
        </linearGradient>
        <path d="M159.379823,205.533595 C158.804065,205.533595 158.169153,205.352797 157.501379,204.96762 L71.4005726,155.423873 C88.3749194,131.449867 84.5391613,94.7178481 84.5391613,94.7178481 L35.1265,41.8358987 L0.989830645,39.0820127 L0.989830645,48.1389177 L0.989830645,4.39379114 C0.989830645,2.47314557 1.6378871,1.12633544 2.65926613,0.560360759 C3.01287097,0.365151899 3.41116935,0.262962025 3.84364516,0.262962025 C4.41940323,0.262962025 5.05431452,0.443759494 5.72208871,0.827626582 L157.501379,88.1659051 C160.114637,89.6699304 162.233637,93.7038101 162.233637,97.1769557 L162.233637,201.402766 C162.233637,203.253975 161.631589,204.571962 160.673306,205.172 C160.293411,205.409133 159.856992,205.533595 159.379823,205.533595" id="path-9"></path>
        <linearGradient x1="101.952607%" y1="99.2507021%" x2="2.27889566%" y2="4.76002042%" id="linearGradient-11">
            <stop stop-color="#61B5DA" offset="0%"></stop>
            <stop stop-color="#83CEE8" offset="100%"></stop>
        </linearGradient>
        <path d="M6.0438,3.196 L0.2408,0.004 L6.0438,3.19466667 C6.0438,3.196 6.0438,3.196 6.0438,3.196" id="path-12"></path>
        <radialGradient cx="-10597.0567%" cy="2213.70092%" fx="-10597.0567%" fy="2213.70092%" r="42791.8573%" gradientTransform="translate(-105.970567,22.137009),scale(0.550060,1.000000),rotate(0.263857),scale(1.000000,0.758811),translate(105.970567,-22.137009)" id="radialGradient-14">
            <stop stop-color="#1C1F44" offset="0%"></stop>
            <stop stop-color="#265894" offset="100%"></stop>
        </radialGradient>
        <path d="M71.0299231,117.208089 L65.6095385,114.0706 C68.1909231,107.984422 69.8843846,101.613733 70.9789231,95.5459111 L77.9031538,99.5539778 L77.9031538,95.7137333 L71.553,92.0386889 C73.7721538,76.9556667 72.4840769,64.5761556 72.4840769,64.5761556 L23.3279231,11.6544667 L0.984692308,9.84251111 L0.984692308,0.7788 L34.9441538,3.53475556 L84.1003077,56.4564444 C84.1003077,56.4564444 87.9161538,93.2160667 71.0299231,117.2094" id="path-15"></path>
        <linearGradient x1="156.861215%" y1="141.747463%" x2="-2.71448888%" y2="-24.967625%" id="linearGradient-17">
            <stop stop-color="#4A91BF" offset="0%"></stop>
            <stop stop-color="#65ABCF" offset="100%"></stop>
        </linearGradient>
        <path d="M65.6350779,133.844 C93.2671039,112.118 88.1567662,63.2547692 88.1567662,63.2547692 L38.8504026,10.4710769 L18.5769481,8.42846154 L0.277584416,7.20838462 C0.339233766,2.63015385 0.638298701,0.108923077 0.638298701,0.108923077 L27.5331558,2.27838462 L49.9446623,4.08561538 L99.251026,56.8693077 C99.251026,56.8693077 100.543039,69.2165385 98.3171039,84.2602308 C98.1465844,85.4096923 97.9550779,86.5800769 97.7412727,87.7583077 C96.6433896,93.8103077 94.9447532,100.164385 92.3554805,106.234692 C89.7111169,112.427923 86.142013,118.320385 81.3307403,123.298769 C77.818039,126.934154 73.6416234,130.080462 68.6860649,132.493154 C68.2663247,132.697154 67.843961,132.894615 67.4124156,133.088154 C66.8326494,133.349692 66.2371429,133.602077 65.6350779,133.844" id="path-18"></path>
        <polyline id="path-20" points="11.2008085 0.130666667 0.0447659574 6.64133333 49.6302553 10.696 60.787617 4.18533333 11.2008085 0.130666667"></polyline>
        <linearGradient x1="100%" y1="50%" x2="-0.00130301648%" y2="50%" id="linearGradient-22">
            <stop stop-color="#1B5A98" offset="0%"></stop>
            <stop stop-color="#2F69A4" offset="100%"></stop>
        </linearGradient>
        <path d="M50.3439091,138.653811 C49.5096753,137.620491 48.6924935,136.592415 47.8844935,135.560406 C45.3004675,132.257189 42.8502338,128.955283 40.5377273,125.680915 C40.3383506,125.39767 40.1402857,125.115736 39.9422208,124.833802 C31.1263636,112.233321 24.2662338,99.904283 18.928974,88.1955 C17.9111039,85.9623208 16.947013,83.7461887 16.0367013,81.560217 C-3.07722078,35.6535 1.03754545,0.958575472 1.03754545,0.958575472 L11.7710909,1.6745566 L30.0704545,2.89801887 L50.3439091,4.94630189 L99.6502727,57.8764528 C99.6502727,57.8764528 104.76061,106.875264 77.1285844,128.661547 C73.3443636,131.644802 68.9502078,134.116642 63.8411818,135.882991 C59.8024935,137.279547 55.3178312,138.2355 50.3439091,138.653811 M5.00277922,7.52304717 C5.00277922,7.52304717 -2.121,67.6025189 49.3339091,131.32484 C100.788818,127.001415 93.665039,58.6973396 93.665039,58.6973396 L49.3339091,11.1095094 L31.1066883,9.26710377 L5.00277922,7.52304717" id="path-23"></path>
        <linearGradient x1="23.9662752%" y1="30.6233037%" x2="76.0338029%" y2="72.2718918%" id="linearGradient-25">
            <stop stop-color="#83CEE8" offset="0%"></stop>
            <stop stop-color="#61B5DA" offset="100%"></stop>
        </linearGradient>
        <path d="M45.6463913,124.880437 C-6.08908696,61.1008125 1.07353623,0.9673125 1.07353623,0.9673125 L27.3197826,2.7129375 L45.6463913,4.557 L90.2192464,52.187625 C90.2192464,52.187625 97.3818696,120.553125 45.6463913,124.880437" id="path-26"></path>
        <linearGradient x1="21.3748178%" y1="28.7575469%" x2="79.8132693%" y2="75.0800763%" id="linearGradient-28">
            <stop stop-color="#9AD5EA" offset="0%"></stop>
            <stop stop-color="#7BC4E2" offset="100%"></stop>
        </linearGradient>
    </defs>
    <g id="Page-1" stroke="none" stroke-width="1" fill="none" fill-rule="evenodd">
        <g id="HInt-screen1" transform="translate(-53.000000, -79.000000)">
            <g id="Group" transform="translate(53.000000, 79.000000)">
                <path d="M89.344907,369.95283 L90.1000886,369.95283 C90.7622675,369.95283 91.2099203,369.809973 91.444287,369.525606 C91.6761736,369.24124 91.7927369,368.719677 91.7927369,367.959569 C91.7927369,367.526954 91.7778565,367.191375 91.7468556,366.955526 C91.7146147,366.718329 91.6426926,366.502695 91.5286094,366.308625 C91.4145261,366.114555 91.2446413,365.981132 91.0201949,365.908356 C90.7945084,365.834232 90.4906997,365.796496 90.1062888,365.796496 L89.344907,365.796496 L89.344907,369.95283 Z M87,378 L87,364 L90.7052259,364 C92.9013286,364 94,365.324798 94,367.977089 C94,369.277628 93.6999114,370.230458 93.0984942,370.83558 C92.4970771,371.440701 91.6513729,371.743935 90.5576616,371.743935 L89.344907,371.743935 L89.344907,378 L87,378 L87,378 Z" id="Fill-23" fill="#FFFFFE"></path>
                <path d="M97.1172859,373.086253 L98.9163166,373.086253 L98.0155089,367.334232 L97.1172859,373.086253 Z M94,378 L96.7282714,364 L99.279483,364 L102,378 L99.7253635,378 L99.1825525,374.749326 L96.8588045,374.749326 L96.3069467,378 L94,378 L94,378 Z" id="Fill-24" fill="#FFFFFE"></path>
                <polyline id="Fill-25" fill="#FFFFFE" points="104.810883 378 104.810883 372.671159 102 364 104.345056 364 106.050431 369.572776 107.680159 364 110 364 107.20637 372.671159 107.20637 378 104.810883 378"></polyline>
                <polyline id="Fill-26" fill="#FFFFFE" points="112 378 112.211384 364 114.627383 364 116.497513 373.836927 118.419867 364 120.782398 364 121 378 119.223128 378 119.067698 368.357143 117.205029 378 115.826057 378 113.941006 368.32345 113.801741 378 112 378"></polyline>
                <polyline id="Fill-27" fill="#FFFFFE" points="123 378 123 364 128.956164 364 128.956164 365.796496 125.590411 365.796496 125.590411 369.818059 128.252055 369.818059 128.252055 371.615903 125.590411 371.615903 125.590411 376.235849 129 376.235849 129 378 123 378"></polyline>
                <polyline id="Fill-28" fill="#FFFFFE" points="130 378 130 364 131.683724 364 134.973582 371.928571 134.973582 364 137 364 137 378 135.39516 378 132.072972 369.665768 132.072972 378 130 378"></polyline>
                <polyline id="Fill-29" fill="#FFFFFE" points="140.292105 378 140.292105 365.882749 138 365.882749 138 364 145 364 145 365.882749 142.782895 365.882749 142.782895 378 140.292105 378"></polyline>
                <path d="M153.680649,378 C151.344337,378 150.117454,376.609642 150,373.826294 L152.105234,373.373374 C152.157578,375.182419 152.658034,376.086942 153.609156,376.086942 C153.976837,376.086942 154.248769,375.971078 154.42878,375.739352 C154.607514,375.510259 154.695605,375.198219 154.695605,374.807181 C154.695605,374.427992 154.629218,374.081719 154.496444,373.764412 C154.362393,373.448422 154.207915,373.190363 154.033011,372.988919 C153.85683,372.787475 153.606602,372.53995 153.281051,372.242392 L151.535838,370.683506 C151.023892,370.22137 150.643443,369.742118 150.393215,369.243117 C150.141711,368.745432 150.016597,368.122668 150.016597,367.374824 C150.016597,366.313623 150.319168,365.488098 150.924312,364.899566 C151.530731,364.31235 152.360569,364.012159 153.416378,364.00031 C153.901514,363.995043 154.330476,364.056925 154.704541,364.185954 C155.07733,364.3163 155.385008,364.488778 155.628853,364.706022 C155.871421,364.924582 156.073135,365.19449 156.236549,365.51838 C156.398687,365.843587 156.519971,366.180643 156.600401,366.528233 C156.680832,366.878455 156.737005,367.268177 156.767645,367.696081 L154.704541,368.117401 C154.693051,367.842226 154.675178,367.603917 154.652198,367.398523 C154.627941,367.195762 154.587087,366.990369 154.52836,366.781025 C154.469633,366.571681 154.39431,366.403153 154.301113,366.274124 C154.206639,366.143778 154.081525,366.041081 153.924494,365.964717 C153.767463,365.887036 153.584899,365.85807 153.376801,365.872553 C153.019332,365.896252 152.746124,366.018698 152.5559,366.241208 C152.366952,366.462401 152.272479,366.761276 152.272479,367.135198 C152.272479,367.574951 152.356739,367.93834 152.523983,368.220098 C152.692504,368.503173 152.955499,368.807313 153.311691,369.13252 L155.040306,370.683506 C155.327558,370.953415 155.577786,371.214107 155.792267,371.466899 C156.005471,371.719691 156.209739,372.008033 156.403794,372.331923 C156.597848,372.658446 156.747219,373.015252 156.848076,373.404973 C156.95021,373.796011 157,374.208116 157,374.642602 C157,375.637972 156.694875,376.446381 156.084625,377.067828 C155.473099,377.690593 154.672624,378 153.680649,378" id="Fill-30" fill="#FFFFFE"></path>
                <polyline id="Fill-31" fill="#FFFFFE" points="160.811349 378 160.811349 372.671159 158 364 160.345445 364 162.051103 369.572776 163.679774 364 166 364 163.207234 372.671159 163.207234 378 160.811349 378"></polyline>
                <path d="M170.681321,378 C168.344582,378 167.117475,376.609642 167,373.826294 L169.104341,373.373374 C169.156695,375.182419 169.658519,376.086942 170.608537,376.086942 C170.976286,376.086942 171.249544,375.971078 171.429588,375.739352 C171.607078,375.510259 171.696461,375.198219 171.696461,374.807181 C171.696461,374.427992 171.630062,374.081719 171.495987,373.764412 C171.363189,373.448422 171.208683,373.190363 171.03247,372.988919 C170.856257,372.787475 170.605983,372.53995 170.280372,372.242392 L168.536118,370.683506 C168.024079,370.22137 167.643561,369.742118 167.393287,369.243117 C167.14046,368.745432 167.0166,368.122668 167.0166,367.374824 C167.0166,366.313623 167.319227,365.488098 167.92448,364.899566 C168.529734,364.31235 169.361,364.012159 170.417001,364.00031 C170.902225,363.995043 171.331266,364.056925 171.704123,364.185954 C172.076979,364.3163 172.385991,364.488778 172.628603,364.706022 C172.872492,364.924582 173.074243,365.19449 173.237687,365.51838 C173.399854,365.843587 173.519883,366.180643 173.601605,366.528233 C173.680773,366.878455 173.736957,367.268177 173.76888,367.696081 L171.704123,368.117401 C171.693907,367.842226 171.676031,367.603917 171.651769,367.398523 C171.628785,367.195762 171.587924,366.990369 171.529186,366.781025 C171.470449,366.571681 171.393834,366.403153 171.30062,366.274124 C171.207406,366.143778 171.080992,366.041081 170.923933,365.964717 C170.766873,365.887036 170.585553,365.85807 170.37614,365.872553 C170.018606,365.896252 169.745348,366.018698 169.556366,366.241208 C169.366107,366.462401 169.271616,366.761276 169.271616,367.135198 C169.271616,367.574951 169.357169,367.93834 169.523167,368.220098 C169.691718,368.503173 169.954761,368.807313 170.312295,369.13252 L172.039949,370.683506 C172.32853,370.953415 172.578803,371.214107 172.793324,371.466899 C173.006567,371.719691 173.209595,372.008033 173.404962,372.331923 C173.599051,372.658446 173.747173,373.015252 173.848048,373.404973 C173.950201,373.796011 174,374.208116 174,374.642602 C174,375.637972 173.694819,376.446381 173.085735,377.067828 C172.474097,377.690593 171.6722,378 170.681321,378" id="Fill-32" fill="#FFFFFE"></path>
                <polyline id="Fill-33" fill="#FFFFFE" points="176.292105 378 176.292105 365.882749 174 365.882749 174 364 181 364 181 365.882749 178.782895 365.882749 178.782895 378 176.292105 378"></polyline>
                <polyline id="Fill-34" fill="#FFFFFE" points="182 378 182 364 187.956164 364 187.956164 365.796496 184.590411 365.796496 184.590411 369.818059 187.252055 369.818059 187.252055 371.615903 184.590411 371.615903 184.590411 376.235849 188 376.235849 188 378 182 378"></polyline>
                <polyline id="Fill-35" fill="#FFFFFE" points="190 378 190.211414 364 192.626503 364 194.496891 373.836927 196.420754 364 198.782368 364 199 378 197.222882 378 197.067431 368.357143 195.204505 378 193.826586 378 191.94003 368.32345 191.800746 378 190 378"></polyline>
                <path d="M207.117286,373.086253 L208.916317,373.086253 L208.015509,367.334232 L207.117286,373.086253 Z M204,378 L206.728271,364 L209.279483,364 L212,378 L209.725363,378 L209.182553,374.749326 L206.858805,374.749326 L206.306947,378 L204,378 L204,378 Z" id="Fill-36" fill="#FFFFFE"></path>
                <path d="M217.10477,378 C216.484475,378 215.93634,377.927584 215.460364,377.777485 C214.985776,377.63002 214.593062,377.423305 214.283608,377.159974 C213.972767,376.895326 213.721596,376.567479 213.52732,376.176432 C213.331657,375.788018 213.197051,375.368005 213.117953,374.919026 C213.038855,374.471363 213,373.967084 213,373.404872 L213,368.637261 C213,368.04345 213.040243,367.515471 213.122116,367.057275 C213.202602,366.597762 213.339983,366.171165 213.531483,365.778802 C213.722984,365.385122 213.972767,365.061224 214.283608,364.809743 C214.593062,364.555629 214.984389,364.35813 215.457589,364.214615 C215.929402,364.072416 216.478925,364 217.10477,364 C217.823591,364 218.438335,364.090849 218.947615,364.272548 C219.456895,364.454246 219.860711,364.720211 220.156288,365.073074 C220.451865,365.424621 220.665568,365.836735 220.800173,366.305464 C220.933391,366.776827 221,367.325872 221,367.951284 L221,369.123107 L218.468864,369.123107 L218.468864,367.9605 C218.468864,367.278473 218.431396,366.81896 218.356461,366.581962 C218.206592,366.121132 217.837467,365.872284 217.251865,365.840685 L217.113096,365.840685 C216.893842,365.840685 216.700954,365.864384 216.53582,365.913101 C216.370685,365.96445 216.234692,366.042133 216.130616,366.148782 C216.026539,366.256748 215.941891,366.371297 215.878057,366.492429 C215.814224,366.613562 215.767042,366.77156 215.735126,366.966425 C215.703209,367.16129 215.683781,367.340355 215.674068,367.506254 C215.665742,367.670836 215.661578,367.881501 215.661578,368.132982 L215.661578,373.924951 C215.661578,374.728111 215.767042,375.299539 215.977971,375.640553 C216.190286,375.982883 216.567736,376.152732 217.113096,376.152732 C217.299046,376.152732 217.462793,376.131666 217.604337,376.090849 C217.747268,376.050033 217.865221,375.997367 217.960971,375.934167 L218.205204,375.661619 L218.356461,375.332456 C218.391154,375.231073 218.41752,375.087558 218.435559,374.907176 C218.452212,374.725477 218.463313,374.571429 218.464701,374.44503 C218.467476,374.318631 218.468864,374.144832 218.468864,373.924951 L218.468864,372.704411 L221,372.704411 L221,373.826201 C221,374.337064 220.961145,374.797893 220.887598,375.203423 C220.811275,375.611587 220.68222,375.993417 220.499046,376.35023 C220.317259,376.708361 220.081353,377.004608 219.791327,377.241606 C219.502689,377.478604 219.130789,377.662936 218.678404,377.798552 C218.227407,377.932851 217.701474,378 217.10477,378" id="Fill-37" fill="#FFFFFE"></path>
                <path d="M226.10477,378 C225.484475,378 224.937728,377.927584 224.461752,377.777485 C223.985776,377.63002 223.594449,377.423305 223.283608,377.159974 C222.972767,376.895326 222.721596,376.567479 222.52732,376.176432 C222.333044,375.788018 222.197051,375.368005 222.117953,374.919026 C222.040243,374.471363 222,373.967084 222,373.404872 L222,368.637261 C222,368.04345 222.041631,367.515471 222.122116,367.057275 C222.20399,366.597762 222.339983,366.171165 222.531483,365.778802 C222.722984,365.385122 222.972767,365.061224 223.283608,364.809743 C223.594449,364.555629 223.984389,364.35813 224.457589,364.214615 C224.930789,364.072416 225.478925,364 226.10477,364 C226.823591,364 227.438335,364.090849 227.947615,364.272548 C228.458283,364.454246 228.862099,364.720211 229.157676,365.073074 C229.451865,365.424621 229.666956,365.836735 229.800173,366.305464 C229.933391,366.776827 230,367.325872 230,367.951284 L230,369.123107 L227.470252,369.123107 L227.470252,367.9605 C227.470252,367.278473 227.431396,366.81896 227.357849,366.581962 C227.206592,366.121132 226.838855,365.872284 226.253252,365.840685 L226.113096,365.840685 C225.893842,365.840685 225.700954,365.864384 225.53582,365.913101 C225.370685,365.96445 225.234692,366.042133 225.130616,366.148782 C225.026539,366.256748 224.941891,366.371297 224.879445,366.492429 C224.815611,366.613562 224.767042,366.77156 224.735126,366.966425 C224.704597,367.16129 224.683781,367.340355 224.674068,367.506254 C224.665742,367.670836 224.661578,367.881501 224.661578,368.132982 L224.661578,373.924951 C224.661578,374.728111 224.767042,375.299539 224.979358,375.640553 C225.190286,375.982883 225.569124,376.152732 226.113096,376.152732 C226.299046,376.152732 226.462793,376.131666 226.605724,376.090849 C226.747268,376.050033 226.865221,375.997367 226.960971,375.934167 L227.205204,375.661619 L227.357849,375.332456 C227.391154,375.231073 227.418907,375.087558 227.435559,374.907176 C227.452212,374.725477 227.463313,374.571429 227.466088,374.44503 C227.468864,374.318631 227.470252,374.144832 227.470252,373.924951 L227.470252,372.704411 L230,372.704411 L230,373.826201 C230,374.337064 229.962533,374.797893 229.887598,375.203423 C229.811275,375.611587 229.68222,375.993417 229.500434,376.35023 C229.318647,376.708361 229.081353,377.004608 228.791327,377.241606 C228.502689,377.478604 228.130789,377.662936 227.678404,377.798552 C227.227407,377.932851 226.701474,378 226.10477,378" id="Fill-38" fill="#FFFFFE"></path>
                <polyline id="Fill-39" fill="#FFFFFE" points="232 378 232 364 237.957534 364 237.957534 365.796496 234.591781 365.796496 234.591781 369.818059 237.252055 369.818059 237.252055 371.615903 234.591781 371.615903 234.591781 376.235849 238 376.235849 238 378 232 378"></polyline>
                <path d="M242.680044,378 C240.343305,378 239.116198,376.609642 239,373.826294 L241.104341,373.373374 C241.156695,375.182419 241.658519,376.086942 242.608537,376.086942 C242.976286,376.086942 243.249544,375.971078 243.428311,375.739352 C243.607078,375.510259 243.695184,375.198219 243.695184,374.807181 C243.695184,374.427992 243.628785,374.081719 243.495987,373.764412 C243.363189,373.448422 243.207406,373.190363 243.03247,372.988919 C242.856257,372.787475 242.605983,372.53995 242.280372,372.242392 L240.536118,370.683506 C240.022802,370.22137 239.642284,369.742118 239.39201,369.243117 C239.14046,368.745432 239.015323,368.122668 239.015323,367.374824 C239.015323,366.313623 239.319227,365.488098 239.923203,364.899566 C240.529734,364.31235 241.359723,364.012159 242.415724,364.00031 C242.900949,363.995043 243.329989,364.056925 243.704123,364.185954 C244.076979,364.3163 244.384714,364.488778 244.628603,364.706022 C244.871215,364.924582 245.072966,365.19449 245.23641,365.51838 C245.398577,365.843587 245.519883,366.180643 245.600328,366.528233 C245.680773,366.878455 245.736957,367.268177 245.767603,367.696081 L243.704123,368.117401 C243.69263,367.842226 243.676031,367.603917 243.651769,367.398523 C243.628785,367.195762 243.586647,366.990369 243.52791,366.781025 C243.469172,366.571681 243.393834,366.403153 243.30062,366.274124 C243.206129,366.143778 243.080992,366.041081 242.923933,365.964717 C242.766873,365.887036 242.584276,365.85807 242.37614,365.872553 C242.018606,365.896252 241.745348,366.018698 241.555089,366.241208 C241.366107,366.462401 241.271616,366.761276 241.271616,367.135198 C241.271616,367.574951 241.355892,367.93834 241.523167,368.220098 C241.691718,368.503173 241.954761,368.807313 242.311018,369.13252 L244.039949,370.683506 C244.327253,370.953415 244.578803,371.214107 244.793324,371.466899 C245.006567,371.719691 245.209595,372.008033 245.403685,372.331923 C245.597775,372.658446 245.747173,373.015252 245.848048,373.404973 C245.950201,373.796011 246,374.208116 246,374.642602 C246,375.637972 245.694819,376.446381 245.084458,377.067828 C244.474097,377.690593 243.6722,378 242.680044,378" id="Fill-40" fill="#FFFFFE"></path>
                <path d="M250.680044,378 C248.343305,378 247.116198,376.609642 247,373.826294 L249.104341,373.373374 C249.156695,375.182419 249.658519,376.086942 250.608537,376.086942 C250.976286,376.086942 251.249544,375.971078 251.428311,375.739352 C251.607078,375.510259 251.695184,375.198219 251.695184,374.807181 C251.695184,374.427992 251.630062,374.081719 251.495987,373.764412 C251.363189,373.448422 251.208683,373.190363 251.03247,372.988919 C250.856257,372.787475 250.605983,372.53995 250.280372,372.242392 L248.536118,370.683506 C248.022802,370.22137 247.643561,369.742118 247.39201,369.243117 C247.14046,368.745432 247.015323,368.122668 247.015323,367.374824 C247.015323,366.313623 247.319227,365.488098 247.923203,364.899566 C248.529734,364.31235 249.359723,364.012159 250.415724,364.00031 C250.900949,363.995043 251.329989,364.056925 251.704123,364.185954 C252.076979,364.3163 252.384714,364.488778 252.628603,364.706022 C252.871215,364.924582 253.072966,365.19449 253.23641,365.51838 C253.398577,365.843587 253.519883,366.180643 253.601605,366.528233 C253.680773,366.878455 253.736957,367.268177 253.767603,367.696081 L251.704123,368.117401 C251.69263,367.842226 251.676031,367.603917 251.651769,367.398523 C251.628785,367.195762 251.586647,366.990369 251.529186,366.781025 C251.470449,366.571681 251.393834,366.403153 251.30062,366.274124 C251.207406,366.143778 251.080992,366.041081 250.923933,365.964717 C250.766873,365.887036 250.584276,365.85807 250.37614,365.872553 C250.018606,365.896252 249.745348,366.018698 249.556366,366.241208 C249.366107,366.462401 249.271616,366.761276 249.271616,367.135198 C249.271616,367.574951 249.355892,367.93834 249.523167,368.220098 C249.691718,368.503173 249.954761,368.807313 250.311018,369.13252 L252.039949,370.683506 C252.327253,370.953415 252.578803,371.214107 252.793324,371.466899 C253.006567,371.719691 253.209595,372.008033 253.403685,372.331923 C253.599051,372.658446 253.747173,373.015252 253.848048,373.404973 C253.950201,373.796011 254,374.208116 254,374.642602 C254,375.637972 253.694819,376.446381 253.084458,377.067828 C252.474097,377.690593 251.6722,378 250.680044,378" id="Fill-41" fill="#FFFFFE"></path>
                <g id="Group-269" transform="translate(0.000000, 210.000000)">
                    <mask id="mask-2" fill="white">
                        <use xlink:href="#path-1"></use>
                    </mask>
                    <g id="Clip-268"></g>
                    <path d="M207.793852,129.893636 C205.560426,129.893636 203.428042,129.441919 201.834987,128.521414 L2.58109283,13.4044444 C-0.935700422,11.3717172 -0.49478903,7.82363636 3.56658228,5.47707071 L12.5462152,0.287575758 L201.834987,109.647778 C203.428042,110.568283 205.560426,111.018687 207.793852,111.018687 C210.490498,111.018687 213.334114,110.362121 215.554418,109.079192 L297.479954,61.7276768 L307.445076,67.4844444 C310.961869,69.5171717 310.520958,73.0652525 306.459586,75.4118182 L215.554418,127.952828 C213.334114,129.235758 210.489186,129.893636 207.793852,129.893636" id="Fill-267" fill="url(#radialGradient-3)" mask="url(#mask-2)"></path>
                </g>
                <g id="Group-272" transform="translate(0.000000, 191.000000)">
                    <mask id="mask-5" fill="white">
                        <use xlink:href="#path-4"></use>
                    </mask>
                    <g id="Clip-271"></g>
                    <path d="M207.793852,129.40395 C205.560426,129.40395 203.428042,128.95462 201.834987,128.03631 L2.58109283,13.19254 C0.980164557,12.2703 0.207257384,11.03366 0.216443038,9.73938 L0.207257384,9.73807 L0.207257384,0.22747 C0.238751055,1.48638 1.01953165,2.68503 2.58109283,3.585 L201.834987,118.42877 C203.428042,119.34577 205.560426,119.79641 207.793852,119.79641 C210.489186,119.79641 213.334114,119.1401 215.554418,117.86023 L306.459586,65.44451 C308.67989,64.16464 309.818911,62.52714 309.818911,60.97348 L309.818911,70.50897 L309.813662,70.50897 C309.849093,72.08359 308.715321,73.75384 306.459586,75.05205 L215.554418,127.46908 C213.334114,128.74895 210.490498,129.40395 207.793852,129.40395" id="Fill-270" mask="url(#mask-5)"></path>
                </g>
                <g id="Group-275" transform="translate(0.000000, 134.000000)">
                    <mask id="mask-7" fill="white">
                        <use xlink:href="#path-6"></use>
                    </mask>
                    <g id="Clip-274"></g>
                    <path d="M207.793852,176.967338 C205.560426,176.967338 203.428042,176.517103 201.834987,175.600926 L2.58109283,60.8602941 C1.01953165,59.9611324 0.238751055,58.7635588 0.206273207,57.5057794 C0.206273207,57.4547353 0.206273207,57.4023824 0.206273207,57.3513382 C0.206273207,57.3487206 0.206273207,57.3474118 0.206273207,57.3447941 C0.247936709,55.8173971 1.38564557,54.2153971 3.56658228,52.9589265 L94.4717511,0.590279412 C94.6725232,0.475102941 94.8785443,0.363852941 95.0898143,0.257838235 C96.0005063,2.43964706 96.965,4.65155882 97.9832954,6.88048529 L3.42879747,61.3484853 L200.98597,175.111426 L306.597371,114.274691 L307.445076,114.764191 C309.039443,115.681676 309.818913,116.910662 309.818913,118.197235 C309.818913,119.7495 308.67989,121.385529 306.459586,122.66425 L215.554418,175.032897 C213.334114,176.311618 210.489186,176.967338 207.793852,176.967338" id="Fill-273" fill="url(#linearGradient-8)" mask="url(#mask-7)"></path>
                </g>
                <path d="M306.637281,255.526376 L215.615147,307.833541 C211.549864,310.168355 205.399382,310.423276 201.878064,308.399596 L2.36779524,193.794979 C1.03678951,193.030217 0.274713183,192.049751 0.056601682,191 C-0.221950355,192.498151 0.524358877,193.970156 2.36779524,195.029058 L201.878064,309.633675 C205.399382,311.657355 211.549864,311.403741 215.615147,309.06762 L306.637281,256.760455 C309.1679,255.306752 310.292619,253.391576 309.935232,251.663343 C309.680331,253.026843 308.576634,254.412567 306.637281,255.526376" id="Fill-276" fill="#FFFFFE"></path>
                <polyline id="Fill-277" fill="#225B9A" points="307 248.023778 201.447323 309 4 194.976222 109.551365 134 307 248.023778"></polyline>
                <path d="M62.4985177,158.496348 L48.5423967,166.705196 C47.9366872,167.06164 47.0202905,167.100211 46.4955163,166.791647 L46.3545322,166.707856 C45.829758,166.399293 45.8950285,165.860637 46.500738,165.504193 L60.456859,157.295345 C61.0625684,156.938901 61.9789651,156.899 62.5037393,157.208894 L62.6460288,157.291354 C63.170803,157.599918 63.1042272,158.139904 62.4985177,158.496348" id="Fill-278" fill="#1C5997"></path>
                <polyline id="Fill-279" fill="#FFFFFE" points="29 196.109714 27.2186057 197 23 194.890286 24.7813943 194 29 196.109714"></polyline>
                <polyline id="Fill-280" fill="#FFFFFE" points="32 194.109714 30.2195337 195 26 192.890286 27.7817862 192 32 194.109714"></polyline>
                <polyline id="Fill-281" fill="#FFFFFE" points="36 192.109714 34.2186057 193 30 190.891429 31.7813943 190 36 192.109714"></polyline>
                <polyline id="Fill-282" fill="#FFFFFE" points="39 190.108571 37.2186057 191 33 188.890286 34.7813943 188 39 190.108571"></polyline>
                <path d="M133.500742,228 C124.413576,228 115.330368,226.02989 108.397891,222.08707 C94.5342562,214.204029 94.5342562,201.423002 108.396572,193.539961 C113.588673,190.587394 119.990724,188.740741 126.692295,188 C127.505086,189.022742 128.327114,190.041585 129.166295,191.065627 C134.169712,190.651072 138.680968,189.703704 142.743605,188.319688 C148.553217,189.207277 154.042197,190.947368 158.602274,193.539961 C172.465909,201.423002 172.465909,214.204029 158.602274,222.088369 C151.671116,226.02859 142.585269,228 133.500742,228" id="Fill-291" fill="#273667"></path>
                <path d="M133.999343,176.930799 C120.12109,176.930799 106.242837,179.987822 95.6778135,186.099235 C85.5318699,191.971036 79.9432588,199.747881 79.9432588,207.998683 C79.9432588,216.250802 85.5318699,224.027647 95.6804409,229.899449 C116.810488,242.123591 151.192139,242.123591 172.320873,229.899449 C182.46813,224.027647 188.056741,216.250802 188.056741,208 C188.056741,199.749198 182.46813,191.972353 172.319559,186.099235 C161.754535,179.987822 147.877596,176.930799 133.999343,176.930799 M133.999343,240 C119.951619,240 105.903895,236.904797 95.2074978,230.717025 C84.7567687,224.670123 79,216.601004 79,207.998683 C79,199.395046 84.755455,191.327244 95.2061841,185.281659 C116.597664,172.906114 151.399709,172.906114 172.792502,185.281659 C183.243231,191.328561 189,199.396363 189,208 C189,216.60232 183.244545,224.670123 172.793816,230.717025 C162.097419,236.904797 148.049695,240 133.999343,240" id="Fill-292" fill="#FFFFFE"></path>
                <path d="M276.26362,87.7886094 L124.35211,0.561520225 C123.168015,-0.117569828 122.087857,-0.158132047 121.257675,0.318146911 L121.257675,0.310296159 L119,1.62137175 C119,1.62137175 119.521002,1.6959539 120.045951,1.76791912 C119.772293,2.40383004 119.615729,3.19413908 119.615729,4.12314474 L119.615729,108.216266 C119.615729,111.68499 121.736575,115.713734 124.35211,117.215845 L276.26362,204.441626 C276.550434,204.606492 276.829354,204.728178 277.103011,204.81977 L277.103011,206 L279.372527,204.684999 L279.35937,204.686307 C280.361904,204.110586 281,202.778575 281,200.88131 L281,96.7881882 C281,93.3194642 278.879154,89.2894115 276.26362,87.7886094" id="Fill-293" fill="#FFFFFE"></path>
                <g id="Group-296" transform="translate(117.000000, 1.000000)">
                    <mask id="mask-10" fill="white">
                        <use xlink:href="#path-9"></use>
                    </mask>
                    <g id="Clip-295"></g>
                    <path d="M159.379823,205.533595 C158.804065,205.533595 158.169153,205.352797 157.501379,204.96762 L71.4005726,155.423873 C88.3749194,131.449867 84.5391613,94.7178481 84.5391613,94.7178481 L35.1265,41.8358987 L0.989830645,39.0820127 L0.989830645,48.1389177 L0.989830645,4.39379114 C0.989830645,2.47314557 1.6378871,1.12633544 2.65926613,0.560360759 C3.01287097,0.365151899 3.41116935,0.262962025 3.84364516,0.262962025 C4.41940323,0.262962025 5.05431452,0.443759494 5.72208871,0.827626582 L157.501379,88.1659051 C160.114637,89.6699304 162.233637,93.7038101 162.233637,97.1769557 L162.233637,201.402766 C162.233637,203.253975 161.631589,204.571962 160.673306,205.172 C160.293411,205.409133 159.856992,205.533595 159.379823,205.533595" id="Fill-294" fill="url(#linearGradient-11)" mask="url(#mask-10)"></path>
                </g>
                <text id="CARD" transform="translate(250.949367, 89.832180) rotate(26.000000) translate(-250.949367, -89.832180) " font-family="NexaBold, Nexa Bold" font-size="10" font-weight="bold" letter-spacing="0.170769231" fill="#FFFFFF">
                    <tspan x="236.622829" y="93.3321799">CARD</tspan>
                </text>
                <polyline id="Fill-301" fill="#FFFFFE" points="160 118 131 101.759225 131 98 160 114.242059 160 118"></polyline>
                <polyline id="Fill-302" fill="#FFFFFE" points="195 139 166 122.759225 166 119 195 135.240775 195 139"></polyline>
                <polyline id="Fill-303" fill="#FFFFFE" points="231 159 202 142.758984 202 139 231 155.241016 231 159"></polyline>
                <polyline id="Fill-304" fill="#FFFFFE" points="266 180 237 163.757941 237 160 266 176.240775 266 180"></polyline>
                <g id="Group-307" transform="translate(182.000000, 153.000000)">
                    <mask id="mask-13" fill="white">
                        <use xlink:href="#path-12"></use>
                    </mask>
                    <g id="Clip-306"></g>
                    <path d="M6.0438,3.196 L0.2408,0.004 L6.0438,3.19466667 C6.0438,3.196 6.0438,3.196 6.0438,3.196" id="Fill-305" fill="url(#radialGradient-14)" mask="url(#mask-13)"></path>
                </g>
                <g id="Group-310" transform="translate(117.000000, 39.000000)">
                    <mask id="mask-16" fill="white">
                        <use xlink:href="#path-15"></use>
                    </mask>
                    <g id="Clip-309"></g>
                    <path d="M71.0299231,117.208089 L65.6095385,114.0706 C68.1909231,107.984422 69.8843846,101.613733 70.9789231,95.5459111 L77.9031538,99.5539778 L77.9031538,95.7137333 L71.553,92.0386889 C73.7721538,76.9556667 72.4840769,64.5761556 72.4840769,64.5761556 L23.3279231,11.6544667 L0.984692308,9.84251111 L0.984692308,0.7788 L34.9441538,3.53475556 L84.1003077,56.4564444 C84.1003077,56.4564444 87.9161538,93.2160667 71.0299231,117.2094" id="Fill-308" fill="url(#linearGradient-17)" mask="url(#mask-16)"></path>
                </g>
                <path d="M195,139 L188,134.733426 C188.215486,133.475925 188.408499,132.226797 188.580359,131 L195,134.912073 L195,139" id="Fill-311" fill="#C9CCD5"></path>
                <g id="Group-314" transform="translate(91.000000, 47.000000)">
                    <mask id="mask-19" fill="white">
                        <use xlink:href="#path-18"></use>
                    </mask>
                    <g id="Clip-313"></g>
                    <path d="M65.6350779,133.844 C93.2671039,112.118 88.1567662,63.2547692 88.1567662,63.2547692 L38.8504026,10.4710769 L18.5769481,8.42846154 L0.277584416,7.20838462 C0.339233766,2.63015385 0.638298701,0.108923077 0.638298701,0.108923077 L27.5331558,2.27838462 L49.9446623,4.08561538 L99.251026,56.8693077 C99.251026,56.8693077 100.543039,69.2165385 98.3171039,84.2602308 C98.1465844,85.4096923 97.9550779,86.5800769 97.7412727,87.7583077 C96.6433896,93.8103077 94.9447532,100.164385 92.3554805,106.234692 C89.7111169,112.427923 86.142013,118.320385 81.3307403,123.298769 C77.818039,126.934154 73.6416234,130.080462 68.6860649,132.493154 C68.2663247,132.697154 67.843961,132.894615 67.4124156,133.088154 C66.8326494,133.349692 66.2371429,133.602077 65.6350779,133.844" id="Fill-312" mask="url(#mask-19)"></path>
                </g>
                <g id="Group-317" transform="translate(80.000000, 47.000000)">
                    <mask id="mask-21" fill="white">
                        <use xlink:href="#path-20"></use>
                    </mask>
                    <g id="Clip-316"></g>
                    <polyline id="Fill-315" fill="url(#linearGradient-22)" mask="url(#mask-21)" points="11.2008085 0.130666667 0.0447659574 6.64133333 49.6302553 10.696 60.787617 4.18533333 11.2008085 0.130666667"></polyline>
                </g>
                <g id="Group-320" transform="translate(79.000000, 52.000000)">
                    <mask id="mask-24" fill="white">
                        <use xlink:href="#path-23"></use>
                    </mask>
                    <g id="Clip-319"></g>
                    <path d="M50.3439091,138.653811 C49.5096753,137.620491 48.6924935,136.592415 47.8844935,135.560406 C45.3004675,132.257189 42.8502338,128.955283 40.5377273,125.680915 C40.3383506,125.39767 40.1402857,125.115736 39.9422208,124.833802 C31.1263636,112.233321 24.2662338,99.904283 18.928974,88.1955 C17.9111039,85.9623208 16.947013,83.7461887 16.0367013,81.560217 C-3.07722078,35.6535 1.03754545,0.958575472 1.03754545,0.958575472 L11.7710909,1.6745566 L30.0704545,2.89801887 L50.3439091,4.94630189 L99.6502727,57.8764528 C99.6502727,57.8764528 104.76061,106.875264 77.1285844,128.661547 C73.3443636,131.644802 68.9502078,134.116642 63.8411818,135.882991 C59.8024935,137.279547 55.3178312,138.2355 50.3439091,138.653811 M5.00277922,7.52304717 C5.00277922,7.52304717 -2.121,67.6025189 49.3339091,131.32484 C100.788818,127.001415 93.665039,58.6973396 93.665039,58.6973396 L49.3339091,11.1095094 L31.1066883,9.26710377 L5.00277922,7.52304717" id="Fill-318" fill="url(#linearGradient-25)" mask="url(#mask-24)"></path>
                </g>
                <path d="M178.579434,110.709934 L129.289062,57.7917901 L80,53.8049683 C81.3925612,53 81.3925612,53 81.3925612,53 L131.338565,57.0405737 L180.628938,109.958717 C180.628938,109.958717 187.241637,173.450264 144.636083,188 C184.978397,172.144484 178.579434,110.709934 178.579434,110.709934" id="Fill-321" fill="#FFFFFE"></path>
                <g id="Group-324" transform="translate(83.000000, 59.000000)">
                    <mask id="mask-27" fill="white">
                        <use xlink:href="#path-26"></use>
                    </mask>
                    <g id="Clip-323"></g>
                    <path d="M45.6463913,124.880437 C-6.08908696,61.1008125 1.07353623,0.9673125 1.07353623,0.9673125 L27.3197826,2.7129375 L45.6463913,4.557 L90.2192464,52.187625 C90.2192464,52.187625 97.3818696,120.553125 45.6463913,124.880437" id="Fill-322" fill="url(#linearGradient-28)" mask="url(#mask-27)"></path>
                </g>
                <polyline id="Fill-325" fill="#FFFFFE" points="95.5 80 94 78.5 95.5 77 97 78.5 95.5 80"></polyline>
                <polyline id="Fill-326" fill="#FFFFFE" points="101.5 79 100 77.5 101.5 76 103 77.5 101.5 79"></polyline>
                <polyline id="Fill-327" fill="#FFFFFE" points="98.5 76 97 74.5 98.5 73 100 74.5 98.5 76"></polyline>
                <polyline id="Fill-328" fill="#FFFFFE" points="98.5 83 97 81.5 98.5 80 100 81.5 98.5 83"></polyline>
                <path d="M276.450681,65.4741903 L278.633344,67.5922544 L289.549319,56.9993554 L278.633344,46.4077456 L276.450681,48.5258097 L285.182664,56.9993554 L276.450681,65.4741903 Z M278.633344,69 L275,65.4741903 L283.731983,56.9993554 L275,48.5258097 L278.633344,45 L291,56.9993554 L278.633344,69 L278.633344,69 Z" id="Fill-329" fill="#FFFFFE"></path>
                <path d="M207.692193,277 C207.334676,277 207.031248,276.720834 207.002224,276.353511 C206.971881,275.966151 207.255521,275.628214 207.638104,275.597492 C218.106375,274.753316 228.578603,271.538233 237.123403,266.542633 C246.406985,261.115595 251.966316,255.713935 253.647044,250.484584 C253.765777,250.11726 254.154956,249.912895 254.521709,250.035781 C254.884503,250.154661 255.08371,250.550034 254.966297,250.920029 C253.174751,256.487318 247.405659,262.153451 237.81733,267.75814 C229.097069,272.855255 218.417718,276.137124 207.747602,276.997329 L207.692193,277" id="Fill-333" fill="#FFFFFE"></path>
                <path d="M254.31637,248 C253.949431,248 253.646251,247.71303 253.633239,247.348848 C253.487504,243.338984 250.535076,239.578771 245.098653,236.474859 C233.076846,229.609447 217.39736,229.646766 200.951465,236.577808 C200.605345,236.721936 200.201973,236.563652 200.054937,236.22006 C199.9066,235.876468 200.06925,235.480114 200.41537,235.332125 C217.26724,228.232504 233.378725,228.222209 245.781785,235.303814 C251.648905,238.653517 254.83555,242.801075 255,247.299947 C255.013814,247.673137 254.718441,247.985845 254.341093,248 L254.31637,248" id="Fill-334" fill="#FFFFFE"></path>
                <path d="M197.554275,277 L197.489954,276.997367 C191.694447,276.454969 186.593351,274.988388 182.736681,272.755604 C178.461264,270.279268 175.796513,266.932725 175.03253,263.07538 C174.926202,262.538248 175.082412,261.993217 175.473592,261.540341 C176.150938,260.755707 177.441308,260.318629 178.853757,260.391036 C180.461797,260.477925 181.737727,261.223064 182.027831,262.244668 C182.789188,264.919796 184.751653,267.190759 187.85878,268.990414 C198.629365,275.226675 219.371109,273.363827 234.095502,264.838173 C243.59672,259.33652 248.620368,253.72823 248.620368,248.62021 C248.620368,245.023532 246.076383,241.650659 241.265391,238.864945 C228.853949,231.678171 212.000379,233.19083 195.029981,243.015869 C188.906303,246.561204 184.51537,250.904337 182.667109,255.246154 C182.28643,256.141374 181.126016,256.744331 179.710941,256.783826 C178.324745,256.803574 177.117074,256.317785 176.595938,255.501555 C176.283519,255.013134 176.249389,254.440456 176.501425,253.928338 C179.000778,248.847964 184.042803,244.00851 191.081423,239.932626 C191.41222,239.740417 191.833592,239.854953 192.023931,240.185394 C192.21427,240.515836 192.10138,240.939749 191.771895,241.130641 C184.969559,245.068293 180.117873,249.706322 177.737974,254.54051 L177.757665,254.7551 C177.969007,255.086858 178.700173,255.41335 179.672873,255.400185 C180.670514,255.373855 181.282225,254.976272 181.397742,254.70244 C183.364145,250.086791 187.959857,245.511953 194.339508,241.817854 C211.748344,231.737414 229.104672,230.224755 241.955863,237.66693 C247.218419,240.713311 250,244.502198 250,248.62021 C250,254.331187 244.880526,260.190928 234.785975,266.036188 C219.680902,274.783014 198.319571,276.644545 187.16962,270.188429 C183.789455,268.230794 181.552639,265.614908 180.700706,262.62382 C180.597004,262.25915 179.833021,261.829971 178.778934,261.773361 C177.67234,261.710169 176.832221,262.081422 176.515864,262.447409 C176.351779,262.635669 176.37672,262.75942 176.385908,262.805497 C177.069818,266.26131 179.504849,269.286627 183.425841,271.557589 C187.111862,273.691636 192.01868,275.095025 197.618597,275.620308 C197.99665,275.655854 198.276252,275.992878 198.24081,276.373346 C198.207993,276.731434 197.907388,277 197.554275,277" id="Fill-335" fill="#FFFFFE"></path>
                <path d="M214.24624,270 C213.12979,270 212.054395,269.622858 211.46902,268.979342 C211.035948,268.500662 210.89424,267.904619 211.079653,267.341543 C211.328636,266.588578 212.131209,266.00704 213.225145,265.784183 C217.951849,264.830778 222.527575,263.131001 226.455679,260.873423 C232.889507,257.174528 236.53287,253.478271 236.993754,250.186849 C237.222871,248.551687 236.649415,247.016744 235.291928,245.624219 C234.827072,245.146858 234.646956,244.564002 234.784691,243.981145 C234.956861,243.249279 235.616401,242.632137 236.592467,242.287962 C238.283698,241.691919 240.390783,242.049281 241.390688,243.100268 C243.289846,245.099385 244.159962,247.308172 243.975874,249.66597 C243.707025,253.089261 241.219843,256.629914 236.580548,260.194303 C236.27859,260.429028 235.840221,260.372325 235.605806,260.069029 C235.370066,259.765733 235.427015,259.330569 235.731622,259.097162 C240.04512,255.783322 242.352186,252.573658 242.587926,249.557839 C242.740229,247.607513 241.997253,245.754769 240.378863,244.052354 C239.831895,243.476091 238.294293,243.159608 237.055999,243.594773 C236.452083,243.80708 236.184559,244.10642 236.13953,244.297628 C236.130259,244.338507 236.101123,244.463782 236.290509,244.657628 C237.963198,246.373229 238.66247,248.2985 238.372431,250.378057 C237.84268,254.161347 234.068203,258.096285 227.150978,262.072102 C223.094408,264.404845 218.374326,266.158688 213.503264,267.143741 C212.846373,267.275609 212.471574,267.5644 212.401382,267.775389 C212.389462,267.810993 212.36165,267.895388 212.503359,268.050992 C212.874185,268.458464 213.919119,268.765716 214.957431,268.540222 C220.351622,267.386378 225.540534,265.433415 229.963956,262.889683 C230.296375,262.698475 230.722825,262.810562 230.914859,263.142869 C231.106894,263.473858 230.992998,263.898472 230.660579,264.089681 C226.112665,266.704621 220.783369,268.711651 215.250118,269.895824 C214.920348,269.965714 214.581308,270 214.24624,270" id="Fill-336" fill="#FFFFFE"></path>
                <path d="M222.826346,237.396853 C215.141813,237.396853 206.621112,239.9499 198.065958,244.905736 C190.756442,249.139538 186.39273,254.53019 186.39273,259.322471 C186.39273,262.286399 188.082294,264.831467 191.278551,266.682426 C194.313139,268.440305 198.499281,269.449556 203.381126,269.601143 C204.295478,269.634386 204.98588,269.335201 205.281388,269.032027 L205.43113,268.744809 C205.413903,268.387116 204.719525,267.921717 203.623628,267.859221 C200.052355,267.654445 196.956809,266.84598 194.672254,265.522917 C192.248559,264.118742 190.785596,262.173373 190.441057,259.899566 C190.024961,257.149722 191.287827,254.012932 193.997754,251.06895 C194.924032,250.063688 197.000539,249.749876 198.53241,250.390797 C199.336775,250.724555 199.857558,251.263088 199.998023,251.907998 C200.113311,252.433234 199.955619,252.96113 199.556749,253.394616 C197.689616,255.423756 196.799117,257.455556 197.050895,259.117695 C197.231115,260.303798 197.982474,261.289115 199.285094,262.044391 C204.22657,264.907261 214.924489,263.370114 223.127154,258.619054 C228.765658,255.351952 231.871805,252.102136 231.871805,249.466647 C231.871805,247.998646 230.917698,246.702177 229.038639,245.613143 C223.734072,242.540179 215.677173,243.436404 206.933847,248.074439 C205.714711,248.720679 203.908535,248.694085 202.730478,248.011943 C202.021524,247.601062 201.622655,246.989394 201.634581,246.333846 C201.646507,245.658353 202.089107,245.040037 202.847091,244.635804 C212.398757,239.553646 221.783454,237.995224 229.277165,240.251745 C230.555933,240.637361 231.985768,240.287647 232.469447,239.733157 C232.644366,239.531041 232.607262,239.407378 232.59401,239.360838 C232.525103,239.125479 232.159362,238.799699 231.498113,238.604232 C228.770959,237.795767 225.863584,237.396853 222.826346,237.396853 Z M203.50304,271 L203.338721,270.99867 C198.226301,270.839105 193.814884,269.766027 190.582848,267.892464 C186.93074,265.776892 185,262.812965 185,259.322471 C185,254.024899 189.623441,248.182146 197.36893,243.695698 C209.639799,236.587059 221.900067,234.302614 231.891682,237.262553 C232.965052,237.580354 233.70846,238.202659 233.931085,238.969903 C234.100704,239.552316 233.954937,240.149357 233.518964,240.649329 L233.518964,240.650658 C232.616538,241.689163 230.578461,242.104033 228.876971,241.590764 C221.738399,239.44195 212.726069,240.961811 203.500389,245.869777 C203.154526,246.054607 203.028637,246.248745 203.027311,246.357781 C203.024661,246.486763 203.182354,246.659626 203.426181,246.801905 C204.185491,247.24204 205.494737,247.257996 206.2832,246.839137 C215.458524,241.972392 224.007052,241.084144 229.735667,244.403105 C232.044074,245.740795 233.26321,247.490696 233.26321,249.466647 C233.26321,252.712474 230.086831,256.198978 223.822857,259.829091 C215.235899,264.802213 203.916486,266.34202 198.589391,263.254429 C196.925006,262.289058 195.916568,260.932752 195.674066,259.32779 C195.35338,257.2069 196.341941,254.828045 198.533735,252.446531 C198.659624,252.309571 198.643722,252.232448 198.638422,252.207183 C198.606618,252.064904 198.397245,251.845502 197.9997,251.680617 C196.931631,251.237823 195.496496,251.502436 195.020768,252.017035 C192.603698,254.643215 191.465396,257.367795 191.817886,259.689472 C192.100142,261.556387 193.295426,263.11215 195.367957,264.312879 C197.465666,265.528236 200.347862,266.271545 203.703137,266.464353 C205.481485,266.565411 206.764228,267.453659 206.819885,268.625135 C206.846388,269.161009 206.656891,269.622419 206.275249,270.012024 C205.664356,270.635659 204.636041,271 203.50304,271 L203.50304,271 Z" id="Fill-337" fill="#FFFFFE"></path>
                <path d="M207.677803,262 C206.028826,262 204.65231,261.706298 203.661891,261.12154 C202.574624,260.477247 202,259.519408 202,258.351215 C202,255.865331 204.613571,252.835702 208.991045,250.245303 C216.094433,246.043511 222.300374,244.895163 226.01929,247.093959 C227.616616,248.038569 227.978177,249.222638 227.998838,250.050825 C228.053072,252.078956 226.209109,254.357132 222.518602,256.821848 C221.366771,257.5905 219.43371,257.627544 218.204401,256.899904 C217.541969,256.508301 217.153291,255.923543 217.137795,255.297772 C217.1223,254.681262 217.451579,254.117672 218.064942,253.70887 C221.028453,251.73895 221.02587,250.925316 221.024579,250.917378 C220.198153,250.434489 217.702089,250.852552 213.181282,253.527622 C210.044738,255.382443 208.748283,256.972668 208.750865,257.411898 C208.754739,257.795562 208.452577,258.109109 208.078103,258.110432 L208.072938,258.110432 C207.701046,258.110432 207.397593,257.8035 207.395011,257.421159 C207.380806,255.502834 211.301164,253.034149 212.502064,252.323708 C215.606325,250.487409 219.711337,248.534687 221.643107,249.681713 C222.10668,249.95557 222.368812,250.382893 222.381725,250.88298 C222.398512,251.564316 222.047281,252.71928 218.80356,254.874418 C218.609866,255.00407 218.491068,255.152244 218.49365,255.262052 C218.496233,255.357306 218.599536,255.529294 218.882329,255.69599 C219.670016,256.160356 221.050405,256.141835 221.77611,255.657623 C226.063194,252.79469 226.664935,250.939869 226.642983,250.087868 C226.624905,249.399917 226.185866,248.79796 225.340071,248.297873 C223.785358,247.3784 219.145752,245.845064 209.670264,251.449217 C205.835132,253.718131 203.357146,256.427599 203.357146,258.351215 C203.357146,259.014029 203.678677,259.5247 204.341109,259.916303 C205.990087,260.892664 209.228643,260.837099 213.005667,259.770775 C213.364645,259.667582 213.741702,259.885874 213.841131,260.256309 C213.940561,260.626744 213.727498,261.009086 213.367228,261.110956 C211.270173,261.703652 209.33582,262 207.677803,262" id="Fill-338" fill="#FFFFFE"></path>
                <path d="M195.562066,238 L195.343416,237.942841 L177.218996,227.791385 C177.00951,227.674527 176.9375,227.415405 177.059263,227.212173 C177.177099,227.00767 177.445502,226.94035 177.656297,227.057208 L195.780717,237.208664 C195.991512,237.325523 196.062213,237.584644 195.94045,237.787876 C195.860583,237.923788 195.713943,238 195.562066,238" id="Fill-339" fill="#FFFFFE"></path>
            </g>
        </g>
    </g>
</svg>