<?xml version="1.0" encoding="UTF-8"?>
<svg width="29px" height="27px" viewBox="0 0 29 27" version="1.1" xmlns="http://www.w3.org/2000/svg" xmlns:xlink="http://www.w3.org/1999/xlink">
    <!-- Generator: Sketch 61.2 (89653) - https://sketch.com -->
    <title>signature</title>
    <desc>Created with Sketch.</desc>
    <g id="wireframe" stroke="none" stroke-width="1" fill="none" fill-rule="evenodd">
        <g id="Identity-Copy-2" transform="translate(-25.000000, -441.000000)">
            <g id="Group-5" transform="translate(16.000000, 425.000000)">
                <rect id="Rectangle" stroke="#ECECEC" x="0.5" y="0.5" width="382" height="51"></rect>
                <g id="Group-2" transform="translate(9.000000, 16.000000)" fill="#9B9B9B" fill-rule="nonzero">
                    <g id="signature">
                        <path d="M15.4762658,2.54611105 L9.25200335,0.0621348106 C9.04423206,-0.0207116035 8.81073671,-0.0207116035 8.60296542,0.0621348106 C8.39519413,0.145035693 8.23005129,0.304083378 8.14400288,0.504309163 L5.61490333,6.38678584 L1.19528293,11.520649 C1.01691057,11.7279012 0.955964327,12.0064526 1.03223194,12.2653953 L3.43141083,20.4060767 C3.50219441,20.6463368 3.68316744,20.8422051 3.92265565,20.9377971 C4.02685225,20.979411 4.13715477,21 4.24717462,21 C4.38998558,21 4.53234425,20.9652492 4.66028613,20.8965645 L12.3315979,16.7747239 C12.575609,16.6436185 12.7369639,16.4051015 12.7629141,16.1370626 L13.4060723,9.49595021 L15.9352283,3.61363694 C16.1144488,3.19679039 15.9089955,2.7188303 15.4762658,2.54611105 Z M11.1155563,15.5570287 L5.9639591,18.3249487 L8.15915464,13.2190822 C8.33837504,12.8022357 8.13292175,12.3242211 7.7001921,12.1515563 C7.26751899,11.9788916 6.7713555,12.1768297 6.5921351,12.5937307 L4.39688302,17.6997061 L2.78576508,12.2327687 L6.60276394,7.79898767 L9.13689523,8.81019324 L11.6710265,9.82145328 L11.1155563,15.5570287 Z M12.1145546,8.22972366 L8.80005133,6.90712232 L7.45731171,6.37131682 L9.38639039,1.88448358 L14.0436333,3.74305382 L12.1145546,8.22972366 Z" id="Shape"></path>
                        <path d="M28.1503906,15 L19.050168,15 C17.0762988,15 15.4704238,16.5270377 15.4704238,18.4040036 C15.4704238,20.2809156 17.0762988,21.8078995 19.050168,21.8078995 C20.0870312,21.8078995 20.9305801,22.6100359 20.9305801,23.5959964 C20.9305801,24.5820646 20.0870312,25.3842011 19.050168,25.3842011 L0.849609375,25.3842011 C0.380398437,25.3842011 0,25.7459246 0,26.1921005 C0,26.6382765 0.380398438,27 0.849609375,27 L19.050168,27 C21.0239805,27 22.6297988,25.4729623 22.6297988,23.5959964 C22.6297988,21.7190844 21.0239805,20.1921005 19.050168,20.1921005 C18.013248,20.1921005 17.1696426,19.3899102 17.1696426,18.4040036 C17.1696426,17.4179354 18.013248,16.6157989 19.050168,16.6157989 L28.1503906,16.6157989 C28.6196016,16.6157989 29,16.2540754 29,15.8078995 C29,15.3617235 28.6196016,15 28.1503906,15 Z" id="Path"></path>
                    </g>
                </g>
            </g>
        </g>
    </g>
</svg>