<svg id="Guide" height="512" viewBox="0 0 512 512" width="512" xmlns="http://www.w3.org/2000/svg"><g fill="rgb(0,0,0)"><path d="m196.187 169.439a6 6 0 0 0 -6 6v213.661a6 6 0 1 0 12 0v-213.661a6 6 0 0 0 -6-6z"/><path d="m259.511 169.439a6 6 0 0 0 -6 6v213.661a6 6 0 1 0 12 0v-213.661a6 6 0 0 0 -6-6z"/><path d="m315.813 169.439a6 6 0 0 0 -6 6v213.661a6 6 0 1 0 12 0v-213.661a6 6 0 0 0 -6-6z"/><path d="m56 77.77h33.036l31.392 394.912.017.187c1.844 16.607 15.167 29.131 30.992 29.131h211.331c15.917 0 29.249-12.605 31.011-29.322l.01-.093 29.194-394.815h33.017a6 6 0 0 0 0-12h-126.989v-24.2a31.425 31.425 0 0 0 -31.203-31.57h-83.616a31.425 31.425 0 0 0 -31.2 31.571v24.2h-126.992a6 6 0 0 0 0 12zm325.835 393.738c-1.152 10.549-9.335 18.492-19.067 18.492h-211.331c-9.675 0-17.852-7.89-19.055-18.368l-31.309-393.862h309.876zm-186.846-429.937a19.412 19.412 0 0 1 19.203-19.571h83.616a19.412 19.412 0 0 1 19.2 19.571v24.2h-122.019z"/></g></svg>