<?xml version="1.0" encoding="UTF-8"?>
<svg width="152px" height="156px" viewBox="0 0 152 156" version="1.1" xmlns="http://www.w3.org/2000/svg" xmlns:xlink="http://www.w3.org/1999/xlink">
    <!-- Generator: Sketch 62 (91390) - https://sketch.com -->
    <title>Group 6</title>
    <desc>Created with Sketch.</desc>
    <g id="Page-1" stroke="none" stroke-width="1" fill="none" fill-rule="evenodd">
        <g id="face-ID" transform="translate(-131.000000, -218.000000)" fill-rule="nonzero">
            <g id="Group-6" transform="translate(131.000000, 218.000000)">
                <g id="Group-5" transform="translate(19.000000, 10.000000)" stroke="#FFFFFF" stroke-width="4">
                    <path d="M111.682346,64.5517241 C111.366004,67.262358 110.327737,69.8361281 108.677688,72 L104.293844,72 C100.746898,67.8954406 98.9735904,62.5324809 99.3681763,57.1034483 C99.3681763,42.2068966 96.9053424,24.8275862 82.128339,29.7931034 C67.3513356,34.7586207 67.3513356,34.7586207 57.5,34.7586207 C47.6486644,34.7586207 47.6486644,34.7586207 32.871661,29.7931034 C18.0946576,24.8275862 15.6318237,42.2068966 15.6318237,57.1034483 C16.0264096,62.5324809 14.2531025,67.8954406 10.7061559,72 L6.32231161,72 C4.67226279,69.8361281 3.63399613,67.262358 3.31765425,64.5517241 C-0.573623308,44.9131034 -1.60801355,49.6551724 3.31765425,32.2758621 C8.24332205,14.8965517 13.1689898,14.8965517 18.0946576,12.4137931 C27.1825147,7.84551724 23.0203254,0 57.5,0 C91.9796746,0 87.8174853,7.84551724 96.9053424,12.4137931 C101.83101,14.8965517 106.756678,14.8965517 111.682346,32.2758621 C116.608014,49.6551724 115.573623,44.9131034 111.682346,64.5517241 Z" id="Shape"></path>
                    <path d="M99.0526316,99.3383649 C98.39626,100.724154 97.826218,102.149447 97.3457895,103.606032 C92.6705263,117.327079 87.9705263,144 57,144 C26.0294737,144 21.3294737,117.327079 16.6542105,103.606032 C16.173782,102.149447 15.60374,100.724154 14.9473684,99.3383649 C11.5089474,92.4406235 10.3215789,78.5210805 10,72.0451435 C13.562573,67.9431576 15.3436927,62.5835604 14.9473684,57.1579318 C14.9473684,42.2707201 17.4210526,24.9023064 32.2631579,29.8647103 C47.1052632,34.8271142 47.1052632,34.8271142 57,34.8271142 C66.8947368,34.8271142 66.8947368,34.8271142 81.7368421,29.8647103 C96.5789474,24.9023064 99.0526316,42.2707201 99.0526316,57.1579318 C98.6563073,62.5835604 100.437427,67.9431576 104,72.0451435 C103.678421,78.5210805 102.491053,92.4406235 99.0526316,99.3383649 Z" id="Shape"></path>
                    <path d="M17,104.313471 C9.66170304,107.513747 6.50647438,98.9714717 3.25563273,90.1584035 C-1.76404922,76.5449212 2.70585804,73.5662027 5.93279645,73 L10.5700264,73 C10.8807687,79.4251698 12.0281245,93.2355921 15.3506759,100.07926 C15.9849288,101.454185 16.5357612,102.868304 17,104.313471 Z" id="Shape"></path>
                    <path d="M110.744367,90.1584035 C107.517429,98.9714717 104.338297,107.513747 97,104.313471 C97.4642388,102.868304 98.0150712,101.454185 98.6493241,100.07926 C101.971875,93.2355921 103.119231,79.4251698 103.429974,73 L108.067204,73 C111.294142,73.5662027 115.764049,76.5449212 110.744367,90.1584035 L110.744367,90.1584035 Z" id="Shape"></path>
                </g>
                <path d="M144.395285,0 L134.499428,0 C133.119249,0 132,1.11924911 132,2.50057214 C132,3.88075082 133.119249,5 134.499428,5 L144.395285,5 C145.832685,5.00114428 146.998856,6.1673151 147,7.60471496 L147,17.5005722 C147,18.8807506 148.119249,20 149.499428,20 C150.880751,20 152,18.8807506 152,17.5005722 L152,7.60471496 C151.995422,3.40695804 148.593042,0.00457770657 144.395285,0 L144.395285,0 Z" id="Path" fill="#FFFFFF"></path>
                <path d="M149.499428,132 C148.119249,132 147,133.119249 147,134.499428 L147,144.395285 C146.998856,145.832685 145.832685,146.998856 144.395285,147 L134.499428,147 C133.119249,147 132,148.119249 132,149.499428 C132,150.880751 133.119249,152 134.499428,152 L144.395285,152 C148.593042,151.995422 151.995422,148.593042 152,144.395285 L152,134.499428 C152,133.119249 150.880751,132 149.499428,132 L149.499428,132 Z" id="Path" fill="#FFFFFF"></path>
                <path d="M2.50057214,20 C3.88075082,20 5,18.8807506 5,17.5005722 L5,7.60471496 C5.00114428,6.1673151 6.1673151,5.00114428 7.60471496,5 L17.5005722,5 C18.8807506,5 20,3.88075082 20,2.50057214 C20,1.11924911 18.8807506,0 17.5005722,0 L7.60471496,0 C3.40695804,0.00457770657 0.00457770657,3.40695804 0,7.60471496 L0,17.5005722 C0,18.8807506 1.11924911,20 2.50057214,20 Z" id="Path" fill="#FFFFFF"></path>
                <path d="M7.60471496,152 L17.5005722,152 C18.8807506,152 20,150.852045 20,149.435296 C20,148.019719 18.8807506,146.871765 17.5005722,146.871765 L7.60471496,146.871765 C6.1673151,146.870591 5.00114428,145.674512 5,144.200247 L5,134.563531 C5,133.147955 3.88075082,132 2.50057214,132 C1.11924911,132 0,133.147955 0,134.563531 L0,144.200247 C0.00457770657,148.505664 3.40695804,151.995305 7.60471496,152 Z" id="Path" fill="#FFFFFF"></path>
            </g>
        </g>
    </g>
</svg>