<?xml version="1.0" encoding="UTF-8"?>
<svg width="70px" height="70px" viewBox="0 0 70 70" version="1.1" xmlns="http://www.w3.org/2000/svg" xmlns:xlink="http://www.w3.org/1999/xlink">
    <!-- Generator: Sketch 62 (91390) - https://sketch.com -->
    <title>Group 5</title>
    <desc>Created with Sketch.</desc>
    <g id="Page-1" stroke="none" stroke-width="1" fill="none" fill-rule="evenodd">
        <g id="Login-page-Copy-3" transform="translate(-172.000000, -713.000000)" fill="#0091FF" fill-rule="nonzero" stroke="#FFFFFF">
            <g id="Group-5" transform="translate(172.000000, 713.000000)">
                <path d="M48.8546201,44.5523659 C45.4301479,48.3110636 40.8613723,50.2929687 35.6465225,50.2929688 C30.4606325,50.2929687 25.8228239,48.3297621 22.2354553,44.6137622 C20.4328956,42.7469519 19.3248972,40.8792535 18.7704614,39.8006124 L24.1784284,37.594554 C24.8423013,38.7723636 26.2741129,40.8836151 28.6906941,42.4547093 C30.458074,43.6037377 32.7483714,44.4692714 35.6467178,44.4692714 C38.5122458,44.4692714 40.7268688,43.6143889 42.4091888,42.4831772 C44.6953211,40.9459549 45.9931377,38.8851638 46.592836,37.7151651 L52.0935283,39.6852272 C51.5911949,40.7775879 50.5730507,42.6661282 48.8546201,44.5523659 Z" id="Path" stroke-width="2"></path>
                <path d="M20.9188672,22.2929688 C20.9188672,21.3264438 21.3106011,20.4514416 21.9439706,19.8180721 C22.5773401,19.1847027 23.4523422,18.7929687 24.4188672,18.7929688 C25.3853922,18.7929687 26.2603943,19.1847027 26.8937638,19.8180721 C27.5271333,20.4514416 27.9188672,21.3264437 27.9188672,22.2929688 C27.9188672,23.2594938 27.5271333,24.1344959 26.8937638,24.7678654 C26.2603943,25.4012348 25.3853922,25.7929688 24.4188672,25.7929688 C23.4523422,25.7929688 22.5773401,25.4012348 21.9439706,24.7678654 C21.3106011,24.1344959 20.9188672,23.2594937 20.9188672,22.2929688 Z" id="Path"></path>
                <path d="M43.9188672,22.2929688 C43.9188672,21.3264438 44.3106011,20.4514416 44.9439706,19.8180721 C45.5773401,19.1847027 46.4523422,18.7929688 47.4188672,18.7929688 C48.3853922,18.7929688 49.2603943,19.1847027 49.8937638,19.8180721 C50.5271333,20.4514416 50.9188672,21.3264438 50.9188672,22.2929688 C50.9188672,23.2594937 50.5271333,24.1344959 49.8937638,24.7678654 C49.2603943,25.4012348 48.3853922,25.7929687 47.4188672,25.7929688 C46.4523422,25.7929688 45.5773401,25.4012348 44.9439706,24.7678654 C44.3106011,24.1344959 43.9188672,23.2594938 43.9188672,22.2929688 Z" id="Path"></path>
                <path d="M4.96875,8.203125 L4.96875,18.640625 L0.5,18.640625 L0.5,8.203125 C0.5,6.07937344 1.36411386,4.15371558 2.75891472,2.75891472 C4.15371558,1.36411386 6.07937344,0.5 8.203125,0.5 L18.7773438,0.5 L18.7773438,4.96875 L8.203125,4.96875 C7.31140781,4.96875 6.50269067,5.33127676 5.91698372,5.91698372 C5.33127676,6.50269067 4.96875,7.31140781 4.96875,8.203125 Z" id="Path"></path>
                <path d="M51.2226562,0.5 L61.796875,0.5 C63.9206266,0.5 65.8462844,1.36411386 67.2410853,2.75891472 C68.6358861,4.15371558 69.5,6.07937344 69.5,8.203125 L69.5,18.640625 L65.03125,18.640625 L65.03125,8.203125 C65.03125,7.31140781 64.6687232,6.50269067 64.0830163,5.91698372 C63.4973093,5.33127676 62.6885922,4.96875 61.796875,4.96875 L51.2226562,4.96875 L51.2226562,0.5 Z" id="Path"></path>
                <path d="M18.7773438,65.03125 L18.7773438,69.5 L8.203125,69.5 C6.07937344,69.5 4.15371558,68.6358861 2.75891472,67.2410853 C1.36411386,65.8462844 0.5,63.9206266 0.5,61.796875 L0.5,51.359375 L4.96875,51.359375 L4.96875,61.796875 C4.96875,62.6885922 5.33127676,63.4973093 5.91698372,64.0830163 C6.50269067,64.6687232 7.31140781,65.03125 8.203125,65.03125 L18.7773438,65.03125 Z" id="Path"></path>
                <path d="M65.03125,61.796875 L65.03125,51.359375 L69.5,51.359375 L69.5,61.796875 C69.5,63.9206266 68.6358861,65.8462844 67.2410853,67.2410853 C65.8462844,68.6358861 63.9206266,69.5 61.796875,69.5 L51.2226562,69.5 L51.2226562,65.03125 L61.796875,65.03125 C62.6885922,65.03125 63.4973093,64.6687232 64.0830163,64.0830163 C64.6687232,63.4973093 65.03125,62.6885922 65.03125,61.796875 Z" id="Path"></path>
            </g>
        </g>
    </g>
</svg>