<?xml version="1.0" encoding="UTF-8"?>
<svg width="28px" height="26px" viewBox="0 0 28 26" version="1.1" xmlns="http://www.w3.org/2000/svg" xmlns:xlink="http://www.w3.org/1999/xlink">
    <!-- Generator: Sketch 61.2 (89653) - https://sketch.com -->
    <title>photo</title>
    <desc>Created with Sketch.</desc>
    <g id="wireframe" stroke="none" stroke-width="1" fill="none" fill-rule="evenodd">
        <g id="Identity-Copy-2" transform="translate(-25.000000, -295.000000)">
            <g id="Group-Copy" transform="translate(16.000000, 279.000000)">
                <rect id="Rectangle" stroke="#ECECEC" x="0.5" y="0.5" width="382" height="51"></rect>
                <g id="Group-2" transform="translate(9.000000, 16.000000)" fill-rule="nonzero">
                    <g id="photo">
                        <circle id="Oval" fill-opacity="0.25" fill="#000000" cx="11" cy="8" r="2"></circle>
                        <path d="M26.3435115,15.8577586 C25.4351145,14.9612069 24.2862595,14.3728448 23.0305344,14.2047414 L23.0305344,3.95043103 C23.0305344,2.85775862 22.6030534,1.87715517 21.9351145,1.1487069 C21.240458,0.420258621 20.3053435,0 19.2633588,0 L3.76717557,0 C2.72519084,0 1.79007634,0.448275862 1.09541985,1.1487069 C0.400763359,1.87715517 0,2.85775862 0,3.95043103 L0,16.8663793 L0,18.0711207 L0,20.6767241 C0,21.7693966 0.427480916,22.75 1.09541985,23.4784483 C1.79007634,24.2068966 2.72519084,24.6271552 3.76717557,24.6271552 L18.7557252,24.6271552 C19.7442748,25.4676724 20.9732824,26 22.3358779,26 C23.9122137,26 25.3282443,25.3275862 26.3435115,24.262931 C27.3587786,23.1982759 28,21.7133621 28,20.0603448 C28,18.4073276 27.3587786,16.9224138 26.3435115,15.8577586 Z M1.41603053,3.95043103 C1.41603053,3.27801724 1.68320611,2.66163793 2.11068702,2.24137931 C2.53816794,1.79310345 3.1259542,1.51293103 3.76717557,1.51293103 L19.2633588,1.51293103 C19.9045802,1.51293103 20.4923664,1.79310345 20.9198473,2.24137931 C21.3473282,2.68965517 21.6145038,3.30603448 21.6145038,3.97844828 L21.6145038,12.7198276 L17.6603053,8.57327586 C17.3931298,8.29310345 16.9389313,8.26508621 16.6450382,8.57327586 L10.6870229,14.8491379 L6.65267176,10.5905172 C6.38549618,10.3103448 5.93129771,10.2823276 5.63740458,10.5905172 L1.41603053,15.0732759 L1.41603053,3.95043103 Z M3.74045802,23.1982759 L3.74045802,23.1422414 C3.09923664,23.1422414 2.51145038,22.862069 2.08396947,22.4137931 C1.68320611,21.9655172 1.41603053,21.3491379 1.41603053,20.6767241 L1.41603053,18.0711207 L1.41603053,17.2025862 L6.14503817,12.2155172 L10.1793893,16.4461207 C10.4465649,16.7262931 10.9007634,16.7262931 11.1946565,16.4461207 L17.1526718,10.1702586 L21.0534351,14.2887931 C20.9732824,14.3168103 20.8931298,14.3448276 20.8129771,14.3728448 C20.7061069,14.4008621 20.5992366,14.4288793 20.4656489,14.4849138 C20.3587786,14.512931 20.2519084,14.5689655 20.1450382,14.5969828 C20.0648855,14.625 20.0114504,14.6530172 19.9312977,14.7090517 C19.8244275,14.7650862 19.7442748,14.7931034 19.6641221,14.8491379 C19.5305344,14.9331897 19.3969466,15.0172414 19.2633588,15.1012931 C19.1832061,15.1573276 19.129771,15.1853448 19.0496183,15.2413793 C18.9961832,15.2693966 18.9694656,15.2974138 18.9160305,15.325431 C18.6755725,15.4935345 18.4618321,15.6896552 18.2748092,15.9137931 C17.259542,16.9784483 16.6183206,18.4633621 16.6183206,20.1163793 C16.6183206,20.5366379 16.6717557,20.9288793 16.7519084,21.3491379 C16.778626,21.4612069 16.8053435,21.5452586 16.8320611,21.6573276 C16.9122137,21.9375 16.9923664,22.2176724 17.0992366,22.4978448 L17.0992366,22.5258621 C17.2061069,22.75 17.3129771,23.0021552 17.4465649,23.1982759 L3.74045802,23.1982759 L3.74045802,23.1982759 Z M25.3015267,23.1982759 C24.5267176,24.0107759 23.4847328,24.487069 22.3091603,24.487069 C21.1870229,24.487069 20.1450382,24.0107759 19.3969466,23.2543103 C19.2900763,23.1422414 19.1832061,23.0021552 19.0763359,22.8900862 C18.9961832,22.8060345 18.9160305,22.6939655 18.8358779,22.6099138 C18.7290076,22.4698276 18.648855,22.3017241 18.5687023,22.1336207 C18.5152672,22.0215517 18.4618321,21.9375 18.4083969,21.825431 C18.3549618,21.6853448 18.3015267,21.5172414 18.2748092,21.3491379 C18.2480916,21.237069 18.1946565,21.0969828 18.1679389,20.9849138 C18.1145038,20.7047414 18.0877863,20.3965517 18.0877863,20.0883621 C18.0877863,18.8556034 18.5687023,17.762931 19.3167939,16.950431 C20.0648855,16.137931 21.1335878,15.6616379 22.3091603,15.6616379 C23.4847328,15.6616379 24.5267176,16.1659483 25.3015267,16.950431 C26.0763359,17.762931 26.5305344,18.8556034 26.5305344,20.0883621 C26.5305344,21.2931034 26.0496183,22.3857759 25.3015267,23.1982759 Z" id="Shape" fill="#9B9B9B"></path>
                        <path d="M23.0367232,17.209607 C22.980226,17.1572052 22.8954802,17.1048035 22.7824859,17.0524017 C22.6977401,17.0262009 22.6129944,17 22.5282486,17 C22.5,17 22.5,17 22.5,17 C22.4717514,17 22.4717514,17 22.4717514,17 C22.3870056,17 22.3022599,17.0262009 22.2175141,17.0524017 C22.1327684,17.0786026 22.0480226,17.1310044 21.9632768,17.209607 L20.2118644,18.8340611 C19.9293785,19.0960699 19.9293785,19.5414847 20.2118644,19.8296943 C20.4943503,20.0917031 20.9745763,20.0917031 21.2853107,19.8296943 L21.7372881,19.4104803 L21.7372881,22.2925764 C21.7372881,22.6855895 22.0762712,23 22.5,23 C22.9237288,23 23.2627119,22.6855895 23.2627119,22.2925764 L23.2627119,19.4104803 L23.7146893,19.8296943 C23.9971751,20.0917031 24.4774011,20.0917031 24.7881356,19.8296943 C25.0706215,19.5676856 25.0706215,19.1222707 24.7881356,18.8340611 L23.0367232,17.209607 Z" id="Path" fill-opacity="0.25" fill="#000000"></path>
                    </g>
                </g>
            </g>
        </g>
    </g>
</svg>