<?xml version="1.0" encoding="UTF-8"?>
<svg width="216px" height="145px" viewBox="0 0 216 145" version="1.1" xmlns="http://www.w3.org/2000/svg" xmlns:xlink="http://www.w3.org/1999/xlink">
    <!-- Generator: Sketch 62 (91390) - https://sketch.com -->
    <title>Group 26</title>
    <desc>Created with Sketch.</desc>
    <defs>
        <circle id="path-1" cx="197" cy="52" r="7"></circle>
        <filter x="-64.3%" y="-64.3%" width="228.6%" height="228.6%" filterUnits="objectBoundingBox" id="filter-2">
            <feOffset dx="0" dy="0" in="SourceAlpha" result="shadowOffsetOuter1"></feOffset>
            <feGaussianBlur stdDeviation="3" in="shadowOffsetOuter1" result="shadowBlurOuter1"></feGaussianBlur>
            <feComposite in="shadowBlurOuter1" in2="SourceAlpha" operator="out" result="shadowBlurOuter1"></feComposite>
            <feColorMatrix values="0 0 0 0 0   0 0 0 0 0   0 0 0 0 0  0 0 0 0.5 0" type="matrix" in="shadowBlurOuter1"></feColorMatrix>
        </filter>
        <circle id="path-3" cx="7" cy="89" r="7"></circle>
        <filter x="-64.3%" y="-64.3%" width="228.6%" height="228.6%" filterUnits="objectBoundingBox" id="filter-4">
            <feOffset dx="0" dy="0" in="SourceAlpha" result="shadowOffsetOuter1"></feOffset>
            <feGaussianBlur stdDeviation="3" in="shadowOffsetOuter1" result="shadowBlurOuter1"></feGaussianBlur>
            <feComposite in="shadowBlurOuter1" in2="SourceAlpha" operator="out" result="shadowBlurOuter1"></feComposite>
            <feColorMatrix values="0 0 0 0 0   0 0 0 0 0   0 0 0 0 0  0 0 0 0.5 0" type="matrix" in="shadowBlurOuter1"></feColorMatrix>
        </filter>
        <path d="M0.689396958,0.5 L0.689396958,13.5" id="path-5"></path>
        <filter x="-700.0%" y="-35.7%" width="1500.0%" height="200.0%" filterUnits="objectBoundingBox" id="filter-6">
            <feMorphology radius="0.5" operator="dilate" in="SourceAlpha" result="shadowSpreadOuter1"></feMorphology>
            <feOffset dx="0" dy="2" in="shadowSpreadOuter1" result="shadowOffsetOuter1"></feOffset>
            <feMorphology radius="1" operator="erode" in="SourceAlpha" result="shadowInner"></feMorphology>
            <feOffset dx="0" dy="2" in="shadowInner" result="shadowInner"></feOffset>
            <feComposite in="shadowOffsetOuter1" in2="shadowInner" operator="out" result="shadowOffsetOuter1"></feComposite>
            <feGaussianBlur stdDeviation="2" in="shadowOffsetOuter1" result="shadowBlurOuter1"></feGaussianBlur>
            <feColorMatrix values="0 0 0 0 0   0 0 0 0 0   0 0 0 0 0  0 0 0 0.5 0" type="matrix" in="shadowBlurOuter1"></feColorMatrix>
        </filter>
        <path d="M0.689396958,0.5 L0.689396958,13.5" id="path-7"></path>
        <filter x="-700.0%" y="-35.7%" width="1500.0%" height="200.0%" filterUnits="objectBoundingBox" id="filter-8">
            <feMorphology radius="0.5" operator="dilate" in="SourceAlpha" result="shadowSpreadOuter1"></feMorphology>
            <feOffset dx="0" dy="2" in="shadowSpreadOuter1" result="shadowOffsetOuter1"></feOffset>
            <feMorphology radius="1" operator="erode" in="SourceAlpha" result="shadowInner"></feMorphology>
            <feOffset dx="0" dy="2" in="shadowInner" result="shadowInner"></feOffset>
            <feComposite in="shadowOffsetOuter1" in2="shadowInner" operator="out" result="shadowOffsetOuter1"></feComposite>
            <feGaussianBlur stdDeviation="2" in="shadowOffsetOuter1" result="shadowBlurOuter1"></feGaussianBlur>
            <feColorMatrix values="0 0 0 0 0   0 0 0 0 0   0 0 0 0 0  0 0 0 0.5 0" type="matrix" in="shadowBlurOuter1"></feColorMatrix>
        </filter>
        <ellipse id="path-9" cx="122.5" cy="80" rx="68.5" ry="9"></ellipse>
        <filter x="-31.0%" y="-152.8%" width="162.0%" height="711.1%" filterUnits="objectBoundingBox" id="filter-10">
            <feOffset dx="0" dy="40" in="SourceAlpha" result="shadowOffsetOuter1"></feOffset>
            <feGaussianBlur stdDeviation="7.5" in="shadowOffsetOuter1" result="shadowBlurOuter1"></feGaussianBlur>
            <feColorMatrix values="0 0 0 0 0   0 0 0 0 0   0 0 0 0 0  0 0 0 0.14996722 0" type="matrix" in="shadowBlurOuter1"></feColorMatrix>
        </filter>
    </defs>
    <g id="Page-1" stroke="none" stroke-width="1" fill="none" fill-rule="evenodd">
        <g id="OTP" transform="translate(-101.000000, -148.000000)">
            <g id="Group-26" transform="translate(107.000000, 149.000000)">
                <g id="Group-24">
                    <circle id="Oval" fill-opacity="0.5" fill="#3777A7" cx="30" cy="16" r="7"></circle>
                    <circle id="Oval-Copy-3" fill-opacity="0.5" fill="#3777A7" cx="55" cy="56" r="5"></circle>
                    <g id="Oval-Copy-4" opacity="0.300000012">
                        <use fill="black" fill-opacity="1" filter="url(#filter-2)" xlink:href="#path-1"></use>
                        <circle stroke-opacity="0.350005463" stroke="#2A2A2A" stroke-width="3" stroke-linejoin="square" fill-opacity="0.5" fill="#FFFFFF" fill-rule="evenodd" cx="197" cy="52" r="5.5"></circle>
                    </g>
                    <g id="Oval-Copy-5" opacity="0.300000012">
                        <use fill="black" fill-opacity="1" filter="url(#filter-4)" xlink:href="#path-3"></use>
                        <circle stroke-opacity="0.350005463" stroke="#2A2A2A" stroke-width="3" stroke-linejoin="square" fill-opacity="0.5" fill="#FFFFFF" fill-rule="evenodd" cx="7" cy="89" r="5.5"></circle>
                    </g>
                    <g id="Group-23" transform="translate(103.000000, 0.000000)" stroke-linecap="square">
                        <g id="Group-2" transform="translate(4.000000, 7.000000) rotate(17.000000) translate(-4.000000, -7.000000) translate(3.000000, 0.000000)">
                            <g id="Line-5">
                                <use fill="black" fill-opacity="1" filter="url(#filter-6)" xlink:href="#path-5"></use>
                                <use stroke-opacity="0.439767264" stroke="#AFAFAF" stroke-width="1" xlink:href="#path-5"></use>
                            </g>
                        </g>
                        <g id="Group-2" transform="translate(4.000000, 7.000000) rotate(-19.000000) translate(-4.000000, -7.000000) translate(3.000000, 0.000000)">
                            <g id="Line-5">
                                <use fill="black" fill-opacity="1" filter="url(#filter-8)" xlink:href="#path-7"></use>
                                <use stroke-opacity="0.439767264" stroke="#AFAFAF" stroke-width="1" xlink:href="#path-7"></use>
                            </g>
                        </g>
                    </g>
                </g>
                <g id="Oval">
                    <use fill="black" fill-opacity="1" filter="url(#filter-10)" xlink:href="#path-9"></use>
                    <use fill="#FFFFFF" fill-rule="evenodd" xlink:href="#path-9"></use>
                </g>
                <g id="Group-25" transform="translate(59.946594, 7.000000)" fill-rule="nonzero">
                    <g id="Group-6" transform="translate(25.053406, 0.000000)">
                        <path d="M58.3904063,0.00618666667 L8.35157812,0.00618666667 C3.73905469,0.00618666667 0,3.74499556 0,8.35664 L0,49.8797422 C0,54.4552978 3.68104687,58.16936 8.24329688,58.22736 L8.24329688,58.2299378 L10.5703125,59.5466667 L23.8476562,59.5466667 L26.9628047,58.2301956 L58.3896328,58.2301956 C63.0021562,58.2301956 66.7412109,54.4916444 66.7412109,49.8797422 L66.7412109,8.35664 C66.7412109,3.74525333 63.0024141,0.00618666667 58.3904063,0.00618666667 Z" id="Path" fill="#054C81"></path>
                        <g id="Group" transform="translate(7.992188, 0.000000)">
                            <path d="M66.4024453,0.00618666667 L49.6562344,0.00618666667 C54.2687578,0.00618666667 58.0078125,3.74473778 58.0078125,8.35664 L58.0078125,49.8797422 C58.0078125,54.4916444 54.2687578,58.2301956 49.6562344,58.2301956 L66.4024453,58.2301956 C71.0149687,58.2301956 74.7540234,54.4916444 74.7540234,49.8797422 L74.7540234,8.35664 C74.7540234,3.74499556 71.0149687,0.00618666667 66.4024453,0.00618666667 Z" id="Path" fill="#054C81"></path>
                            <path d="M0.251109375,77.6277156 C0.251109375,78.8444267 1.78689844,79.3777689 2.54125781,78.42296 L17.49,59.5005244 C18.1237031,58.69832 19.0899844,58.2301956 20.1124687,58.2301956 L0.251109375,58.2301956 L0.251109375,77.6277156 Z" id="Path" fill="#5E54AC"></path>
                        </g>
                    </g>
                    <g id="Group-5" transform="translate(48.000000, 58.850898) scale(-1, 1) translate(-48.000000, -58.850898) translate(0.000000, 13.350898)">
                        <path d="M65.781375,68.3428178 L68.7812812,72.1404 C69.2961328,72.1213244 69.7137891,71.72976 69.7813359,71.2191022 C70.0827187,68.9375111 71.5370391,66.9745333 73.6657969,65.9733244 C76.9240312,64.4408356 79.1796328,61.1299378 79.1796328,57.2911111 L79.1796328,9.59242667 C79.1796328,4.29483556 74.8844766,-1.13686838e-13 69.5859141,-1.13686838e-13 L9.59371875,-1.13686838e-13 C4.29515625,-1.13686838e-13 1.42108547e-14,4.29457778 1.42108547e-14,9.59242667 L1.42108547e-14,57.2911111 C1.42108547e-14,62.58896 4.29515625,66.8835378 9.59371875,66.8835378 L62.7683203,66.8835378 C63.9434297,66.8835378 65.0533125,67.4212622 65.781375,68.3428178 L65.781375,68.3428178 Z" id="Path" fill="#3777A7"></path>
                        <path d="M85.4596875,-2.13162821e-14 L68.6570156,-2.13162821e-14 C73.9553203,-2.13162821e-14 78.2507344,4.29457778 78.2507344,9.59242667 L78.2507344,57.2911111 C78.2507344,61.1299378 75.9951328,64.4408356 72.7368984,65.9733244 C70.3366641,67.1021333 68.7815391,69.4883822 68.7815391,72.1401422 L82.9534922,90.0794133 C83.82,91.1762578 85.5842109,90.56352 85.5842109,89.1658489 L85.5842109,66.8801867 C90.8250234,66.8134222 95.0536641,62.5469422 95.0536641,57.2908533 L95.0536641,9.59242667 C95.0536641,4.29457778 90.75825,-2.13162821e-14 85.4596875,-2.13162821e-14 L85.4596875,-2.13162821e-14 Z" id="Path" fill="#3777A7"></path>
                        <g id="Group" transform="translate(14.053406, 15.649102)" fill="#F0F7FF">
                            <path d="M65.0095096,4.08559701 L2.06981226,4.08559701 C0.974452107,4.08559701 0.0865095785,3.18212687 0.0865095785,2.06761194 C0.0865095785,0.953097015 0.974452107,0.0496268657 2.06981226,0.0496268657 L65.0095096,0.0496268657 C66.1048697,0.0496268657 66.9928123,0.953097015 66.9928123,2.06761194 C66.9928123,3.18212687 66.1048697,4.08559701 65.0095096,4.08559701 Z" id="Path"></path>
                            <path d="M65.0095096,19.5127612 L2.06981226,19.5127612 C0.974452107,19.5127612 0.0865095785,18.609291 0.0865095785,17.4947761 C0.0865095785,16.3802612 0.974452107,15.476791 2.06981226,15.476791 L65.0095096,15.476791 C66.1048697,15.476791 66.9928123,16.3802612 66.9928123,17.4947761 C66.9928123,18.6090299 66.1048697,19.5127612 65.0095096,19.5127612 Z" id="Path"></path>
                            <path d="M65.0095096,34.9396642 L2.06981226,34.9396642 C0.974452107,34.9396642 0.0865095785,34.036194 0.0865095785,32.9216791 C0.0865095785,31.8071642 0.974452107,30.903694 2.06981226,30.903694 L65.0095096,30.903694 C66.1048697,30.903694 66.9928123,31.8071642 66.9928123,32.9216791 C66.9928123,34.036194 66.1048697,34.9396642 65.0095096,34.9396642 Z" id="Path"></path>
                        </g>
                    </g>
                </g>
            </g>
        </g>
    </g>
</svg>