<?xml version="1.0" encoding="UTF-8"?>
<svg width="156px" height="156px" viewBox="0 0 156 156" version="1.1" xmlns="http://www.w3.org/2000/svg" xmlns:xlink="http://www.w3.org/1999/xlink">
    <!-- Generator: Sketch 62 (91390) - https://sketch.com -->
    <title>verified</title>
    <desc>Created with Sketch.</desc>
    <g id="Page-1" stroke="none" stroke-width="1" fill="none" fill-rule="evenodd">
        <g id="fingerprint-authentication-copy-3" transform="translate(-129.000000, -215.000000)" fill="#FFFFFF" fill-rule="nonzero">
            <g id="verified" transform="translate(129.000000, 215.000000)">
                <path d="M133.154227,22.8454688 C118.421977,8.11352344 98.8345312,0 78,0 C57.1651641,0 37.5774141,8.11352344 22.8454688,22.8454688 C8.11321875,37.5777187 0,57.1654688 0,78 C0,98.8345312 8.11321875,118.421977 22.8454688,133.154227 C37.5777187,147.886477 57.1651641,156 78,156 C98.8345312,156 118.421977,147.886477 133.154227,133.154227 C147.886477,118.421977 156,98.8345312 156,78 C156,57.1654688 147.886477,37.5780234 133.154227,22.8454688 Z M78,146.859375 C40.0307578,146.859375 9.140625,115.969242 9.140625,78 C9.140625,40.0307578 40.0307578,9.140625 78,9.140625 C115.969242,9.140625 146.859375,40.0307578 146.859375,78 C146.859375,115.969242 115.969242,146.859375 78,146.859375 Z" id="Shape"></path>
                <path d="M114.664948,53.3196139 C112.885183,51.5600786 109.999027,51.5600786 108.219262,53.3199144 L67.9689717,93.1194855 L46.7810421,72.1688163 C45.0012766,70.4089805 42.1151213,70.4089805 40.335052,72.1688163 C38.5549827,73.9286521 38.5549827,76.7824885 40.335052,78.5426248 L64.7458247,102.680048 C65.6358594,103.560116 66.8024156,104 67.9686679,104 C69.1349202,104 70.3017802,103.559816 71.191511,102.680048 L114.664948,59.6934224 C116.445017,57.9335867 116.445017,55.0797502 114.664948,53.3196139 Z" id="Path"></path>
            </g>
        </g>
    </g>
</svg>