<?xml version="1.0" encoding="UTF-8"?>
<svg width="152px" height="152px" viewBox="0 0 152 152" version="1.1" xmlns="http://www.w3.org/2000/svg" xmlns:xlink="http://www.w3.org/1999/xlink">
    <!-- Generator: Sketch 62 (91390) - https://sketch.com -->
    <title>touch copy</title>
    <desc>Created with Sketch.</desc>
    <g id="Page-1" stroke="none" stroke-width="1" fill="none" fill-rule="evenodd">
        <g id="fingerprint-authentication" transform="translate(-131.000000, -218.000000)" fill="#FFFFFF" fill-rule="nonzero">
            <g id="touch-copy" transform="translate(131.000000, 218.000000)">
                <path d="M144.395285,0 L134.499428,0 C133.119249,0 132,1.11924911 132,2.50057214 C132,3.88075082 133.119249,5 134.499428,5 L144.395285,5 C145.832685,5.00114428 146.998856,6.1673151 147,7.60471496 L147,17.5005722 C147,18.8807506 148.119249,20 149.499428,20 C150.880751,20 152,18.8807506 152,17.5005722 L152,7.60471496 C151.995422,3.40695804 148.593042,0.00457770657 144.395285,0 L144.395285,0 Z" id="Path"></path>
                <path d="M149.499428,132 C148.119249,132 147,133.119249 147,134.499428 L147,144.395285 C146.998856,145.832685 145.832685,146.998856 144.395285,147 L134.499428,147 C133.119249,147 132,148.119249 132,149.499428 C132,150.880751 133.119249,152 134.499428,152 L144.395285,152 C148.593042,151.995422 151.995422,148.593042 152,144.395285 L152,134.499428 C152,133.119249 150.880751,132 149.499428,132 L149.499428,132 Z" id="Path"></path>
                <path d="M2.50057214,20 C3.88075082,20 5,18.8807506 5,17.5005722 L5,7.60471496 C5.00114428,6.1673151 6.1673151,5.00114428 7.60471496,5 L17.5005722,5 C18.8807506,5 20,3.88075082 20,2.50057214 C20,1.11924911 18.8807506,0 17.5005722,0 L7.60471496,0 C3.40695804,0.00457770657 0.00457770657,3.40695804 0,7.60471496 L0,17.5005722 C0,18.8807506 1.11924911,20 2.50057214,20 Z" id="Path"></path>
                <path d="M7.60471496,152 L17.5005722,152 C18.8807506,152 20,150.852045 20,149.435296 C20,148.019719 18.8807506,146.871765 17.5005722,146.871765 L7.60471496,146.871765 C6.1673151,146.870591 5.00114428,145.674512 5,144.200247 L5,134.563531 C5,133.147955 3.88075082,132 2.50057214,132 C1.11924911,132 0,133.147955 0,134.563531 L0,144.200247 C0.00457770657,148.505664 3.40695804,151.995305 7.60471496,152 Z" id="Path"></path>
                <path d="M35.5124823,126 C36.0017597,126 36.4807246,125.85337 36.8886464,125.577705 C38.0333493,124.803497 39.1539894,123.995271 40.2482749,123.15068 C41.3425602,122.307263 42.4104911,121.433347 43.4497759,120.53245 C44.4890607,119.624515 45.5019909,118.684909 46.4885665,117.71363 C47.4751421,116.741178 48.43078,115.745265 49.3543339,114.724718 C50.2790338,113.700652 51.1773791,112.641395 52.0379115,111.55985 C52.8995897,110.479478 53.7383509,109.367434 54.5415907,108.229583 C55.3448306,107.091732 56.1079659,105.922209 56.841309,104.744475 C57.5746522,103.565567 58.2759115,102.345603 58.9370661,101.112736 C59.5982207,99.8798684 60.2284376,98.6223672 60.8219871,97.3378858 C61.414391,96.0545778 61.9632523,94.7607121 62.4983637,93.3894258 L62.8593061,92.4075895 C63.3084788,91.092609 62.6473239,89.6509401 61.3719944,89.1629546 C60.096665,88.674969 58.6746669,89.3189691 58.1704935,90.6140077 L57.8301765,91.5442304 C57.3523574,92.7665403 56.8287046,93.9736007 56.2981766,95.1525081 C55.7676489,96.3314157 55.167224,97.5021117 54.5461741,98.6481742 C53.9251243,99.7930635 53.2949074,100.910973 52.608544,102.007767 C51.9233267,103.104561 51.2151921,104.184934 50.4761198,105.235979 C49.7381932,106.287025 48.9739121,107.316956 48.1580679,108.310523 C47.3422237,109.305263 46.5286713,110.291791 45.6704304,111.243129 C44.8110441,112.193293 43.9184279,113.121169 43.0189368,114.015027 C42.1205915,114.910059 41.1649538,115.780456 40.2012949,116.621527 C39.2376363,117.461425 38.2453312,118.271998 37.2346929,119.050898 C36.2229084,119.829798 35.1870613,120.588756 34.1260056,121.292582 C33.2024514,121.91664 32.7876544,123.086163 33.1062001,124.171227 C33.4247462,125.255118 34.4010092,125.997654 35.5078989,125.995308 L35.5124823,126 Z" id="Path"></path>
                <path d="M97.8326219,65.1876751 C97.718193,64.6147993 97.5831664,64.0477339 97.4023681,63.4818304 C97.2227142,62.9159272 97.0327619,62.3779122 96.8130578,61.8468694 C96.5933536,61.3169886 96.3427536,60.796404 96.078422,60.3013836 C95.8095132,59.7970673 95.5177189,59.307857 95.20075,58.8337531 C94.8860696,58.3596492 94.5485033,57.9029757 94.2006385,57.4660564 C93.8527736,57.0291372 93.4660027,56.6050002 93.0677893,56.1971313 C92.6707198,55.7881005 92.2553416,55.4092824 91.8182219,55.0490562 C91.3811024,54.6888304 90.9382612,54.3460346 90.4713899,54.0334515 C90.0033745,53.7220303 89.5262047,53.4175811 89.0307262,53.1433445 C88.536392,52.869108 88.0317589,52.620436 87.5088174,52.3996522 C86.9778658,52.1695725 86.4366156,51.9685432 85.8862108,51.7954021 C85.3369505,51.6210994 84.7785359,51.475847 84.2143999,51.360807 C83.6353882,51.239957 83.051799,51.1493194 82.4647771,51.0888944 C81.2770019,50.9703685 80.0812163,50.9703685 78.8945853,51.0888944 C78.3132848,51.1493194 77.7354173,51.2387948 77.1621267,51.3584829 C76.5922693,51.4746848 76.0269888,51.6245855 75.4777285,51.7954021 C74.927324,51.9650571 74.390651,52.1707344 73.8722867,52.3938421 C73.3550666,52.6169499 72.8355577,52.869108 72.3355021,53.1433445 C71.8354464,53.4175811 71.3582764,53.7162203 70.9028482,54.0288034 C70.4485642,54.3413865 69.97826,54.6969643 69.5537275,55.0444082 C69.1177523,55.4046343 68.7012299,55.7881005 68.3030162,56.1913213 C67.9070909,56.5945421 67.5306188,57.0175171 67.1758884,57.4602464 C66.8211576,57.9041376 66.4881685,58.3608115 66.1757768,58.8314292 C65.8656735,59.300885 65.5715905,59.7889331 65.2981046,60.2990597 C65.0257632,60.8091863 64.7808848,61.3146644 64.5691905,61.8422214 C64.343765,62.3779122 64.1469467,62.9240611 63.9764473,63.4795065 C63.803659,64.0395997 63.6606226,64.6089893 63.5461934,65.1853509 C63.4283312,65.7617125 63.3390762,66.3531802 63.2761404,66.9620784 C63.2143485,67.5709765 63.1891742,68.1624445 63.1891742,68.7748285 C63.1891742,70.1611178 63.1468351,71.5346245 63.0610134,72.8941872 C62.9763357,74.2549116 62.8470307,75.6051783 62.6742425,76.9438245 C62.5060315,78.2813085 62.2989147,79.682704 62.0460261,80.9922998 C61.7839833,82.3681307 62.6673769,83.6986428 64.0210747,83.9670693 C64.1812753,83.9937958 64.343765,84.0042539 64.5062546,83.9984436 C65.7008955,83.9961197 66.7273258,83.1350635 66.9561843,81.9439935 C67.2285257,80.530978 67.4562399,79.0180289 67.6381825,77.5736388 C67.8212692,76.129249 67.9585843,74.6744005 68.0535603,73.1997981 C68.1485367,71.7240337 68.1908754,70.249431 68.1908754,68.7573984 C68.1874427,67.894018 68.2721202,67.0317995 68.4403313,66.1858494 C68.5204316,65.7791428 68.6222738,65.377084 68.7458574,64.9819974 C68.8671522,64.583425 69.0090444,64.1929865 69.1703896,63.80952 C69.3248691,63.4353496 69.4976573,63.0693138 69.68761,62.7125738 C69.8832837,62.3523479 70.0926893,61.999094 70.3204035,61.6597841 C70.5435403,61.3216367 70.7838418,60.9951093 71.0401633,60.6825259 C71.2907633,60.3676186 71.5631047,60.0678178 71.8434563,59.7807989 C72.1226639,59.4937801 72.4224683,59.2230296 72.738293,58.9615754 C73.3596437,58.4421527 74.0290546,57.9843172 74.7373716,57.5950406 C75.8152948,57.0000868 76.974463,56.5713017 78.177114,56.3261155 C78.5902034,56.2378021 79.0078703,56.172729 79.4266811,56.1308963 C80.2768903,56.0449067 81.1339652,56.0449067 81.9841744,56.1308963 C82.4041297,56.1738909 82.8206521,56.238964 83.2337415,56.3261155 C83.6388211,56.4097809 84.0393233,56.5166867 84.4238055,56.6363748 C84.8094319,56.7549006 85.1939141,56.9024771 85.5761078,57.0651598 C86.3176092,57.3858772 87.0259262,57.7774776 87.6941929,58.2353134 C88.0260375,58.4630692 88.3510165,58.7094173 88.6611197,58.9685476 C88.9712227,59.2276777 89.2607289,59.4995904 89.5433691,59.7831231 C89.8260091,60.0678178 90.0960621,60.3699428 90.3535278,60.687174 C90.6109937,61.0044055 90.8535837,61.3239606 91.0755763,61.6690803 C91.2987133,62.0153622 91.5058301,62.3500237 91.70036,62.7148979 C91.896034,63.0809338 92.065389,63.4434838 92.2278786,63.8246262 C92.3903683,64.2057685 92.5253946,64.5857489 92.6432568,64.9750255 C92.7611187,65.3631398 92.8686823,65.7849529 92.9487829,66.1800394 L93.0334604,66.6401991 C93.2611746,68.0230022 94.5496475,68.9561035 95.9113555,68.7248616 C97.2742073,68.49362 98.1930741,67.1851861 97.9653601,65.8023832 L97.8326219,65.1876751 Z" id="Path"></path>
                <path d="M81.3281548,113.215273 C80.6337499,114.439488 81.0773646,115.98752 82.3194855,116.673593 C83.5627897,117.360831 85.1349603,116.927522 85.83528,115.705636 C86.6574456,114.265931 87.0785838,113.451729 87.8250395,111.973585 C88.5726781,110.494277 89.2753636,109.000991 89.9520241,107.484408 C90.6286841,105.967826 91.2568425,104.431441 91.8495116,102.87875 C92.4409982,101.327223 93.0040927,99.7512353 93.5210519,98.1635993 C94.0380108,96.5759634 94.5159317,94.9650315 94.9524485,93.3424511 C95.3889652,91.7187063 95.7852611,90.0774892 96.1389699,88.4211294 C96.4926787,86.7647699 96.8049835,85.0944323 97.077067,83.4101174 C97.3479676,81.7258021 97.5680006,80.0286742 97.7513614,78.3210628 C97.8448163,77.4660924 97.9217095,76.6087924 97.9915046,75.7491625 C98.1062532,74.3478964 97.0451267,73.1201867 95.622011,73.0083649 C94.1988951,72.8953784 92.9532252,73.9402128 92.8384769,75.3414792 C92.7745962,76.1638351 92.698886,76.978037 92.613712,77.7899094 C92.4421811,79.4124898 92.225697,81.0245867 91.9678092,82.6238706 C91.709921,84.2243196 91.4141778,85.8061313 91.0817626,87.369306 C90.7493474,88.93947 90.3743452,90.4933263 89.9567557,92.0343698 C89.5403494,93.5742484 89.0872712,95.1013142 88.5975204,96.6144023 C88.1065871,98.1239959 87.5789812,99.6172821 87.0135202,101.093096 C86.4492424,102.56891 85.8459266,104.022593 85.2047554,105.454145 C84.5671335,106.890355 83.8952051,108.311423 83.1866046,109.716184 C82.4945658,111.099978 82.0982699,111.864093 81.3281548,113.215273 L81.3281548,113.215273 Z" id="Path"></path>
                <path d="M66.4679937,139.989821 C67.1070396,139.990952 67.7222914,139.744397 68.1834466,139.303311 C69.3267045,138.206251 70.4427687,137.083178 71.5327726,135.932962 C72.6216434,134.783877 73.6810546,133.607648 74.7132722,132.405406 C75.7477563,131.203165 76.7516475,129.972648 77.7249462,128.716119 C78.6993779,127.45959 79.6420839,126.182703 80.5541972,124.886589 C81.3371419,123.766909 81.0618082,122.226501 79.9400785,121.444988 C78.8194821,120.663474 77.2751211,120.938305 76.4921768,122.057984 C75.6299181,123.293025 74.7348004,124.504314 73.8090904,125.691853 C72.8833803,126.879392 71.9304765,128.045442 70.9481133,129.188873 C69.9680164,130.330041 68.961859,131.446327 67.9285082,132.538863 C66.8951573,133.630268 65.8391453,134.700184 64.760472,135.74748 C64.0319143,136.446431 63.8019033,137.516347 64.1792123,138.450545 C64.5553882,139.385873 65.4629693,139.998869 66.472526,140 L66.4679937,139.989821 Z" id="Path"></path>
                <path d="M54.5074591,136.994238 C55.0950103,136.994238 55.6642006,136.786856 56.115192,136.407808 C57.3143932,135.402007 58.4849054,134.360489 59.6244334,133.284408 C60.7754372,132.210631 61.4697115,131.540097 62.5449764,130.423691 C64.7459982,128.148252 66.8184935,125.749536 68.7498385,123.240217 L69.1905019,122.673373 C70.0878948,121.521252 71.1539789,120.157141 71.9159594,119.046496 C72.8144997,117.750359 73.6763181,116.430029 74.5002668,115.087808 C75.3242157,113.745587 76.1194754,112.376867 76.8848987,110.9828 C77.6376987,109.593342 78.3572195,108.180842 79.0423134,106.744147 C79.7285547,105.308604 80.3711889,103.852323 80.9736586,102.377608 C81.5853086,100.899437 82.1522035,99.403984 82.6754914,97.8900967 L82.8453304,97.3866199 C83.1586148,96.5340503 82.9887754,95.5766376 82.4012242,94.8842129 C81.813673,94.1929403 80.9002147,93.8726505 80.0120023,94.0466209 C79.1226425,94.2217433 78.3962365,94.8646267 78.1127888,95.7287176 L77.9418023,96.2137605 C77.4414657,97.6400865 76.9067024,99.0514348 76.3409546,100.447805 C75.7740596,101.843024 75.1727377,103.220961 74.5381365,104.580464 C73.8943546,105.933054 73.2161462,107.264906 72.5023631,108.577172 C71.78858,109.889438 71.0403706,111.178661 70.2588813,112.444842 C69.4819826,113.712175 68.6706569,114.955314 67.8249045,116.17541 C67.1053837,117.210015 66.1001202,118.498086 65.2601056,119.58108 L64.7987862,120.172118 C62.9833445,122.524749 61.0405238,124.774842 58.9772093,126.912026 C57.9547323,127.974282 57.3029177,128.598731 56.2207676,129.60799 C55.13747,130.617248 54.0312212,131.601159 52.8985784,132.552811 C52.089548,133.232562 51.7900346,134.347816 52.1515161,135.343248 C52.5118504,136.338681 53.4551454,137.001151 54.5109016,137 L54.5074591,136.994238 Z" id="Path"></path>
                <path d="M82.4818773,78.2221032 C82.3067531,79.7894163 82.0904235,81.3439205 81.8317438,82.8879452 C81.6669212,83.8614026 81.4540252,84.9839061 81.2571538,85.9398971 C80.9767265,87.3150802 81.8454787,88.6611529 83.197253,88.9464367 C83.3609311,88.9825336 83.5291873,89 83.6974437,89 C84.8832506,88.997671 85.9053795,88.1476426 86.142312,86.9645891 C86.3494848,85.9480481 86.5726821,84.7568436 86.745517,83.7298229 C87.0213658,82.0926444 87.2525754,80.4426574 87.4380007,78.7763684 C87.6257153,77.1159018 87.7653568,75.434475 87.8580694,73.7483909 C87.9507821,72.0611425 88,70.3540989 88,68.6400686 C88,68.3862243 87.9851203,68.1312157 87.9633728,67.8622342 C87.9404807,67.5920882 87.8981303,67.3533816 87.8523462,67.1263191 C87.8042731,66.8689817 87.7401754,66.6139731 87.6623425,66.3636221 C87.5879435,66.1249155 87.5032429,65.8850443 87.4128193,65.6661328 C87.2228157,65.2096791 86.9904615,64.7730208 86.7180466,64.3619794 C86.5795496,64.1582056 86.4376193,63.9625826 86.2899655,63.782097 C86.142312,63.6016114 85.9752001,63.4106461 85.8149562,63.2499556 C85.6455549,63.0706346 85.4658526,62.9006291 85.2769935,62.7411029 C85.0904234,62.5827414 84.8958413,62.43486 84.6943915,62.2962936 C84.4952307,62.1588916 84.2892025,62.0319696 84.0797404,61.9143629 C83.8668447,61.8002494 83.6493703,61.6931225 83.4296069,61.5964756 C83.2098434,61.4998284 82.9717664,61.413661 82.7348341,61.3426313 C82.496757,61.2657792 82.2541016,61.2029006 82.0091568,61.1539947 C81.7619229,61.1015957 81.5112554,61.0620055 81.2594428,61.0375527 C80.7500953,60.9874824 80.237314,60.9874824 79.729111,61.0375527 C79.2323542,61.0864583 78.7424648,61.1877631 78.2663107,61.339138 C78.0282336,61.41599 77.7958795,61.5021571 77.5841283,61.5941466 C77.3712324,61.6861361 77.1354446,61.8002494 76.9214041,61.9166916 C76.7062191,62.0342985 76.4910341,62.1717003 76.3181992,62.2916359 C76.1133155,62.4290376 75.9152995,62.5780837 75.7252959,62.7387742 C75.5352919,62.8994644 75.3555896,63.0648126 75.213659,63.2115297 C75.0305228,63.3943443 74.857688,63.5876383 74.6951547,63.7890834 C74.3987029,64.15937 74.1365893,64.556438 73.9099581,64.9744659 C73.7920644,65.1945417 73.6856162,65.4204396 73.5906146,65.6509954 C73.4956126,65.8815512 73.4120565,66.1167645 73.3399468,66.3554711 C73.2632584,66.6069864 73.1991608,66.861995 73.1476538,67.1193324 C73.1007249,67.3731767 73.0629531,67.6048969 73.0377721,67.8517542 C73.0125907,68.0986121 73,68.3606072 73,68.6295889 C73,70.0350469 74.1194202,71.1738525 75.500954,71.1738525 C76.881343,71.1738525 78.0007632,70.0350469 78.0007632,68.6295889 C78.0007632,68.5445858 78.0053416,68.459583 78.0133539,68.3757446 L78.2960702,67.4442064 C78.2960702,67.4313977 78.4185426,67.2381037 78.4242655,67.2229662 L78.7138496,66.861995 L79.0892788,66.5417787 L79.5242276,66.2867701 L79.9866462,66.137724 C80.0713469,66.1190932 80.1594811,66.1062848 80.2361694,66.0969694 C80.406715,66.0783386 80.3288821,66.0410771 81.0019076,66.1342309 L81.4620375,66.2797837 L81.896986,66.5184903 L83.2922547,64.4097209 L82.2541016,66.8189115 L82.4269364,67.0098768 L82.6764594,67.4011228 L82.789775,67.6375004 L82.9294162,68.0904611 C82.9294162,68.0904611 82.9694773,68.3454695 82.9694773,68.3629359 C82.9786341,68.4479387 82.984357,68.5317771 82.984357,68.6167802 C82.984357,70.2353276 82.9408623,71.842231 82.8515833,73.4374903 C82.7634491,75.0339136 82.6398321,76.6280086 82.4818773,78.2221032 L82.4818773,78.2221032 Z" id="Path"></path>
                <path d="M71.9154796,80.1352961 C71.6592974,81.5875526 71.0463319,84.1537885 70.7070954,85.5290575 C70.3655192,86.9428202 69.9771518,88.3414189 69.540823,89.7236869 C69.1056646,91.1059551 68.636582,92.4718923 68.1359155,93.8214994 C67.6247211,95.168773 67.0807728,96.4962171 66.5052403,97.7933327 L66.2350207,98.3847335 C65.8525021,99.2117613 65.9414055,100.179932 66.468977,100.922974 C66.9965485,101.666016 67.8809033,102.073114 68.7909932,101.989128 C69.6999133,101.906309 70.4953647,101.345237 70.8778834,100.518209 L71.1714986,99.8684845 C71.7926526,98.4687194 72.3798828,97.0502908 72.9226614,95.6096992 C73.4642703,94.1702739 73.9649368,92.7098524 74.4246608,91.2319337 C74.8843849,89.7540153 75.3008274,88.2562666 75.671648,86.7445203 C75.9757912,85.5115604 76.635548,82.7365263 76.9490494,81.0521424 C77.132705,80.1492937 76.8121848,79.2172837 76.1114859,78.6165511 C75.4107867,78.0158185 74.4398682,77.838515 73.5718902,78.1534622 C72.7027425,78.4684092 72.0722305,79.2254488 71.9224984,80.1352961 L71.9154796,80.1352961 Z" id="Path"></path>
                <path d="M44.4945697,131.995321 C45.0310815,131.991811 45.55269,131.812825 45.981441,131.484097 C47.1736894,130.584485 48.3430099,129.647438 49.4882563,128.672956 C50.6335024,127.698473 51.7466498,126.697085 52.8288445,125.669959 C53.9133321,124.647513 54.9645741,123.574763 55.9963276,122.478617 C57.028081,121.38247 58.000222,120.262927 58.972363,119.115307 C59.9433577,117.967688 60.86735,116.779123 61.7695612,115.568332 C62.670626,114.35637 63.5223955,113.128031 64.361555,111.864597 C64.7513285,111.272654 65.1342238,110.676033 65.5079477,110.075901 C66.0685336,109.304972 66.1568061,108.277846 65.7383725,107.418009 C65.3199393,106.558172 64.4647305,106.010684 63.5235421,106 C62.5834998,105.989626 61.7156806,106.517227 61.2789051,107.367706 C60.9281091,107.931572 60.5692879,108.491929 60.2035889,109.041756 C59.4274808,110.222132 58.6158348,111.37911 57.7801146,112.506843 C56.9432478,113.633405 56.0696967,114.74242 55.1651929,115.829208 C54.2606892,116.914825 53.329818,117.960668 52.3725803,118.981945 C51.4164887,120.004391 50.4248591,121.0011 49.4125942,121.965054 C48.401476,122.927838 47.3490874,123.870735 46.285235,124.776196 C45.2202362,125.680487 44.1208456,126.564892 43.0019663,127.400162 C42.139879,128.059956 41.7879367,129.209915 42.1284152,130.253419 C42.4688938,131.296922 43.4261318,132 44.5048872,132 L44.4945697,131.995321 Z" id="Path"></path>
                <path d="M27.5184194,119 C27.9726086,119 28.417599,118.872715 28.8062467,118.632288 C29.8560562,117.986435 30.8863181,117.306403 31.8958826,116.592193 C32.9054474,115.879162 33.8885657,115.134309 34.8452374,114.359992 C35.7996093,113.588032 36.7298345,112.784251 37.6359131,111.951007 C38.1786403,111.456009 38.7098692,110.950405 39.2307493,110.431837 C40.2299653,109.4442 40.2598614,107.813067 39.2962905,106.788894 C38.3327198,105.763543 36.7413331,105.734079 35.7421169,106.721716 C35.2660808,107.189607 34.780846,107.651604 34.287562,108.106529 C33.4504742,108.869061 32.5984385,109.603306 31.7326046,110.310445 C30.8564219,111.016405 29.9572426,111.698794 29.0431151,112.347004 C28.1278378,112.996393 27.1838145,113.618675 26.2213933,114.207957 C25.2520734,114.804311 24.7886855,115.989946 25.0922448,117.106047 C25.3946543,118.223326 26.3869711,118.995286 27.5184194,118.99175 L27.5184194,119 Z" id="Path"></path>
                <path d="M55.4393301,66 C54.0259808,66 52.8798321,67.134328 52.8798321,68.5331009 C52.8798321,69.7474581 52.8411585,70.9478975 52.7567794,72.1390581 C52.6724004,73.3302188 52.5563791,74.508621 52.3981683,75.6858632 C52.2399575,76.8642655 52.045417,78.0101921 51.8098589,79.1503195 C51.5743005,80.290447 51.2977247,81.4305744 51.0000543,82.5347466 C50.7035558,83.6400786 50.3531482,84.7488902 49.9757862,85.8287057 C49.5995963,86.9085209 49.1882483,87.9825373 48.7429144,89.0333565 C48.2964087,90.0853358 47.8229484,91.1187575 47.3108145,92.1382611 C46.7986803,93.1566046 46.2595922,94.1517516 45.6935493,95.1248611 C45.1275064,96.0979709 44.5181021,97.0606419 43.8852592,98.001276 C43.4375816,98.6670271 42.9723246,99.323499 42.4953485,99.967213 C41.9550882,100.696755 41.8484424,101.657107 42.216429,102.486396 C42.5844156,103.314525 43.3719534,103.886328 44.2813721,103.984915 C45.1907908,104.083502 46.0838024,103.693794 46.6252348,102.964252 C47.1373687,102.260226 47.6495026,101.539962 48.1464015,100.81274 C48.8366689,99.7839576 49.4952945,98.7377775 50.1246215,97.6637611 C50.7551204,96.5897451 51.3434301,95.499491 51.8989254,94.3906794 C52.454421,93.2807081 52.9794462,92.1405806 53.4681415,90.9876951 C53.9568371,89.8348093 54.4033429,88.6668456 54.8146905,87.4803246 C55.2272104,86.2949631 55.6034005,85.0864051 55.9409167,83.860449 C56.2796048,82.6333334 56.5737597,81.4027382 56.8292405,80.1501058 C57.0858936,78.8986333 57.3003571,77.6320828 57.4726311,76.3504542 C57.6437329,75.067666 57.7773329,73.7755991 57.8687437,72.4730934 C57.9613263,71.1705877 58,69.8506845 58,68.5261417 C57.9953123,67.1296886 56.8503355,66 55.4393301,66 L55.4393301,66 Z" id="Path"></path>
                <path d="M58.2837481,51.006862 C57.7099383,51.6861848 57.1722833,52.3918117 56.6684503,53.1225983 C56.1599522,53.8545288 55.6934402,54.6219122 55.2677481,55.3858646 C54.8735453,56.0789115 54.5178299,56.7936872 54.2029342,57.5244741 C53.6536165,58.7950595 54.2577494,60.2612078 55.5534866,60.799863 C55.8672159,60.9325251 56.2054369,61 56.5471572,61 C57.5688185,60.9988564 58.4913458,60.4007319 58.8902137,59.4778133 C59.1456291,58.8945563 59.4313677,58.3238792 59.7462634,57.7692132 C60.0984799,57.1344922 60.4798535,56.5180697 60.8903841,55.9210888 C61.3055798,55.3241079 61.7417684,54.7465691 62.2106131,54.1896156 C62.6794575,53.6326625 63.1739603,53.0997255 63.6906224,52.5930926 C64.2084507,52.0853155 64.7531036,51.5935499 65.3234145,51.1383808 C65.8948918,50.6843549 66.4803643,50.2474841 67.0844972,49.8449223 C67.6886304,49.4423606 68.3277519,49.0649588 68.9797025,48.7184354 C69.6316528,48.3707684 70.2999315,48.0539798 70.9822053,47.7715006 C72.3677459,47.196249 73.8092681,46.7582342 75.2834461,46.4620311 C76.0298653,46.312214 76.7914461,46.2001373 77.5611909,46.1200822 C79.1216738,45.9656909 80.6938193,45.9656909 82.2543018,46.1200822 C83.0182153,46.2001373 83.7821288,46.312214 84.5343794,46.4620311 C85.2854637,46.6118481 86.0097236,46.7971179 86.7304848,47.016697 C86.9998956,47.0990392 87.2704725,47.1870998 87.5352179,47.266011 C88.4005978,47.5942361 89.3791068,47.4341264 90.0893713,46.8497255 C90.7996358,46.2641812 91.1308593,45.3481245 90.9524186,44.4549404 C90.7739775,43.5629004 90.1150293,42.8355442 89.2321554,42.5576396 C88.9032646,42.4421316 88.5720408,42.3346295 88.2431499,42.2351326 C86.461074,41.6896157 84.6265156,41.3236505 82.7686312,41.1406679 C80.8652622,40.9531107 78.9467316,40.9531107 77.0433626,41.1406679 C76.1103385,41.2321592 75.1831458,41.3705397 74.2641175,41.5558098 C73.3579176,41.736505 72.4610484,41.9640897 71.5781744,42.2351326 C70.6976329,42.5016012 69.8369181,42.8092407 68.9971965,43.1591948 C68.1586413,43.5091492 67.3410791,43.8945563 66.5468422,44.3154163 C65.7572706,44.7374199 64.9863596,45.1971639 64.2329426,45.6946479 C63.480692,46.1932753 62.7634297,46.7193506 62.0799897,47.2740166 C61.3895519,47.8332571 60.7259387,48.4245196 60.0903158,49.0478041 C59.4558595,49.6710889 58.8528928,50.3241081 58.2837481,51.006862 L58.2837481,51.006862 Z" id="Path"></path>
                <path d="M102.602395,77.9314159 C102.449735,79.5429985 102.266542,81.1453585 102.04377,82.7338855 C101.940865,83.4889543 101.888848,84.1368152 101.83683,84.768537 C101.79499,85.4982449 101.71244,86.2244943 101.589181,86.9449802 C101.398072,87.8395353 101.697739,88.7698262 102.372839,89.3738817 C103.047938,89.9779366 103.991042,90.1612282 104.836896,89.8522839 C105.682749,89.542187 106.296784,88.7905763 106.441529,87.886799 C106.600975,86.9910913 106.710664,86.087314 106.769467,85.1789257 C106.8147,84.6405787 106.85654,84.086093 106.948136,83.4439962 C107.176562,81.7770804 107.371063,80.0986369 107.530509,78.4075128 C107.689954,76.7175417 107.80756,75.0160427 107.881063,73.3030158 C107.963613,71.5934475 108.003192,69.8723511 107.999799,68.1385743 C107.999799,67.1829222 107.953435,66.2387977 107.861839,65.3073538 C107.769112,64.3759098 107.632283,63.4594523 107.44909,62.5602858 C107.269289,61.6645781 107.045387,60.7780926 106.777382,59.9054404 C106.516163,59.038552 106.209711,58.1854969 105.860288,57.3497333 C105.516518,56.5254979 105.135432,55.7185539 104.717029,54.9300544 C104.298625,54.1404018 103.845166,53.3795692 103.355521,52.64525 C102.861353,51.9097784 102.345699,51.1996677 101.797251,50.520682 C101.303083,49.9074043 100.782906,49.3194881 100.237851,48.7569329 C99.6204228,48.1136834 98.7135053,47.8554613 97.8574743,48.0791 C97.0025747,48.3027386 96.3286057,48.9748077 96.0911336,49.8416961 C95.8536616,50.7097372 96.0877411,51.6400284 96.7062997,52.2832781 C97.1529737,52.7466944 97.578162,53.2297081 97.9852572,53.7334716 C98.438716,54.2937214 98.8639043,54.8747211 99.2630837,55.4764706 C99.6622633,56.0805258 100.035434,56.7076365 100.37468,57.3416641 C100.712795,57.9768441 101.031686,58.6512189 101.31326,59.3290518 C101.595965,60.0080375 101.843615,60.7031621 102.053947,61.4098144 C102.273327,62.1222308 102.45765,62.8461746 102.604657,63.5770354 C102.752794,64.3217293 102.863615,65.0733402 102.938249,65.828409 C103.017406,66.5996168 103.055854,67.3731303 103.054723,68.1477965 C103.054723,69.7997261 103.016275,71.4435864 102.94051,73.0793772 C102.864746,74.714015 102.752794,76.3313613 102.602395,77.9314159 L102.602395,77.9314159 Z" id="Path"></path>
                <path d="M78.5461104,142 C79.2697352,142 79.9595676,141.692782 80.4419841,141.156019 C81.5268388,139.950333 82.5825622,138.722619 83.6091539,137.474038 C84.6264236,136.223139 85.6448585,134.940938 86.6120223,133.655258 C87.5803513,132.36842 88.5288707,131.036368 89.4377715,129.700839 C89.9469892,128.966993 90.4329015,128.225032 90.92464,127.470318 C91.3219927,126.854723 91.7158499,126.23449 92.0957237,125.616576 C92.9521879,124.236992 93.7795209,122.834222 94.5753915,121.409425 C95.3712624,119.984628 96.1345061,118.543601 96.8662878,117.086344 C97.5945736,115.625608 98.2960587,114.146323 98.9614208,112.651968 C99.6256174,111.157612 100.261848,109.64123 100.861955,108.093545 C101.463228,106.545861 102.028378,105.016726 102.560901,103.451652 C103.033995,102.063954 103.479124,100.662343 103.896286,99.2468208 C104.292473,97.9043354 103.518742,96.4969282 102.169374,96.1027614 C100.820006,95.7097542 99.4053838,96.4783791 99.0091963,97.8220241 C98.6118433,99.1726247 98.1876898,100.508154 97.7367351,101.830932 C97.2275177,103.322969 96.6880034,104.797616 96.1170272,106.254874 C95.5472163,107.712131 94.9436131,109.155477 94.3050518,110.586071 C93.6688213,112.010867 93.0046248,113.424071 92.3066355,114.812929 C91.6098114,116.200628 90.8815256,117.577893 90.1229429,118.935449 C89.3643602,120.293006 88.580142,121.625058 87.7574704,122.948994 C87.3915794,123.544881 87.0152012,124.137291 86.6434843,124.722744 C86.1797117,125.434563 85.7077825,126.142904 85.2276965,126.846608 C84.3549187,128.12649 83.45534,129.384346 82.5266299,130.617856 C81.5990846,131.852525 80.6435738,133.067486 79.6635921,134.262739 C78.6859413,135.457991 77.6756631,136.627739 76.6467407,137.77546 C75.9790482,138.519739 75.8124163,139.585149 76.2214218,140.49521 C76.6315924,141.406431 77.5404932,141.993044 78.5426146,141.994203 L78.5461104,142 Z" id="Path"></path>
                <path d="M21.5666583,110.997666 C22.001911,110.997666 22.4301619,110.886863 22.8105704,110.674589 C23.7347526,110.1544 24.6390973,109.606219 25.5224383,109.031211 C26.4046123,108.455038 27.2681158,107.850872 28.1071146,107.222213 C28.9461132,106.592388 29.7769436,105.934571 30.575101,105.25226 C31.3720915,104.568783 32.1480777,103.860812 32.8972256,103.131848 C33.6463731,102.40405 34.3780174,101.64476 35.0839899,100.862144 C35.7899626,100.079528 36.4679295,99.2794164 37.1237253,98.4571446 C37.7783546,97.6337064 38.3979766,96.7881074 39.0047628,95.9086848 C39.6115491,95.0304285 40.1716596,94.155671 40.7095992,93.2564204 C41.2475385,92.3571697 41.7679743,91.4240952 42.2394005,90.4793574 C42.7108268,89.5346196 43.1775855,88.5758853 43.603503,87.592658 C44.0294202,86.6094306 44.41683,85.6203716 44.7703997,84.6161503 C45.1251363,83.6130951 45.4565347,82.5785487 45.7470922,81.5393372 C46.0376494,80.4989591 46.2978675,79.4469174 46.5114093,78.3797133 C46.7261183,77.3113433 46.922157,76.2336419 47.0750205,75.1384459 C47.2278841,74.0432496 47.330571,72.9445545 47.4169212,71.8260314 C47.5032717,70.7075082 47.5312772,69.5913179 47.5312772,68.4599649 C47.5312772,67.3274459 47.5896222,66.1960929 47.7051448,65.0694055 C47.8171668,63.9765418 47.9828663,62.8673497 48.2150788,61.7791513 C48.4286207,60.7376069 48.7016747,59.6704029 49.0307394,58.6125298 C49.3598044,57.5546565 49.7262099,56.5585993 50.143959,55.5707069 C50.5628747,54.5816479 51.0284666,53.6135829 51.5384007,52.675843 C52.0483345,51.7381031 52.6037773,50.8260226 53.1977277,49.9442675 C53.6574851,49.2666219 54.2992782,48.5096653 54.8733914,47.8250218 L55.3833251,47.2103592 C55.9854438,46.5117195 56.1616453,45.541322 55.8454162,44.674729 C55.5291872,43.8069697 54.7672037,43.1794772 53.8558574,43.0325178 C52.9445112,42.8855584 52.0249965,43.2436259 51.4520502,43.9667586 L50.9631204,44.5510968 C50.2793191,45.3687032 49.5220032,46.2784509 48.9747284,47.0983902 C48.2967615,48.1002788 47.6514677,49.1593183 47.0575173,50.2498493 C46.4635666,51.3403802 45.9326286,52.4437407 45.4460327,53.5960877 C44.9594369,54.7472685 44.5311857,55.9171107 44.1589456,57.1091133 C43.7867057,58.3022824 43.4634754,59.5654321 43.218427,60.7737636 C42.9640433,62.026416 42.7668379,63.301229 42.6373122,64.5643787 C42.5066198,65.8286947 42.4412736,67.1664904 42.4412736,68.4704619 C42.4412736,69.489846 42.4062668,70.4964002 42.336253,71.4901245 C42.26974,72.4861814 42.1658863,73.4717413 42.0328599,74.4433054 C41.9010006,75.4137029 41.7294667,76.3841004 41.5229261,77.3393355 C41.3163855,78.2957366 41.0923413,79.2381419 40.8297893,80.1677176 C40.5672376,81.0984593 40.2848485,82.0105398 39.9604513,82.9167884 C39.637221,83.8242035 39.287152,84.7012935 38.9125779,85.5818824 C38.5380042,86.4636378 38.1307573,87.3150685 37.6966717,88.1606672 C37.2637529,89.0062659 36.8051626,89.8297043 36.3173996,90.6449783 C35.8308038,91.4602519 35.318536,92.2498664 34.7887651,93.0196526 C34.257827,93.7894394 33.6895485,94.5487286 33.1060999,95.2893565 C32.5226518,96.0311508 31.9135316,96.7472856 31.2834074,97.4424259 C30.6532831,98.1387329 30.0091561,98.8163782 29.3276885,99.481194 C28.6473876,100.146009 27.9624192,100.770003 27.242444,101.382333 C26.5236356,101.993497 25.795492,102.579001 25.0381761,103.144678 C24.2808602,103.710354 23.5083745,104.250371 22.7207194,104.765895 C21.933064,105.280252 21.1255715,105.76895 20.3017423,106.230822 C19.2900428,106.797665 18.7894441,107.975671 19.0835021,109.097693 C19.3775601,110.218549 20.3915933,111.001165 21.5503219,111 L21.5666583,110.997666 Z" id="Path"></path>
                <path d="M111.117066,55.2428498 C111.539647,56.2320021 111.910864,57.2420763 112.229551,58.2695858 C112.50738,59.1483155 112.747854,60.0433183 112.948639,60.9534313 C113.127243,61.8554079 113.783294,62.5911697 114.661141,62.8759432 C115.540156,63.1595544 116.504388,62.9491707 117.182618,62.3238311 C117.859681,61.6996541 118.145682,60.758158 117.928555,59.8643176 C117.696252,58.8123991 117.418423,57.7767532 117.102071,56.7643541 C116.732021,55.5764418 116.302436,54.4071269 115.814484,53.2622208 C115.338205,52.1370747 114.79422,51.0177402 114.202373,49.9309516 C113.611694,48.8441627 112.976655,47.8061923 112.287918,46.7903061 C111.599182,45.7744202 110.867253,44.8038654 110.087463,43.8577197 C109.306506,42.910412 108.480022,42.01076 107.620852,41.155277 C106.761682,40.299794 105.851149,39.4768566 104.902093,38.6946012 C103.954205,37.913508 102.974798,37.1893695 101.959203,36.505913 C100.944776,35.8236188 99.891826,35.1854937 98.8073577,34.5996738 C97.7240566,34.0126917 96.5998983,33.4722032 95.4593971,32.9921564 C94.3200633,32.5121094 93.1281987,32.0785563 91.9433382,31.7100942 C90.7374654,31.3358203 89.5129148,31.0231506 88.2755238,30.7732473 C87.0264589,30.5186948 85.7482103,30.3234215 84.4816353,30.1944016 C81.8807789,29.9351995 79.2600777,29.9351995 76.6603886,30.1944016 C75.3844748,30.3234215 74.1097283,30.5186948 72.8676677,30.7732473 C71.6291088,31.0231506 70.4033912,31.3358203 69.1963512,31.7100942 C68.0021518,32.0808811 66.8196257,32.5121094 65.6791246,32.9921564 C64.5397908,33.4722032 63.4203018,34.0080423 62.3334989,34.5973493 C61.0961077,35.2668577 60.6373388,36.8081217 61.3097325,38.0413657 C61.9821263,39.2734469 63.5312001,39.7302471 64.7685914,39.0607387 C65.7094759,38.5527957 66.6760419,38.0890216 67.6706243,37.6694166 C68.6652067,37.248649 69.679634,36.8790247 70.7104044,36.5593809 C71.7610196,36.2374125 72.8303125,35.9630997 73.8879316,35.7469044 C74.9759021,35.5225727 76.0732113,35.3540333 77.1775248,35.2389615 C79.4328455,35.0134672 81.7056762,35.0134672 83.9609972,35.2389615 C85.067645,35.3528708 86.1672891,35.5225727 87.2552595,35.7469044 C88.3093769,35.9607752 89.3775024,36.2350876 90.4304522,36.557056 C91.483402,36.8790247 92.4709805,37.2474867 93.4725668,37.6670917 C94.4753208,38.0855345 95.4290462,38.5481461 96.3699303,39.0584138 C97.3108145,39.5686816 98.2190131,40.114982 99.1038645,40.7112629 C99.9887161,41.3075437 100.83738,41.9375327 101.653357,42.6105279 C102.469335,43.2835234 103.257297,43.9948761 104.010238,44.7434237 C104.762011,45.4919713 105.474095,46.2672528 106.149991,47.0867031 C106.825887,47.907316 107.460925,48.7500132 108.059776,49.6264181 C108.658627,50.5028234 109.209616,51.4036377 109.717413,52.3486209 C110.22521,53.2924418 110.703824,54.2653211 111.117066,55.2428498 L111.117066,55.2428498 Z" id="Path"></path>
                <path d="M92.5148855,140.991868 C93.3062099,140.991868 94.0515271,140.615461 94.5254016,139.9765 C95.450147,138.731105 96.3507386,137.468284 97.2260261,136.185714 C98.1024638,134.903143 98.9558981,133.601985 99.7874786,132.282239 C100.614459,130.962492 101.417285,129.626482 102.197107,128.274206 C102.97578,126.923092 103.729148,125.554553 104.458363,124.168587 C105.181827,122.782621 105.881137,121.381552 106.558593,119.963057 C107.226848,118.544562 107.87555,117.110964 108.490897,115.666911 C109.106244,114.222857 109.704338,112.755568 110.264476,111.278986 C110.824614,109.801242 111.365199,108.309557 111.865528,106.807416 C112.364706,105.304113 112.850082,103.784546 113.295202,102.238259 C113.739172,100.693133 114.161288,99.1654336 114.5512,97.6121755 C114.939961,96.0589178 115.304568,94.4882337 115.620868,92.9070939 C115.938318,91.3259542 116.244266,89.7366821 116.508807,88.1357924 C116.772199,86.533741 117.011436,84.922396 117.202367,83.3133743 C117.393296,81.7043522 117.568124,80.0581546 117.703845,78.4131186 C117.839567,76.7680826 117.932731,75.2891767 117.998292,73.6290381 C118.0489,72.2302925 116.96888,71.0534412 115.584062,71 L115.478245,71 C114.130234,70.9988393 113.020309,72.0734566 112.9651,73.4338643 C112.90069,75.0219744 112.809826,76.4416313 112.684456,78.0018594 C112.559086,79.5632495 112.395761,81.1385809 112.203681,82.689515 C112.012751,84.2404495 111.791916,85.7878986 111.538876,87.3237301 C111.284686,88.8584002 111.002892,90.3686733 110.691193,91.8917258 C110.380644,93.414778 110.03789,94.9041398 109.666382,96.3935014 C109.294873,97.8840249 108.89461,99.3606074 108.467893,100.827896 C108.041176,102.294022 107.585705,103.741561 107.099178,105.185615 C106.611502,106.629668 106.09392,108.050487 105.565987,109.464335 C105.038054,110.878183 104.462964,112.275766 103.86717,113.664056 C103.271377,115.052346 102.661781,116.423209 102.017679,117.775484 C101.374728,119.127759 100.701872,120.475388 100.008313,121.800943 C99.3147545,123.125336 98.5935911,124.440436 97.8471238,125.734624 C97.1006562,127.028812 96.3392367,128.31022 95.5433115,129.569556 C94.7462363,130.827729 93.9296078,132.076609 93.091126,133.306901 C92.2514939,134.538355 91.3877083,135.744249 90.503219,136.938527 C89.9315792,137.707605 89.8395648,138.736914 90.2651318,139.596608 C90.6906986,140.456302 91.5613854,141 92.512585,141 L92.5148855,140.991868 Z" id="Path"></path>
                <path d="M122.530232,126.778875 C123.161281,127.054388 123.876866,127.073066 124.521011,126.831409 C125.165157,126.589752 125.685474,126.106439 125.96647,125.488871 C126.460592,124.399664 126.943999,123.302285 127.417881,122.193231 C127.891763,121.085345 128.346594,119.973957 128.783565,118.860234 C129.225299,117.738339 129.652745,116.612941 130.068284,115.475869 C130.485014,114.338798 130.876741,113.206396 131.262514,112.058818 C131.647096,110.911239 132.013818,109.763661 132.369825,108.603241 C132.727022,107.44282 133.065169,106.276563 133.387837,105.109138 C133.709315,103.940546 134.024839,102.76028 134.318931,101.576511 C134.611833,100.39391 134.892828,99.2031371 135.155963,98.0065268 C135.419099,96.8099163 135.676281,95.6098037 135.897743,94.4050215 C136.118015,93.2014066 136.350193,91.9872849 136.547842,90.7743309 C136.745491,89.5602092 136.934805,88.3332458 137.101498,87.1062824 C137.268189,85.8804866 137.421785,84.6453511 137.556329,83.413718 C137.692064,82.1820852 137.817083,80.9329407 137.913526,79.6978055 L137.990919,78.7615307 C138.109984,77.3582864 137.044346,76.125486 135.611985,76.0087435 C134.180815,75.8931684 132.923481,76.9368462 132.804415,78.3412579 L132.727022,79.2798673 C132.630579,80.4788125 132.516276,81.6719207 132.386494,82.8685309 C132.255522,84.0639738 132.10788,85.2454076 131.945951,86.4385155 C131.785212,87.6316236 131.607804,88.797881 131.425634,89.9734774 C131.244654,91.1490741 131.023191,92.3094944 130.799348,93.4745841 C130.575504,94.6396738 130.338564,95.7907546 130.083763,96.9406679 C129.828962,98.0905814 129.563446,99.235825 129.275306,100.375231 C128.985977,101.515805 128.697838,102.648207 128.383504,103.782944 C128.06798,104.917681 127.74293,106.032571 127.400021,107.146295 C127.055921,108.261185 126.699915,109.376076 126.335573,110.461781 C125.971232,111.548653 125.579506,112.668213 125.180635,113.75742 C124.782956,114.84546 124.372179,115.934668 123.945924,117.013368 C123.518478,118.092068 123.079125,119.166099 122.629057,120.229623 C122.178988,121.293147 121.708679,122.354336 121.230034,123.407353 C120.640659,124.690353 121.222891,126.198665 122.530232,126.778875 L122.530232,126.778875 Z" id="Path"></path>
                <path d="M138.697025,62.4481469 C138.305488,58.5578602 137.524746,54.7178233 136.365284,50.9852984 C136.234772,50.5692749 136.110086,50.1555885 135.967921,49.7477454 C135.680095,48.8806404 134.952955,48.2344018 134.060344,48.0520991 C133.167734,47.8686282 132.245991,48.17714 131.641206,48.8607742 C131.037587,49.5444082 130.842984,50.4991586 131.13081,51.3662638 L131.497876,52.5021478 C132.022255,54.1942881 132.465065,55.9226553 132.816982,57.6405052 C133.175891,59.4004245 133.445072,61.1767044 133.623361,62.9635017 C133.809807,64.7853573 133.905361,66.6153932 133.908857,68.4465977 C133.908857,69.8571039 135.048508,71 136.453846,71 C137.860348,71 139,69.8571039 139,68.4465977 C138.998835,66.4436082 138.89862,64.4417875 138.697025,62.4481469 L138.697025,62.4481469 Z" id="Path"></path>
                <path d="M114.27038,27.813578 C115.586418,28.910729 116.858318,30.0769647 118.053555,31.2818404 C119.248792,32.486716 120.408022,33.7712141 121.494073,35.0990365 C122.580124,36.4256877 123.599967,37.7991757 124.561732,39.2347226 C125.523497,40.6690984 126.416731,42.1479692 127.230979,43.6619675 C127.664238,44.4652181 128.48894,44.9745677 129.396112,44.9991572 C130.302123,45.0225753 131.152379,44.5565497 131.626293,43.7778886 C132.100206,42.9980563 132.124598,42.0226808 131.692501,41.2194302 C130.795783,39.5625799 129.814271,37.9303186 128.768874,36.3589454 C127.723477,34.788743 126.583995,33.2665479 125.407342,31.8298305 C124.229528,30.3919419 122.950659,28.972788 121.643913,27.6555038 C120.337167,26.3370491 118.944466,25.0584055 117.500656,23.8558715 C116.056847,22.6545087 114.544506,21.5187171 113.006611,20.4719156 C112.255087,19.9344637 111.274737,19.8501575 110.444227,20.2494408 C109.613717,20.6498953 109.06198,21.4718803 109.005064,22.3980774 C108.946986,23.3242744 109.39186,24.2094892 110.166616,24.7106426 C111.569771,25.6649417 112.95318,26.7058887 114.27038,27.813578 L114.27038,27.813578 Z" id="Path"></path>
                <path d="M67.1274592,16.7317583 C68.1099685,16.4733919 69.100503,16.2412032 70.1002092,16.0363313 C71.8256197,15.6869103 73.5682267,15.4239909 75.3200054,15.2475732 C78.9003749,14.8867706 82.5082594,14.8867706 86.0897756,15.2475732 C87.8415542,15.4239909 89.5853077,15.6869103 91.3107179,16.0363313 C92.9960025,16.378923 94.6893121,16.8114309 96.3470818,17.3236112 C97.7503391,17.7572576 99.162768,18.2591943 100.549975,18.8157637 C101.831708,19.3336351 103.293435,18.7224332 103.81507,17.4499492 C104.33556,16.1774651 103.719915,14.7262874 102.438181,14.208416 C100.920279,13.5972141 99.3702757,13.0451972 97.8351764,12.5705767 C96.0214895,12.0105928 94.1607978,11.5359723 92.3253282,11.1603731 C90.4348288,10.776807 88.5271327,10.4877097 86.6079719,10.2953573 C82.6939848,9.90154757 78.7501899,9.90154757 74.8362025,10.2953573 C72.917042,10.4877097 71.0070528,10.776807 69.1165535,11.1603731 C68.019399,11.3845946 66.9337088,11.6372701 65.8606298,11.9206769 C64.5238666,12.2746502 63.7293754,13.6370501 64.0847756,14.9641667 C64.441322,16.2912833 65.813625,17.0811792 67.1503882,16.7272056 L67.1274592,16.7317583 Z" id="Path"></path>
                <path d="M24.0392413,75.9488073 C24.6975121,76.084031 25.3824379,75.9488073 25.941041,75.5734448 C26.4996441,75.1980826 26.8867257,74.6128902 27.0142075,73.9495947 C27.1335771,73.3597397 27.2297682,72.7605587 27.3108929,72.1672065 C27.392018,71.5738543 27.4499642,70.942033 27.4905267,70.3335265 C27.5310893,69.7250197 27.550791,69.0990273 27.550791,68.4718692 C27.5519498,64.8523035 27.9135351,61.2408982 28.6297524,57.6924417 C28.9820663,55.974168 29.4224587,54.250066 29.9439758,52.5667637 C30.4654932,50.8834621 31.0553872,49.2561144 31.7287242,47.6567447 C32.4020609,46.0573744 33.14841,44.4941418 33.9689306,42.9833667 C34.7894511,41.4737575 35.6829839,39.9816338 36.6298277,38.5734422 C37.5766712,37.1652505 38.6069576,35.7722131 39.6905547,34.4584448 C40.7741518,33.1435109 41.9284434,31.8577199 43.1232975,30.6581925 C44.3193105,29.4586651 45.5894949,28.2952748 46.9014003,27.2053253 C48.2121471,26.1153756 49.5773637,25.0895406 50.9947319,24.1266544 C52.4132589,23.1637685 53.875825,22.2673284 55.3824305,21.4478264 C56.3953328,20.8952742 57.4209837,20.3765282 58.4605415,19.8892564 C59.3100351,19.5255513 59.8941345,18.7258664 59.9868487,17.8026149 C60.080722,16.8793634 59.6669847,15.9794264 58.9078873,15.4513546 C58.1487901,14.9244484 57.1648606,14.8533392 56.3397043,15.2671704 C55.1900484,15.7987395 54.0635714,16.3664459 52.9591134,16.9702896 C51.3134366,17.8702269 49.699051,18.8599245 48.1495652,19.9067423 C46.6000795,20.9535604 45.091156,22.0971332 43.6679932,23.2780091 C42.2448305,24.4600509 40.8425286,25.741179 39.5364174,27.054947 C38.2303063,28.3687153 36.971711,29.764084 35.7849695,31.2165732 C34.597069,32.6678965 33.4705917,34.1798373 32.4345108,35.7232527 C31.3995885,37.2666681 30.4098647,38.8893525 29.5186497,40.562163 C28.6274344,42.2349736 27.7964836,43.9392584 27.0652006,45.6831779 C26.3339174,47.4270973 25.6675341,49.2479546 25.1077722,51.0641487 C24.5352622,52.9118173 24.0554662,54.7862976 23.6707023,56.681761 C23.2824619,58.5842187 22.9869353,60.5402993 22.7864407,62.4952146 C22.5882643,64.4816042 22.4885964,66.4761539 22.4874376,68.4718692 C22.4874376,68.9812895 22.4723716,69.4907098 22.4376036,70.00013 C22.4016771,70.5095503 22.3587966,70.9886619 22.2904201,71.4875907 C22.2220433,71.9865196 22.145554,72.4679625 22.0493632,72.9494058 C21.9172454,73.6127013 22.0528398,74.3016428 22.4260145,74.8646861 C22.799189,75.4277297 23.3798115,75.8170808 24.0392413,75.9488073 Z" id="Path"></path>
                <path d="M18.2362986,80.2928351 C17.9818763,80.6919961 17.7064466,81.0852868 17.4228472,81.466838 C17.1404151,81.8495628 16.8416439,82.23581 16.53587,82.5903588 C16.2300965,82.9437336 15.9068167,83.3135446 15.5847036,83.6551795 C15.2637582,83.9956402 14.9148026,84.3372752 14.56468,84.664822 C14.2157245,84.9935429 13.8585996,85.3011315 13.4968061,85.5981545 C13.1350129,85.8963511 12.749878,86.1933737 12.360075,86.4763084 C11.9702717,86.7580691 11.5769674,87.02222 11.1743266,87.2758046 C10.2254942,87.8874601 9.78784117,89.0532449 10.0994503,90.1438939 C10.4098922,91.2333686 11.3960707,91.9882523 12.5234655,92 C13.0007992,92.0011664 13.4699636,91.8649821 13.8737715,91.6078753 C14.3686114,91.2967646 14.8529477,90.9692177 15.3244461,90.629931 C15.7971115,90.2918181 16.255772,89.9349212 16.7120985,89.5639363 C17.168425,89.1917774 17.5967416,88.8090523 18.0203897,88.4169355 C18.4428711,88.0248183 18.8560156,87.6139175 19.2668261,87.1889282 C19.6764696,86.7627654 20.0487666,86.3377762 20.426899,85.8904811 C20.8038641,85.44436 21.158655,84.9911947 21.5029422,84.5239417 C21.8472295,84.0578626 22.1880155,83.5729992 22.5066269,83.0799179 C23.065656,82.3132941 23.1566878,81.2977816 22.7435433,80.4431074 C22.3292315,79.5872594 21.4796007,79.03313 20.5342699,79.0014318 C19.5901058,78.9697337 18.705463,79.466337 18.2362986,80.2928351 L18.2362986,80.2928351 Z" id="Path"></path>
                <path d="M21.8401037,99.083498 C22.4987697,98.5845032 23.1481587,98.0855088 23.7789938,97.5648189 C24.4086693,97.0429871 25.0221099,96.4891832 25.6146775,95.9228187 C26.2084046,95.3564542 26.7858971,94.7729617 27.3401969,94.1769089 C27.9501588,93.5169114 28.1554121,92.5874343 27.8794216,91.7378876 C27.604591,90.8871988 26.8891035,90.247755 26.0043109,90.0570639 C25.1183587,89.8675144 24.197618,90.157548 23.5888159,90.8175452 C23.1040932,91.3405187 22.6042955,91.8475065 22.0917422,92.3385079 C21.578029,92.8295092 21.0469217,93.3033828 20.4984197,93.7601283 C19.9533969,94.2191578 19.3886603,94.6610592 18.8134872,95.0824069 C18.2383141,95.5037546 17.6457465,95.9079743 17.0404233,96.2950662 C16.4350998,96.6810163 15.8216592,97.0429871 15.1908242,97.3901138 C14.0462759,98.0946437 13.6636004,99.5585134 14.3211069,100.718647 C14.9774535,101.879923 16.4420577,102.329817 17.6527044,101.742899 C18.3821073,101.340963 19.0999142,100.917331 19.7933688,100.47543 C20.4879832,100.033529 21.1721607,99.5722157 21.8401037,99.083498 L21.8401037,99.083498 Z" id="Path"></path>
                <path d="M106.25172,135.631173 C107.474628,136.360519 109.066067,135.974807 109.8055,134.76858 C110.557968,133.542484 111.291475,132.302361 112.006023,131.045875 C112.720571,129.789389 113.411419,128.523552 114.077383,127.248365 C114.748086,125.97084 115.398645,124.680458 116.029058,123.378388 C116.658287,122.072811 117.198642,120.903987 117.784026,119.576203 C118.153742,118.739325 118.043538,117.771538 117.493704,117.037517 C116.943869,116.303495 116.039723,115.914277 115.120172,116.015964 C114.200621,116.118821 113.406679,116.697389 113.036963,117.533098 C112.475279,118.810623 111.953884,119.923344 111.350725,121.177492 C110.747566,122.430471 110.121892,123.667088 109.477258,124.894353 C108.832625,126.122787 108.170216,127.338365 107.488848,128.543422 C106.808665,129.74848 106.101227,130.938343 105.377199,132.117687 C105.019332,132.698593 104.910314,133.395212 105.075027,134.054429 C105.238556,134.713645 105.662781,135.280525 106.25172,135.631173 L106.25172,135.631173 Z" id="Path"></path>
                <path d="M119.548627,112 C120.647624,111.998837 121.624379,111.307016 121.978174,110.278004 C122.253217,109.476886 122.524734,108.67228 122.784497,107.866511 C123.232323,106.48403 123.660168,105.08876 124.068031,103.684188 C124.473543,102.281941 124.837916,100.864578 125.203465,99.4472159 C125.567839,98.0298535 125.888722,96.5915622 126.196676,95.14862 C126.504631,93.7068404 126.784375,92.2615726 127.044138,90.7977015 C127.302726,89.3349927 127.529577,87.8769351 127.739974,86.4014363 C127.95037,84.9259378 128.127855,83.446951 128.288884,81.9563368 C128.451089,80.4657229 128.576857,78.9692952 128.682642,77.4658912 C128.787253,75.9624873 128.869531,74.4486186 128.918897,72.9347502 C128.967089,71.4208815 129,69.8860839 129,68.361751 C129,66.7141688 128.915371,65.0607734 128.743763,63.4317951 C128.578032,61.8237457 128.330023,60.2249981 128.002087,58.6413662 C127.681204,57.0809885 127.280393,55.5368891 126.799655,54.0160442 C126.335373,52.5324065 125.773533,51.039467 125.156449,49.5767582 C124.488823,48.0140552 123.066592,45.385133 122.485946,44.3282157 C121.808916,43.0957267 120.249164,42.6387756 119.003242,43.3085055 C117.756145,43.9782354 117.295389,45.5211718 117.972418,46.7548238 C119.110203,48.8198242 120.027014,50.6127467 120.426649,51.5545545 C121.544452,54.1671986 122.396615,56.8821624 122.971385,59.6599134 C123.265234,61.0761132 123.485034,62.5062653 123.631958,63.9445569 C123.782409,65.4130793 123.856459,66.8874149 123.855284,68.361751 C123.855284,69.8337613 123.829425,71.299958 123.777708,72.7615042 C123.72599,74.22305 123.649589,75.6741314 123.54733,77.1147483 C123.446245,78.5623414 123.318127,80.0006327 123.172378,81.4331105 C123.025453,82.8655883 122.843266,84.2910895 122.658729,85.7026384 C122.473016,87.1153499 122.23206,88.5303867 121.985226,89.9291455 C121.739568,91.3290669 121.471577,92.7231748 121.174202,94.1079806 C120.876826,95.4916241 120.560644,96.8659654 120.216253,98.2356562 C119.871861,99.604184 119.515715,100.958759 119.132536,102.299381 C118.750532,103.640004 118.336792,104.98644 117.907771,106.315435 C117.656236,107.095624 117.399999,107.869999 117.137886,108.636235 C116.680656,109.964068 117.397649,111.40701 118.739953,111.860473 C118.999716,111.950003 119.273584,111.996512 119.548627,112 L119.548627,112 Z" id="Path"></path>
                <path d="M99.5264956,23.5868844 C98.0870781,22.9659812 96.6072602,22.4155017 95.1239793,21.9460096 C92.0789245,20.985898 88.9461429,20.3379989 85.7741148,20.0128757 C84.8772204,19.9213246 84.0011034,20.3227405 83.4747407,21.0657117 C82.948378,21.8098566 82.8525706,22.7817056 83.2231022,23.6174016 C83.5936341,24.4519236 84.3739435,25.0235304 85.2696836,25.1150812 C86.6987124,25.2617977 88.119661,25.482459 89.5267577,25.7770654 C90.9119228,26.0622816 92.2832366,26.4202693 93.6337724,26.8486811 C94.9554507,27.2665291 96.2817465,27.7606695 97.5722585,28.3146702 C98.8639251,28.8686709 100.094413,29.4707945 101.316822,30.1480368 C102.540384,30.8252795 103.717774,31.5529923 104.847838,32.3323492 C105.976748,33.1128798 107.079108,33.9485758 108.145686,34.8429581 C108.992945,35.5530652 111.116865,37.6434789 112.727119,39.2808327 C113.717512,40.2526814 115.290829,40.237423 116.262753,39.2479683 C117.234677,38.2573399 117.247375,36.658719 116.290456,35.6528322 C115.702916,35.0554036 112.702879,32.0177895 111.353497,30.8839658 C110.163409,29.8839476 108.920224,28.9402684 107.666649,28.0810978 C106.413075,27.2231012 105.074082,26.3897525 103.715466,25.6385651 C102.355695,24.8873777 100.931284,24.189008 99.5264956,23.5868844 Z" id="Path"></path>
                <path d="M53.554452,28.2174681 C52.276858,29.0677586 50.9992639,29.9903412 49.8152665,30.9576759 C48.632439,31.9250107 47.4636512,32.9634897 46.3697405,34.0306559 C45.2758297,35.0989699 44.2205275,36.2418707 43.2389331,37.4100161 C42.2573383,38.5781618 41.3096722,39.8163043 40.4403937,41.0773967 C39.6471621,42.2271823 39.9548611,43.7900645 41.1271591,44.5680634 C42.2994568,45.3460622 43.8929393,45.0442721 44.686171,43.8944862 C45.463023,42.7607654 46.2972029,41.6660594 47.1852011,40.6138102 C48.0673492,39.5661512 49.0079957,38.546032 49.9966101,37.5855824 C50.9863943,36.6251327 52.0136175,35.700255 53.0841288,34.8281621 C54.1546404,33.9560691 55.2801401,33.1356132 56.4278687,32.3736793 C57.5744275,31.6117455 58.7865039,30.8922687 60.0056002,30.2381992 C61.2246962,29.5841296 62.5128198,28.9851393 63.8009434,28.4435237 C65.0890673,27.9019081 66.4508984,27.4211094 67.7928402,27.0126027 C69.1347817,26.6029486 70.5586204,26.2426366 71.9543805,25.9637963 C73.3372706,25.6872508 74.2299485,24.3630467 73.9479888,23.0067125 C73.6648588,21.6492312 72.3147275,20.7736957 70.9318371,21.0513883 C69.3722832,21.3646535 67.8057095,21.7582426 66.2777446,22.2241239 C64.7486095,22.6900053 63.2744625,23.2270307 61.8120152,23.8283161 C60.3507376,24.429601 58.9444483,25.0997356 57.5674076,25.8341296 C56.1891973,26.5685237 54.8425756,27.3660298 53.554452,28.2174681 Z" id="Path"></path>
                <path d="M30.5479517,85.7935062 C31.8285833,86.3420031 33.3162913,85.7602987 33.8715788,84.4926869 C33.9722247,84.2648148 34.1364972,83.9144179 34.3158088,83.5239432 C34.7253332,82.6513865 35.2077392,81.6059218 35.3974627,81.0780366 C35.6832042,80.2902165 35.9411816,79.4898003 36.1563557,78.6836588 C36.3703727,77.8786624 36.5901738,77.0553448 36.7625443,76.2297366 C36.9337582,75.4041287 37.086462,74.559054 37.2044607,73.7082544 C37.3236163,72.8585994 37.4150074,72.002074 37.4751633,71.1375333 C37.5353197,70.271847 37.5665544,69.3855495 37.5665544,68.5175734 C37.5665544,67.0656024 37.6405928,65.6136319 37.7886694,64.1673865 C37.9355893,62.7394625 38.1553908,61.3206992 38.4376617,59.9454494 C38.733815,58.5221057 39.4718848,55.5551846 39.8837231,54.2543653 C40.1544259,53.401275 39.945036,52.4691741 39.3330629,51.8107488 C38.7222467,51.1511785 37.8025516,50.8660518 36.9198757,51.0595715 C36.0372002,51.2542362 35.3280515,51.9000657 35.0561922,52.7531557 C34.5888252,54.2543653 33.8137362,57.3564069 33.4875049,58.9297568 C33.164744,60.4916559 32.9218055,62.0672962 32.759847,63.6520971 C32.5978878,65.248349 32.506497,66.8846787 32.506497,68.5084127 C32.506497,69.2584447 32.4810461,70.0290888 32.4255174,70.7814111 C32.3699886,71.5348784 32.2971074,72.2826207 32.1929908,73.0108959 C32.0900313,73.7391718 31.9627778,74.4685924 31.8089169,75.1945776 C31.6550561,75.9194181 31.4826857,76.6202113 31.2837073,77.3255851 C31.0835725,78.0309589 30.8637714,78.7088506 30.62199,79.3867423 C30.4646585,79.8241658 30.05282,80.6898519 29.7138633,81.4135471 C29.5125717,81.8486803 29.3297894,82.2357197 29.2083203,82.4910742 C28.9399314,83.104841 28.9306766,83.7987641 29.1817127,84.4194013 C29.433906,85.0400388 29.9255667,85.5347166 30.5479517,85.7935062 Z" id="Path"></path>
            </g>
        </g>
    </g>
</svg>