<?xml version="1.0" encoding="UTF-8"?>
<svg width="111px" height="111px" viewBox="0 0 111 111" version="1.1" xmlns="http://www.w3.org/2000/svg" xmlns:xlink="http://www.w3.org/1999/xlink">
    <!-- Generator: Sketch 62 (91390) - https://sketch.com -->
    <title>Group 4</title>
    <desc>Created with Sketch.</desc>
    <g id="Page-1" stroke="none" stroke-width="1" fill="none" fill-rule="evenodd">
        <g id="Group-4" transform="translate(0.000054, 0.001030)" fill-rule="nonzero">
            <path d="M94.7176333,16.2303354 C73.0726333,-5.41011182 37.8717583,-5.41011182 16.2267583,16.2303354 C-5.40891943,37.8707827 -5.40891943,73.0807632 16.2267583,94.7212104 C27.0492583,105.539158 41.261811,110.945638 55.4745806,110.945638 C69.6873501,110.945638 83.8951333,105.538941 94.7176333,94.7212104 C116.358081,73.08098 116.358081,37.8707827 94.7176333,16.2303354 Z" id="Path" fill="#F4DBDA"></path>
            <path d="M78.363561,71.8274604 C80.1718638,73.6357632 80.1718638,76.5588354 78.363561,78.3671382 C77.461686,79.2690132 76.2777583,79.7223354 75.0936138,79.7223354 C73.909686,79.7223354 72.7255415,79.2690132 71.8236665,78.3671382 L55.4743638,62.0130659 L39.1296138,78.3623687 C38.223186,79.2642437 37.0390415,79.7175659 35.8596665,79.7175659 C34.6757388,79.7175659 33.4915942,79.2642437 32.5897192,78.3623687 C30.7814165,76.5540659 30.7814165,73.6264409 32.5897192,71.8226909 L48.9344692,55.4733882 L32.5851665,39.1240854 C30.7768638,37.3157827 30.7768638,34.3881577 32.5851665,32.5844077 C34.3889165,30.776105 37.3165415,30.776105 39.1248442,32.5844077 L55.474147,48.9337104 L71.8234497,32.5844077 C73.6317524,30.776105 76.5548247,30.776105 78.3631274,32.5844077 C80.1714302,34.3881577 80.1714302,37.3157827 78.3631274,39.1240854 L62.0138247,55.4733882 L78.363561,71.8274604 Z" id="Path" fill="#E02020"></path>
        </g>
    </g>
</svg>