<?xml version="1.0" encoding="UTF-8"?>
<svg width="111px" height="111px" viewBox="0 0 111 111" version="1.1" xmlns="http://www.w3.org/2000/svg" xmlns:xlink="http://www.w3.org/1999/xlink">
    <!-- Generator: Sketch 62 (91390) - https://sketch.com -->
    <title>Group 3</title>
    <desc>Created with Sketch.</desc>
    <g id="Page-1" stroke="none" stroke-width="1" fill="none" fill-rule="evenodd">
        <g id="Group-3" transform="translate(0.000000, 0.001030)" fill-rule="nonzero">
            <path d="M94.7176333,16.2303354 C73.0726333,-5.41011182 37.8717583,-5.41011182 16.2267583,16.2303354 C-5.40891943,37.8707827 -5.40891943,73.0807632 16.2267583,94.7212104 C27.0492583,105.539158 41.261811,110.945638 55.4745806,110.945638 C69.6873501,110.945638 83.8951333,105.538941 94.7176333,94.7212104 C116.358081,73.08098 116.358081,37.8707827 94.7176333,16.2303354 Z" id="Path-Copy" fill="#F7E7DF"></path>
            <g id="time-left-copy" transform="translate(27.000000, 27.000000)" fill="#FA6400">
                <path d="M34.2213325,52.0695433 C33.7623698,52.1885224 33.2944336,52.2941849 32.8299672,52.3831703 C31.615798,52.6180172 30.8130919,53.8326997 31.0376677,55.0967909 C31.1485797,55.7186933 31.4881355,56.2366758 31.9491322,56.5748205 C32.4242471,56.9226727 33.0289388,57.0797351 33.6451165,56.960507 C34.1982407,56.8537245 34.7556722,56.7281492 35.3026945,56.5861459 C36.5016686,56.2757547 37.2321085,55.0122858 36.9329931,53.7657428 C36.6345955,52.5180797 35.4210245,51.7589032 34.2213325,52.0695433 Z" id="Path"></path>
                <path d="M51.6478709,21.4506139 C51.8042458,21.9276083 52.1027907,22.3170087 52.4798811,22.5860732 C53.039011,22.984656 53.7706308,23.1187653 54.468827,22.8851009 C55.639371,22.4917134 56.2735848,21.2141706 55.8863479,20.030021 C55.7099188,19.4902006 55.5141517,18.9486887 55.305612,18.4214335 C54.847708,17.2627768 53.5491991,16.6986717 52.4038422,17.1621343 C51.2596791,17.6253554 50.7021009,18.9399897 51.1603631,20.0990088 C51.3355985,20.5421739 51.4997325,20.9970584 51.6478709,21.4506139 Z" id="Path"></path>
                <path d="M41.4114683,48.4204377 C41.00336,48.7156658 40.5821388,49.0014053 40.157825,49.2691167 C39.0507741,49.9688262 38.6716132,51.5193834 39.3099396,52.7318788 C39.4832526,53.0616721 39.7140892,53.3312812 39.9799348,53.5373173 C40.6935985,54.0875151 41.6628402,54.1699295 42.4697787,53.6605323 C42.9742545,53.3417186 43.475885,53.0025723 43.9619284,52.6504132 C45.0275376,51.8789978 45.3208461,50.3062103 44.6164604,49.1380398 C43.9121984,47.9694627 42.4774485,47.6484801 41.4114683,48.4204377 Z" id="Path"></path>
                <path d="M56.976335,27.1371584 C56.9221629,25.9094015 55.7649826,24.9537922 54.3907145,25.0017273 C53.0181767,25.0501382 51.9480445,26.0846084 52.0019504,27.3118895 C52.022581,27.7811301 52.0279051,28.2573884 52.0157929,28.7261532 C51.9964932,29.4960883 52.4178911,30.1824046 53.0727481,30.5949081 C53.4628672,30.8404119 53.9363076,30.988975 54.4496782,30.9994422 C55.823547,31.0266808 56.9620932,30.0528728 56.9925733,28.8245212 C57.0062827,28.2644062 57.0010918,27.6969166 56.976335,27.1371584 Z" id="Path"></path>
                <path d="M51.0154502,42.47233 C49.9252717,41.6896318 48.3829267,41.9021325 47.5664454,42.9434613 C47.2537616,43.3422466 46.9244821,43.7361164 46.5873,44.1153658 C45.7061481,45.1060272 45.8306158,46.5940359 46.8658704,47.4378627 C46.9248773,47.4857572 46.9845427,47.5297446 47.0464473,47.5710852 C48.0756431,48.2654304 49.5060331,48.1058659 50.3381882,47.1714176 C50.7408311,46.7189399 51.1333322,46.2484388 51.5069986,45.7721399 C52.3236116,44.7308111 52.1025992,43.2538937 51.0154502,42.47233 Z" id="Path"></path>
                <path d="M54.4274752,34.1039344 C53.2453339,33.731104 51.9864225,34.3930287 51.6160062,35.5821042 C51.4742213,36.0363781 51.3170822,36.4928238 51.1474681,36.9398583 C50.7750126,37.9239374 51.1318741,39.006714 51.9499566,39.5869539 C52.1000184,39.6930114 52.2653143,39.782901 52.4448846,39.8511929 C53.6023154,40.2954522 54.8984124,39.7113513 55.3396012,38.5466486 C55.541003,38.0151541 55.7278905,37.4720766 55.8969049,36.9320156 C56.2669613,35.7426988 55.6093765,34.4767647 54.4274752,34.1039344 Z" id="Path"></path>
                <path d="M24.4375538,52.4196573 C22.3739238,52.0491405 20.3943447,51.4182005 18.5172066,50.5381921 C18.4949905,50.5265903 18.4751194,50.513384 18.4517925,50.5027696 C18.009445,50.2945545 17.5678381,50.0715285 17.1398076,49.8385053 C17.1383265,49.8367774 17.1356112,49.8356665 17.1332662,49.8346792 C16.3479266,49.4022038 15.5814707,48.9236916 14.8368607,48.3995127 C3.97910584,40.7509691 1.36846574,25.6948041 9.01747337,14.8371305 C10.6807197,12.4770296 12.6934995,10.5080573 14.9374503,8.94749271 C14.965097,8.92823867 14.9927437,8.90910805 15.0201436,8.88973059 C22.9274753,3.44133119 33.6643991,3.07414679 42.0607321,8.6728758 L40.2574009,11.2784657 C39.7560573,12.0037012 40.064491,12.5321998 40.9421508,12.4532089 L48.7754288,11.7519176 C49.6541995,11.6729266 50.179734,10.9127624 49.9433792,10.0641036 L47.8398836,2.48517067 C47.6043928,1.63552448 47.0014722,1.53382366 46.4996349,2.25893571 L44.6921073,4.87069675 C38.530345,0.734410759 31.1399082,-0.842815951 23.804518,0.429184868 C23.0657089,0.557051436 22.3372672,0.713552216 21.6188228,0.895725049 C21.6132688,0.896712435 21.6088255,0.897329552 21.6043823,0.898316939 C21.5766122,0.905105222 21.5484718,0.914115125 21.5214422,0.921643948 C15.1960212,2.54601837 9.6771685,6.23526507 5.73911566,11.4990232 C5.70591492,11.5383952 5.67172679,11.5769033 5.64037738,11.6197312 C5.50942574,11.7961031 5.37946148,11.976548 5.25221252,12.1569929 C5.0441216,12.4527152 4.83899283,12.7558429 4.6427505,13.0589706 C4.61818935,13.0955039 4.59942908,13.1326543 4.5779535,13.1695579 C1.32822989,18.2053531 -0.239240285,24.0272315 0.0295746799,29.9542666 C0.0301917941,29.9737675 0.0290809885,29.9933918 0.0295746799,30.0133864 C0.055616901,30.5923652 0.101530201,31.1793665 0.163858739,31.7572346 C0.167191156,31.7945084 0.175460487,31.8298075 0.181755052,31.8670813 C0.246181779,32.4481583 0.327023745,33.030593 0.428353904,33.6129043 C1.45819415,39.5542565 4.2608802,44.9005848 8.46058948,49.060568 C8.47033988,49.0703185 8.48046055,49.0809329 8.49033438,49.0910536 C8.49379022,49.0948797 8.49761633,49.0968545 8.50094875,49.1004338 C9.62928043,50.2133419 10.8565972,51.2426925 12.1780857,52.1734278 C15.6363939,54.610298 19.4873102,56.2210958 23.622963,56.9632403 C24.8778031,57.1887347 26.0764858,56.3534057 26.3016091,55.0991778 C26.526609,53.844086 25.6920237,52.6444112 24.4375538,52.4196573 Z" id="Path"></path>
                <path d="M26.8927251,10 C25.8470186,10 25,10.8232324 25,11.8372167 L25,30.1410239 L42.239216,38.794799 C42.516679,38.9343114 42.8137732,39 43.1061159,39 C43.790833,39 44.4521677,38.6379235 44.7883993,38.0061715 C45.2679263,37.1045014 44.9050613,35.9967803 43.9765169,35.5311319 L28.7833246,27.9037259 L28.7833246,11.8372167 C28.7831995,10.8232324 27.9371813,10 26.8927251,10 Z" id="Path"></path>
            </g>
        </g>
    </g>
</svg>