<?xml version="1.0" encoding="UTF-8"?>
<svg width="18px" height="17px" viewBox="0 0 18 17" version="1.1" xmlns="http://www.w3.org/2000/svg" xmlns:xlink="http://www.w3.org/1999/xlink">
    <!-- Generator: Sketch 62 (91390) - https://sketch.com -->
    <title>question</title>
    <desc>Created with Sketch.</desc>
    <g id="Page-1" stroke="none" stroke-width="1" fill="none" fill-rule="evenodd">
        <g id="more" transform="translate(-27.000000, -473.000000)" fill="#000000">
            <g id="Group-7" transform="translate(27.000000, 451.000000)">
                <g id="question" transform="translate(0.000000, 21.000000)">
                    <path d="M17.9332467,16.3948293 L16.766183,12.9983845 C17.3275185,11.8637017 17.6243894,10.5989624 17.6263816,9.32635397 C17.6297683,7.13488291 16.781855,5.06271059 15.2387637,3.49167267 C13.69544,1.92033593 11.6388593,1.03587173 9.44793795,1.00110808 C8.30006583,0.982680361 7.18622711,1.19418411 6.13567393,1.62904513 C5.12240809,2.0484999 4.21373271,2.65608344 3.43491554,3.43489537 C2.65606516,4.21370731 2.04847753,5.12237657 1.62905313,6.13563559 C1.1941892,7.1861817 0.982916444,8.30057738 1.00107866,9.44787732 C1.03577614,11.6387839 1.92027949,13.6953508 3.49162681,15.2386973 C5.0596206,16.7787567 7.12646113,17.6263987 9.31323207,17.6263655 C9.3175153,17.6263655 9.32203095,17.6263655 9.32631418,17.6263655 C10.5989312,17.6243733 11.863679,17.3275044 12.9984026,16.7661728 L16.3948703,17.9332286 C16.5254922,17.9781192 16.659368,18 16.7917828,18 C17.1063511,18 17.4123529,17.8764181 17.6443778,17.6443284 C17.9740536,17.3146548 18.0847867,16.8358661 17.9332467,16.3948293 Z M16.9316684,16.931657 C16.8982327,16.9650926 16.8266463,17.0158269 16.7223547,16.9800339 L13.1233135,15.7433513 C13.0700886,15.7250895 13.0147387,15.7159919 12.9595547,15.7159919 C12.8782066,15.7159919 12.7972237,15.7356813 12.7238775,15.7744958 C11.683717,16.3247708 10.5083193,16.616626 9.32472042,16.618419 C5.355263,16.6248272 2.07171985,13.4007065 2.00883276,9.43190663 C1.97718999,7.43510535 2.73674924,5.55843289 4.14759169,4.14759993 C5.55843414,2.73680018 7.43455478,1.97737886 9.43193395,2.008955 C13.4007273,2.07187488 16.6246041,5.35376898 16.6184283,9.32479343 C16.6165689,10.5084176 16.3247449,11.6838073 15.7744994,12.7238945 C15.7093544,12.8470116 15.6980985,12.9916111 15.7433546,13.1233278 L16.9800457,16.7223447 C17.015872,16.8265692 16.9651374,16.8982547 16.9316684,16.931657 Z" id="Shape" fill-rule="nonzero" transform="translate(9.500000, 9.500000) rotate(93.000000) translate(-9.500000, -9.500000) "></path>
                    <path d="M9.5,13 C9.23868991,13 8.98834043,13.229971 9.00042014,13.5 C9.01253277,13.7708855 9.21992851,14 9.5,14 C9.76131009,14 10.0116596,13.770029 9.99957986,13.5 C9.98746723,13.2290816 9.78007149,13 9.5,13 Z" id="Path" fill-rule="nonzero"></path>
                    <rect id="Rectangle" x="9" y="5" width="1" height="7" rx="0.5"></rect>
                </g>
            </g>
        </g>
    </g>
</svg>