<?xml version="1.0" encoding="UTF-8"?>
<svg width="210px" height="210px" viewBox="0 0 210 210" version="1.1" xmlns="http://www.w3.org/2000/svg" xmlns:xlink="http://www.w3.org/1999/xlink">
    <!-- Generator: Sketch 62 (91390) - https://sketch.com -->
    <title>Group 2</title>
    <desc>Created with Sketch.</desc>
    <defs>
        <linearGradient x1="100%" y1="50%" x2="0%" y2="50%" id="linearGradient-1">
            <stop stop-color="#022A6B" offset="0%"></stop>
            <stop stop-color="#7BDAF4" offset="100%"></stop>
        </linearGradient>
        <linearGradient x1="100%" y1="50%" x2="0%" y2="50%" id="linearGradient-2">
            <stop stop-color="#022A6B" offset="0%"></stop>
            <stop stop-color="#7BDAF4" offset="100%"></stop>
        </linearGradient>
        <linearGradient x1="100%" y1="50%" x2="0%" y2="50%" id="linearGradient-3">
            <stop stop-color="#022A6B" offset="0%"></stop>
            <stop stop-color="#7BDAF4" offset="100%"></stop>
        </linearGradient>
        <linearGradient x1="100%" y1="50%" x2="0%" y2="50%" id="linearGradient-4">
            <stop stop-color="#022A6B" offset="0%"></stop>
            <stop stop-color="#7BDAF4" offset="100%"></stop>
        </linearGradient>
        <linearGradient x1="100%" y1="50%" x2="0%" y2="50%" id="linearGradient-5">
            <stop stop-color="#022A6B" offset="0%"></stop>
            <stop stop-color="#7BDAF4" offset="100%"></stop>
        </linearGradient>
        <linearGradient x1="100%" y1="50%" x2="0%" y2="50%" id="linearGradient-6">
            <stop stop-color="#022A6B" offset="0%"></stop>
            <stop stop-color="#7BDAF4" offset="100%"></stop>
        </linearGradient>
        <linearGradient x1="100%" y1="50%" x2="0%" y2="50%" id="linearGradient-7">
            <stop stop-color="#022A6B" offset="0%"></stop>
            <stop stop-color="#7BDAF4" offset="100%"></stop>
        </linearGradient>
        <linearGradient x1="100%" y1="50%" x2="0%" y2="50%" id="linearGradient-8">
            <stop stop-color="#022A6B" offset="0%"></stop>
            <stop stop-color="#7BDAF4" offset="100%"></stop>
        </linearGradient>
        <linearGradient x1="100%" y1="50%" x2="0%" y2="50%" id="linearGradient-9">
            <stop stop-color="#022A6B" offset="0%"></stop>
            <stop stop-color="#7BDAF4" offset="100%"></stop>
        </linearGradient>
        <linearGradient x1="100%" y1="50%" x2="0%" y2="50%" id="linearGradient-10">
            <stop stop-color="#022A6B" offset="0%"></stop>
            <stop stop-color="#7BDAF4" offset="100%"></stop>
        </linearGradient>
        <linearGradient x1="100%" y1="50%" x2="0%" y2="50%" id="linearGradient-11">
            <stop stop-color="#022A6B" offset="0%"></stop>
            <stop stop-color="#7BDAF4" offset="100%"></stop>
        </linearGradient>
        <linearGradient x1="100%" y1="50%" x2="0%" y2="50%" id="linearGradient-12">
            <stop stop-color="#022A6B" offset="0%"></stop>
            <stop stop-color="#7BDAF4" offset="100%"></stop>
        </linearGradient>
        <linearGradient x1="100%" y1="50%" x2="0%" y2="50%" id="linearGradient-13">
            <stop stop-color="#022A6B" offset="0%"></stop>
            <stop stop-color="#7BDAF4" offset="100%"></stop>
        </linearGradient>
        <linearGradient x1="100%" y1="50%" x2="0%" y2="50%" id="linearGradient-14">
            <stop stop-color="#022A6B" offset="0%"></stop>
            <stop stop-color="#7BDAF4" offset="100%"></stop>
        </linearGradient>
        <linearGradient x1="100%" y1="50%" x2="0%" y2="50%" id="linearGradient-15">
            <stop stop-color="#022A6B" offset="0%"></stop>
            <stop stop-color="#7BDAF4" offset="100%"></stop>
        </linearGradient>
        <linearGradient x1="100%" y1="50%" x2="0%" y2="50%" id="linearGradient-16">
            <stop stop-color="#022A6B" offset="0%"></stop>
            <stop stop-color="#7BDAF4" offset="100%"></stop>
        </linearGradient>
        <linearGradient x1="100%" y1="50%" x2="0%" y2="50%" id="linearGradient-17">
            <stop stop-color="#022A6B" offset="0%"></stop>
            <stop stop-color="#7BDAF4" offset="100%"></stop>
        </linearGradient>
        <linearGradient x1="100%" y1="50%" x2="0%" y2="50%" id="linearGradient-18">
            <stop stop-color="#022A6B" offset="0%"></stop>
            <stop stop-color="#7BDAF4" offset="100%"></stop>
        </linearGradient>
        <linearGradient x1="50%" y1="0%" x2="50%" y2="100%" id="linearGradient-19">
            <stop stop-color="#77D4F0" offset="0%"></stop>
            <stop stop-color="#103F7B" offset="100%"></stop>
        </linearGradient>
    </defs>
    <g id="Page-1" stroke="none" stroke-width="1" fill="none" fill-rule="evenodd">
        <g id="Change-password" transform="translate(-102.000000, -104.000000)">
            <g id="Group-2" transform="translate(102.000000, 104.000000)">
                <g id="Group">
                    <g id="Group-4">
                        <g id="Group-31">
                            <path d="M0.77418465,105.927403 C0.44645606,77.5617473 11.6424358,49.1645187 34.0742369,28.4143071 C56.5057809,7.66358208 85.7144951,-1.31616326 114.010967,1.17679865 L114.767442,0.477064904 C112.797472,0.291735568 110.816706,0.154150356 108.823345,0.0784271507 C80.845862,-0.98991176 54.1250576,8.88619097 33.5853429,27.8865549 C13.0448572,46.8876888 1.14329701,72.7393343 0.0737451141,100.6794 C-0.00259636931,102.669252 -0.016476639,104.651916 0.0174529092,106.627907 L0.77418465,105.927403" id="Fill-4" fill="url(#linearGradient-1)"></path>
                            <path d="M194.79091,52.0930233 L195.348837,51.5780877 C191.558728,45.1894215 187.053005,39.1567005 181.858847,33.5854085 C174.471698,25.6603438 166.04305,19.039307 156.86315,13.8372093 L156.27907,14.3748214 C165.382819,19.4844294 173.855824,26.0501763 181.332201,34.0702786 C186.569947,39.6884523 191.049517,45.7392637 194.79091,52.0930233" id="Fill-5" fill="url(#linearGradient-2)"></path>
                            <path d="M208.420947,91.8178377 C212.426593,124.066008 201.419572,157.731813 175.826225,181.453025 C133.597588,220.590278 67.4165276,218.057774 28.2983245,175.808274 C20.781938,167.690849 14.8098133,158.684984 10.3548851,149.160755 L9.76744186,149.704909 C14.3105252,159.313726 20.3416778,168.277296 27.7686203,176.29827 C46.8493126,196.908524 72.8091998,208.848432 100.865736,209.921265 C128.923046,210.994098 155.718345,201.073488 176.316491,181.982221 C196.91438,162.893016 208.848835,136.920145 209.921131,108.848802 C210.150541,102.880653 209.877311,96.9700145 209.129797,91.1627907 L208.420947,91.8178377" id="Fill-6" fill="url(#linearGradient-3)"></path>
                            <path d="M29.3016822,63.4883721 C32.4826911,57.6748991 36.3801017,52.139276 41.0129359,47.0146336 C72.2973551,12.4090706 125.39437,9.10422861 160.699327,39.0532966 L161.162791,38.5408582 C144.265529,24.1889755 122.90123,16.9131216 100.668356,18.0162806 C77.4648558,19.1670784 56.0969588,29.301 40.5021751,46.551894 C35.7827147,51.7718138 31.7683457,57.4567909 28.4883721,63.4883721 L29.3016822,63.4883721" id="Fill-7" fill="url(#linearGradient-4)"></path>
                            <path d="M18.7775007,100.116279 L18.0440863,100.116279 C17.8746396,103.189889 17.8597714,106.289245 18.0133244,109.406366 C19.1112671,131.674204 28.4231437,152.251015 44.3057574,167.674419 L44.7674419,167.161807 C26.1818846,149.090382 17.4050083,124.411648 18.7775007,100.116279" id="Fill-8" fill="url(#linearGradient-5)"></path>
                            <path d="M181.511628,63.4883721 C180.645091,61.8322686 179.726099,60.2036567 178.757453,58.6046512 L178.255814,59.1790666 C179.107072,60.5951474 179.911731,62.033433 180.678958,63.4883721 L181.511628,63.4883721" id="Fill-9" fill="url(#linearGradient-6)"></path>
                            <path d="M191.944115,100.116279 L191.205971,100.116279 C192.500883,122.417773 185.186525,145.20188 168.986059,163.029757 C142.442807,192.238245 100.257665,199.106928 66.4379806,182.472856 L65.9302326,183.031834 C79.1629002,189.611001 93.9340341,192.732942 109.109199,191.983954 C132.398787,190.835402 153.845208,180.715704 169.498967,163.492314 C185.15092,146.268411 193.136342,123.999571 191.983589,100.789674 C191.972237,100.564952 191.957015,100.340487 191.944115,100.116279" id="Fill-10" fill="url(#linearGradient-7)"></path>
                            <path d="M140.267082,191.27907 C141.541532,190.716758 142.820889,190.118757 144.069767,189.497599 L143.774273,188.837209 C142.535468,189.453464 141.265151,190.04874 140,190.605603 L140.267082,191.27907" id="Fill-11" fill="url(#linearGradient-8)"></path>
                            <path d="M29.0722051,160.348837 L28.4883721,160.804485 C29.3569155,162.026669 30.2627132,163.243154 31.1793881,164.418605 L31.744186,163.936171 C30.8337655,162.768414 29.9353099,161.560763 29.0722051,160.348837" id="Fill-12" fill="url(#linearGradient-9)"></path>
                            <path d="M24.9275393,153.837209 L24.4186047,154.220918 C25.0421723,155.460255 25.6969629,156.701777 26.3660268,157.906977 L26.8604651,157.496231 C26.1967537,156.298405 25.5464235,155.06808 24.9275393,153.837209" id="Fill-13" fill="url(#linearGradient-10)"></path>
                            <path d="M14.4025678,131.046512 L13.8372093,131.236725 C14.1683761,132.535383 14.5285695,133.840356 14.9081139,135.116279 L15.4651163,134.897773 C15.0886504,133.630944 14.7310958,132.334307 14.4025678,131.046512" id="Fill-14" fill="url(#linearGradient-11)"></path>
                            <path d="M40.3187149,172.55814 L39.8837209,173.058128 C40.8066008,173.993044 41.7629235,174.920276 42.7256502,175.813953 L43.1395349,175.294755 C42.1839237,174.407225 41.2347165,173.486396 40.3187149,172.55814" id="Fill-15" fill="url(#linearGradient-12)"></path>
                            <path d="M20.9435732,146.511628 L20.3488372,146.826997 C20.9408484,148.086367 21.5675381,149.350216 22.2110716,150.581395 L22.7906977,150.238098 C22.1516228,149.016141 21.5301349,147.76204 20.9435732,146.511628" id="Fill-16" fill="url(#linearGradient-10)"></path>
                            <path d="M16.982303,139.186047 L16.2790698,139.438111 C16.8300392,140.717702 17.4193566,142.002174 18.0312315,143.255814 L18.7209302,142.977285 C18.1146947,141.73161 17.5290429,140.456644 16.982303,139.186047" id="Fill-17" fill="url(#linearGradient-10)"></path>
                            <path d="M132.065525,194.534884 C133.358239,194.194444 134.65805,193.825511 135.930233,193.437582 L135.696784,192.906977 C134.434233,193.291739 133.143294,193.658773 131.860465,193.996047 L132.065525,194.534884" id="Fill-18" fill="url(#linearGradient-13)"></path>
                            <path d="M116.395349,196.939935 L116.482387,197.790698 C117.808713,197.567605 119.149045,197.303862 120.465116,197.007151 L120.349816,196.162791 C119.041998,196.457581 117.711921,196.719723 116.395349,196.939935" id="Fill-19" fill="url(#linearGradient-13)"></path>
                            <path d="M124.534884,195.498996 L124.679381,196.162791 C125.989393,195.86856 127.310694,195.541863 128.604651,195.190561 L128.431304,194.534884 C127.146128,194.882127 125.835614,195.207809 124.534884,195.498996" id="Fill-20" fill="url(#linearGradient-13)"></path>
                            <path d="M46.0473971,178.255814 L45.5813953,178.839036 C46.7664034,179.752289 47.988038,180.651445 49.2116448,181.511628 L49.6511628,180.909334 C48.4365718,180.055785 47.2245164,179.162157 46.0473971,178.255814" id="Fill-21" fill="url(#linearGradient-14)"></path>
                            <path d="M53.3024646,183.139535 L52.9069767,183.649259 C54.1180401,184.313218 55.3637052,184.963094 56.6085593,185.581395 L56.9767442,185.057588 C55.7416218,184.443375 54.5054181,183.799178 53.3024646,183.139535" id="Fill-22" fill="url(#linearGradient-8)"></path>
                            <path d="M70.7020171,191.397254 C69.7468647,191.096275 68.793701,190.786789 67.8553107,190.465116 L67.5581395,191.032125 C68.6303421,191.401163 69.722716,191.752496 70.8139535,192.093023 L70.7020171,191.397254" id="Fill-23" fill="url(#linearGradient-15)"></path>
                            <path d="M60.56261,187.209302 L60.2325581,187.808675 C61.4690094,188.446586 62.7366076,189.067003 64.0005414,189.651163 L64.3023256,189.038099 C63.0480761,188.457742 61.7896388,187.842396 60.56261,187.209302" id="Fill-24" fill="url(#linearGradient-8)"></path>
                            <path d="M34.6904542,166.860465 L34.1860465,167.289304 C35.0838366,168.245724 36.0167006,169.197578 36.9578915,170.116279 L37.4418605,169.666539 C36.5069778,168.754805 35.5816837,167.810158 34.6904542,166.860465" id="Fill-25" fill="url(#linearGradient-12)"></path>
                            <path d="M32.5581395,46.0664275 L31.9975304,45.5813953 C31.0760072,46.7614883 30.1693866,47.9766335 29.3023256,49.1932035 L29.8840693,49.6511628 C30.7438144,48.443997 31.6442031,47.2376861 32.5581395,46.0664275" id="Fill-26" fill="url(#linearGradient-9)"></path>
                            <path d="M42.7274635,33.372093 C41.7668325,34.2618855 40.8099929,35.187865 39.8837209,36.1253937 L40.3173555,36.627907 C41.2372296,35.6973078 42.1862496,34.7777444 43.1395349,33.895138 L42.7274635,33.372093" id="Fill-27" fill="url(#linearGradient-12)"></path>
                            <path d="M36.960264,39.0697674 C36.0197403,39.9867728 35.0860174,40.9364854 34.1860465,41.8948558 L34.6880454,42.3255814 C35.5819711,41.3741853 36.5081376,40.4307256 37.4418605,39.5211755 L36.960264,39.0697674" id="Fill-28" fill="url(#linearGradient-12)"></path>
                            <path d="M48.7495084,29.3023256 C47.9557594,29.9306278 47.1653408,30.5747043 46.3953488,31.2318856 L46.7614725,31.744186 C47.4413213,31.1639348 48.137378,30.5953322 48.8372093,30.0369222 L48.7495084,29.3023256" id="Fill-29" fill="url(#linearGradient-12)"></path>
                            <path d="M87.9069767,12.9905437 L87.7779576,12.2093023 C86.4662166,12.4582694 85.1442536,12.7427608 83.8372093,13.0482709 L83.9336283,13.8372093 C85.2506185,13.5278507 86.5841849,13.241583 87.9069767,12.9905437" id="Fill-30" fill="url(#linearGradient-13)"></path>
                            <path d="M108.255814,198.018701 L108.343559,198.604651 C109.66735,198.553202 111.00661,198.477787 112.325581,198.377967 L112.266493,197.790698 C110.938138,197.891617 109.587719,197.968132 108.255814,198.018701" id="Fill-31" fill="url(#linearGradient-16)"></path>
                            <path d="M26.3699643,52.0930233 C25.7009584,53.2973645 25.0443702,54.5369028 24.4186047,55.7769868 L24.9237407,56.1627907 C25.5444061,54.9317106 26.1961159,53.7009034 26.8604651,52.5047475 L26.3699643,52.0930233" id="Fill-32" fill="url(#linearGradient-10)"></path>
                            <path d="M22.2152729,59.4186047 C21.5713686,60.6469153 20.9432294,61.9087013 20.3488372,63.1702238 L20.9378101,63.4883721 C21.528261,62.2363387 22.1512273,60.9837782 22.7906977,59.7641659 L22.2152729,59.4186047" id="Fill-33" fill="url(#linearGradient-10)"></path>
                            <path d="M13.150733,82.2093023 C12.8076268,83.507909 12.4911773,84.8327578 12.2093023,86.14611 L12.9029047,86.2790698 C13.1824043,84.9752146 13.4967424,83.6608627 13.8372093,82.3717531 L13.150733,82.2093023" id="Fill-34" fill="url(#linearGradient-11)"></path>
                            <path d="M18.8517442,66.744186 C18.2376453,67.9983782 17.6459079,69.2818511 17.0930233,70.5596733 L17.7884615,70.8139535 C18.3379919,69.5458915 18.9252572,68.2714083 19.5348837,67.0269765 L18.8517442,66.744186" id="Fill-35" fill="url(#linearGradient-10)"></path>
                            <path d="M15.728387,74.0697674 C15.3464759,75.3461911 14.9834864,76.6508787 14.6511628,77.9462291 L15.2096752,78.1395349 C15.5398238,76.8532693 15.8997685,75.5584236 16.2790698,74.2910849 L15.728387,74.0697674" id="Fill-36" fill="url(#linearGradient-11)"></path>
                            <path d="M193.517175,131.860465 C193.88239,130.570455 194.224795,129.256607 194.534884,127.954552 L193.917082,127.790698 C193.610082,129.082966 193.269103,130.387781 192.906977,131.668507 L193.517175,131.860465" id="Fill-37" fill="url(#linearGradient-11)"></path>
                            <path d="M189.004555,67.5581395 L189.651163,67.2770359 C189.080534,66.0079128 188.471651,64.7341132 187.842192,63.4883721 L187.209302,63.7988331 C187.83375,65.0347019 188.437619,66.299928 189.004555,67.5581395" id="Fill-38" fill="url(#linearGradient-10)"></path>
                            <path d="M176.083744,46.3953488 L176.627907,46.0000467 C175.743741,45.0326889 174.824502,44.0702344 173.895316,43.1395349 L173.372093,43.5563183 C174.294212,44.4795461 175.206384,45.4349958 176.083744,46.3953488" id="Fill-39" fill="url(#linearGradient-12)"></path>
                            <path d="M147.657987,188.023256 C148.91229,187.424377 150.170586,186.789291 151.395349,186.139721 L151.036064,185.581395 C149.819551,186.227344 148.571369,186.856637 147.325581,187.451171 L147.657987,188.023256" id="Fill-40" fill="url(#linearGradient-8)"></path>
                            <path d="M180.882002,52.9069767 L181.511628,52.4890292 C180.661519,51.2582977 179.771917,50.0300722 178.86754,48.8372093 L178.255814,49.2824445 C179.153656,50.4666756 180.037008,51.6857124 180.882002,52.9069767" id="Fill-41" fill="url(#linearGradient-9)"></path>
                            <path d="M104.184531,12.1212631 L104.186047,11.3955489 C102.836783,11.3925691 101.468068,11.4229088 100.116279,11.4844008 L100.145836,12.2093023 C101.486257,12.1483521 102.845625,12.1185542 104.184531,12.1212631" id="Fill-42" fill="url(#linearGradient-16)"></path>
                            <path d="M92.0594446,12.2093023 L92.24564,12.1904784 C93.5071794,12.0657699 94.7861673,11.9609714 96.0465116,11.8786168 L95.9908203,11.3953488 C94.7218713,11.4786085 93.4345178,11.584312 92.1617445,11.7099255 L91.9767442,11.7283874 L92.0594446,12.2093023" id="Fill-43" fill="url(#linearGradient-16)"></path>
                            <path d="M112.264272,12.2093023 L112.325581,11.6322925 C110.987335,11.5280892 109.628233,11.4485315 108.286971,11.3953488 L108.255814,11.9736558 C109.588784,12.0266222 110.93683,12.1057476 112.264272,12.2093023" id="Fill-44" fill="url(#linearGradient-16)"></path>
                            <path d="M136.505354,17.9069767 L136.744186,17.3851397 C135.469487,16.9939179 134.171234,16.6216228 132.884378,16.2790698 L132.674419,16.8090183 C133.95165,17.1488675 135.240279,17.5184588 136.505354,17.9069767" id="Fill-45" fill="url(#linearGradient-13)"></path>
                            <path d="M128.426377,15.4651163 L128.604651,14.8207364 C127.314665,14.466128 125.995133,14.1357088 124.683362,13.8372093 L124.534884,14.488821 C125.835637,14.784328 127.145654,15.113251 128.426377,15.4651163" id="Fill-46" fill="url(#linearGradient-13)"></path>
                            <path d="M120.344579,13.8372093 L120.465116,13.0062196 C119.147206,12.7039841 117.808289,12.4355057 116.485377,12.2093023 L116.395349,13.0466018 C117.709008,13.2721741 119.037422,13.5381287 120.344579,13.8372093" id="Fill-47" fill="url(#linearGradient-13)"></path>
                            <path d="M185.031812,60.2325581 L185.581395,59.8837363 C184.972341,58.6313557 184.331552,57.3792434 183.676895,56.1627907 L183.139535,56.5389607 C183.789491,57.7462973 184.425813,58.9895618 185.031812,60.2325581" id="Fill-48" fill="url(#linearGradient-10)"></path>
                            <path d="M173.892283,167.674419 C174.82326,166.743417 175.743557,165.782935 176.627907,164.81707 L176.088962,164.418605 C175.211384,165.376982 174.2976,166.331381 173.372093,167.255363 L173.892283,167.674419" id="Fill-49" fill="url(#linearGradient-12)"></path>
                            <path d="M178.860509,161.162791 C179.765294,159.972896 180.658787,158.746506 181.511628,157.515657 L180.888865,157.093023 C180.040259,158.315235 179.15467,159.533825 178.255814,160.713968 L178.860509,161.162791" id="Fill-50" fill="url(#linearGradient-9)"></path>
                            <path d="M183.66843,154.651163 C184.327045,153.433823 184.969824,152.182721 185.581395,150.93403 L185.037129,150.581395 C184.430915,151.821244 183.792561,153.063503 183.139535,154.271196 L183.66843,154.651163" id="Fill-51" fill="url(#linearGradient-10)"></path>
                            <path d="M155.052462,183.953488 C156.285574,183.112744 157.520892,182.231633 158.72093,181.333097 L158.294274,180.697674 C157.101126,181.590983 155.876007,182.466286 154.651163,183.298608 L155.052462,183.953488" id="Fill-52" fill="url(#linearGradient-14)"></path>
                            <path d="M187.833017,147.325581 C188.464564,146.083407 189.075486,144.810548 189.651163,143.54315 L189.012567,143.255814 C188.442634,144.514891 187.835889,145.778649 187.209302,147.011982 L187.833017,147.325581" id="Fill-53" fill="url(#linearGradient-10)"></path>
                            <path d="M161.542328,179.069767 C162.511924,178.196432 163.479445,177.284441 164.418605,176.357522 L164.017392,175.813953 C163.085612,176.733942 162.125008,177.639001 161.162791,178.507005 L161.542328,179.069767" id="Fill-54" fill="url(#linearGradient-12)"></path>
                            <path d="M168.120177,173.372093 C169.07311,172.465976 170.018488,171.527587 170.930233,170.582495 L170.463271,170.116279 C169.559081,171.054917 168.620284,171.986852 167.674419,172.884528 L168.120177,173.372093" id="Fill-55" fill="url(#linearGradient-12)"></path>
                            <path d="M196.17993,91.1627907 L196.976744,91.0612591 C196.731987,89.7333455 196.450546,88.3984298 196.140239,87.0930233 L195.348837,87.2233138 C195.65764,88.5189673 195.937277,89.84388 196.17993,91.1627907" id="Fill-56" fill="url(#linearGradient-11)"></path>
                            <path d="M191.212049,140 C191.807734,138.736004 192.377912,137.441991 192.906977,136.154084 L192.14714,135.930233 C191.622577,137.207965 191.0563,138.492311 190.465116,139.746641 L191.212049,140" id="Fill-57" fill="url(#linearGradient-10)"></path>
                            <path d="M192.13439,74.8837209 L192.906977,74.6638573 C192.381983,73.3759755 191.815318,72.0799507 191.224015,70.8139535 L190.465116,71.061809 C191.053377,72.3194086 191.614871,73.6047457 192.13439,74.8837209" id="Fill-58" fill="url(#linearGradient-10)"></path>
                            <path d="M194.720378,83.0232558 L195.348837,82.8636817 C195.043303,81.5604515 194.704679,80.2446563 194.343351,78.9534884 L193.72093,79.1419617 C194.080809,80.4240829 194.416534,81.7295749 194.720378,83.0232558" id="Fill-59" fill="url(#linearGradient-11)"></path>
                            <path d="M197.790698,99.2586752 C197.722851,97.926838 197.627907,96.5721722 197.510882,95.2325581 L196.976744,95.3058104 C197.092364,96.635139 197.185502,97.9800212 197.254552,99.3023256 L197.790698,99.2586752" id="Fill-60" fill="url(#linearGradient-17)"></path>
                            <path d="M196.126204,123.72093 C196.442601,122.411192 196.729966,121.077194 196.976744,119.755952 L196.19286,119.651163 C195.947563,120.962152 195.663161,122.286645 195.348837,123.58713 L196.126204,123.72093" id="Fill-61" fill="url(#linearGradient-11)"></path>
                            <path d="M197.503606,115.581395 C197.622601,114.249804 197.719222,112.895389 197.790698,111.556775 L197.261262,111.511628 C197.189984,112.839958 197.095145,114.183338 196.976744,115.50615 L197.503606,115.581395" id="Fill-62" fill="url(#linearGradient-17)"></path>
                            <path d="M197.761503,107.44186 C197.798412,106.090661 197.80017,104.721018 197.767655,103.372093 L196.983189,103.386494 C197.014825,104.725566 197.012482,106.084598 196.976744,107.426449 L197.761503,107.44186" id="Fill-63" fill="url(#linearGradient-17)"></path>
                            <path d="M60.8784602,99.3023256 C61.0112543,97.3313972 61.1499675,95.2597551 61.1993793,94.4186047 L61.2145631,94.4186047 L60.8784602,99.3023256" id="Fill-100" fill="url(#linearGradient-18)"></path>
                        </g>
                    </g>
                    <g id="checked" transform="translate(77.000000, 87.000000)" fill="#FFFFFF" fill-rule="nonzero">
                        <path d="M54.1999187,9.79595207 L26.8276379,35.2444036 C26.1566787,35.8689414 25.3743688,36.2889651 24.5552989,36.5096058 C23.8490073,36.8328702 23.0909661,37 22.3300698,37 C20.9760171,37 19.6198229,36.4876151 18.5591363,35.4544154 L1.70592571,19.0251115 C-0.487896779,16.8861427 -0.577476972,13.3262036 1.50499484,11.0732493 C3.58568219,8.82029493 7.0532565,8.72720067 9.24814967,10.8661695 L22.6626943,23.9426141 L46.847205,1.45521971 C49.0892081,-0.629505241 52.5528566,-0.453579085 54.5828651,1.84958751 C56.6128736,4.15312061 56.4415648,7.71012758 54.1999187,9.79595207 Z" id="Shape"></path>
                    </g>
                </g>
                <path d="M182.651163,104.325325 C182.651163,147.031681 148.030627,181.651163 105.325581,181.651163 C62.6200224,181.651163 28,147.031681 28,104.325325 C28,61.6197388 62.6200224,27 105.325581,27 C148.030627,27 182.651163,61.6197388 182.651163,104.325325" id="Fill-3" fill="#F6F6F6"></path>
                <g id="key-2" transform="translate(76.000000, 75.000000)" fill-rule="nonzero">
                    <path d="M38.08756,0 C27.1077388,0 18.1748898,8.79402344 18.1748898,19.603207 C18.1748898,22.0062422 18.608587,24.3414219 19.4649345,26.5590156 L0.425066909,45.3043438 C0.152927429,45.5723672 0,45.9356602 0,46.3144727 L0,56.5714102 C0,57.3604141 0.649682666,58 1.45114207,58 L10.0371714,58 C10.4216188,58 10.7903016,57.8499023 11.0624411,57.5824453 L13.9558649,54.738293 C14.2285797,54.4702695 14.3817373,54.1065234 14.3817373,53.7272578 L14.3817373,50.2295859 L17.9301369,50.2295859 C18.7315963,50.2295859 19.381279,49.59 19.381279,48.8009961 L19.381279,47.4008398 L20.8036537,47.4008398 C21.604998,47.4008398 22.2547957,46.7612539 22.2547957,45.97225 L22.2547957,42.89825 L25.377323,42.89825 C25.7621155,42.89825 26.1311436,42.7476992 26.4033981,42.4797891 L31.0201034,37.934832 C33.2730501,38.7786641 35.645439,39.2061875 38.0873299,39.2061875 C49.067151,39.2061875 58,30.4121641 58,19.6029805 C58,8.79402344 49.0673812,0 38.08756,0 Z M38.08756,36.3490078 C35.7122944,36.3490078 33.4150459,35.8767383 31.2594481,34.9451133 C30.7020512,34.7042773 30.0743468,34.8368164 29.6633184,35.2311484 C29.6588307,35.2353398 29.6544581,35.2387383 29.6500854,35.2431563 L24.7764298,40.0410703 L20.8038838,40.0410703 C20.0024244,40.0410703 19.3527417,40.6806562 19.3527417,41.4696602 L19.3527417,44.5436602 L17.9303671,44.5436602 C17.1290227,44.5436602 16.479225,45.1832461 16.479225,45.97225 L16.479225,47.3724063 L12.9307103,47.3724063 C12.1293659,47.3724063 11.4795682,48.0119922 11.4795682,48.8009961 L11.4795682,53.1347969 L9.43673853,55.142707 L2.90251427,55.142707 L2.90251427,53.1239219 L20.6394494,35.66275 C21.1495527,35.1605742 21.1495527,34.3465352 20.6394494,33.8444727 C20.1293461,33.3424102 19.3026865,33.3421836 18.792238,33.8444727 L2.90251427,49.4873672 L2.90251427,46.9063672 L22.1992171,27.9081953 C22.2035898,27.9038906 22.2069268,27.8999258 22.2109542,27.8957344 C22.6116264,27.4914336 22.746718,26.8734844 22.5020802,26.3242969 C21.5566688,24.2023125 21.0775192,21.9408789 21.0775192,19.6033203 C21.0775192,10.3695391 28.7083562,2.85729297 38.0879052,2.85729297 C47.4674542,2.85729297 55.0980611,10.3694258 55.0980611,19.6033203 C55.0980611,28.836875 47.4668788,36.3490078 38.08756,36.3490078 Z" id="Shape" fill="url(#linearGradient-19)"></path>
                    <path d="M41.5,11 C38.4672397,11 36,13.4672397 36,16.5 C36,19.5327603 38.4672397,22 41.5,22 C44.5327603,22 47,19.5327603 47,16.5 C47,13.4672397 44.5328768,11 41.5,11 Z M41.5,19.0632978 C40.0866058,19.0632978 38.9367022,17.9133942 38.9367022,16.5 C38.9367022,15.0866058 40.0866058,13.9367022 41.5,13.9367022 C42.9133942,13.9367022 44.0632978,15.0866058 44.0632978,16.5 C44.0632978,17.9133942 42.9133942,19.0632978 41.5,19.0632978 Z" id="Shape" fill="#63B7D9"></path>
                </g>
            </g>
        </g>
    </g>
</svg>