<?xml version="1.0" encoding="iso-8859-1"?>
<!-- Generator: Adobe Illustrator 16.0.0, SVG Export Plug-In . SVG Version: 6.00 Build 0)  -->
<!DOCTYPE svg PUBLIC "-//W3C//DTD SVG 1.1//EN" "http://www.w3.org/Graphics/SVG/1.1/DTD/svg11.dtd">
<svg version="1.1" id="Capa_1" xmlns="http://www.w3.org/2000/svg" xmlns:xlink="http://www.w3.org/1999/xlink" x="0px" y="0px"
	 width="366.521px" height="366.521px" viewBox="0 0 366.521 366.521" style="enable-background:new 0 0 366.521 366.521;"
	 xml:space="preserve">
<g>
	<g>
		<rect x="69.746" y="212.654" width="30.855" height="30.858"/>
		<path d="M85.172,123.011c8.521,0,15.429,6.905,15.429,15.426c0,8.521-6.909,15.43-15.429,15.43
			c-8.518,0-15.426-6.909-15.426-15.43C69.746,129.917,76.654,123.011,85.172,123.011z"/>
		<path d="M353.299,40.4H13.226C5.921,40.4,0,46.327,0,53.62v259.278c0,7.308,5.927,13.223,13.226,13.223h340.073
			c7.301,0,13.222-5.915,13.222-13.223V53.625C366.521,46.327,360.6,40.4,353.299,40.4z M127.053,256.741
			c0,7.302-5.915,13.223-13.226,13.223H56.521c-7.305,0-13.22-5.927-13.22-13.223v-57.31c0-7.302,5.921-13.223,13.22-13.223h57.307
			c7.311,0,13.226,5.921,13.226,13.223V256.741z M85.172,180.324c-23.095,0-41.883-18.789-41.883-41.887
			c0-23.082,18.789-41.877,41.883-41.877c23.097,0,41.88,18.789,41.88,41.877C127.053,161.535,108.27,180.324,85.172,180.324z
			 M310.004,261.88H184.047c-7.299,0-13.219-5.932-13.219-13.222c0-7.302,5.927-13.223,13.219-13.223h125.957
			c7.313,0,13.223,5.921,13.223,13.223C323.227,255.949,317.317,261.88,310.004,261.88z M310.004,217.793H184.047
			c-7.299,0-13.219-5.921-13.219-13.223s5.927-13.229,13.219-13.229h125.957c7.313,0,13.223,5.927,13.223,13.229
			S317.317,217.793,310.004,217.793z M310.004,173.709H184.047c-7.299,0-13.219-5.915-13.219-13.223
			c0-7.302,5.927-13.226,13.219-13.226h125.957c7.313,0,13.223,5.93,13.223,13.226C323.227,167.789,317.317,173.709,310.004,173.709
			z M310.004,129.623H184.047c-7.299,0-13.219-5.93-13.219-13.223c0-7.305,5.927-13.226,13.219-13.226h125.957
			c7.313,0,13.223,5.921,13.223,13.226C323.227,123.693,317.317,129.623,310.004,129.623z"/>
	</g>
</g>
<g>
</g>
<g>
</g>
<g>
</g>
<g>
</g>
<g>
</g>
<g>
</g>
<g>
</g>
<g>
</g>
<g>
</g>
<g>
</g>
<g>
</g>
<g>
</g>
<g>
</g>
<g>
</g>
<g>
</g>
</svg>
