<svg id="Capa_1" enable-background="new 0 0 512 512" height="512" viewBox="0 0 512 512" width="512" xmlns="http://www.w3.org/2000/svg"><g><g><g><g><g><g><g><path d="m475.001 57.732h-379.461c-20.401 0-36.999 16.598-36.999 36.999v19.007h-21.542c-20.401 0-36.999 16.598-36.999 36.999v266.533c0 20.4 16.598 36.998 36.999 36.998h379.461c20.401 0 36.999-16.598 36.999-36.998v-19.008h21.542c20.401 0 36.999-16.598 36.999-36.998v-266.533c0-20.401-16.598-36.999-36.999-36.999zm-41.542 359.538c0 9.373-7.626 16.998-16.999 16.998h-379.461c-9.373 0-16.999-7.625-16.999-16.998v-266.533c0-9.373 7.625-16.999 16.999-16.999h379.461c9.374 0 16.999 7.626 16.999 16.999zm58.541-56.006c0 9.373-7.625 16.998-16.999 16.998h-21.542v-227.525c0-20.401-16.598-36.999-36.999-36.999h-337.919v-19.007c0-9.373 7.625-16.999 16.999-16.999h379.461c9.373 0 16.999 7.626 16.999 16.999z"/><path d="m138.136 185.493c-54.319 0-98.51 44.191-98.51 98.51 0 35.089 18.896 67.798 49.313 85.362.004.003.008.004.012.007 14.895 8.597 31.903 13.142 49.185 13.142 17.288 0 34.3-4.547 49.198-13.148 30.417-17.564 49.313-50.272 49.313-85.362-.001-54.319-44.192-98.511-98.511-98.511zm34.197 169.2c-10.604 5.13-22.316 7.82-34.197 7.82s-23.593-2.69-34.197-7.82v-12.748c0-1.147.934-2.081 2.082-2.081h64.231c1.148 0 2.081.934 2.081 2.081zm19.971-13.883c-.593-11.65-10.258-20.946-22.053-20.946h-64.231c-11.796 0-21.46 9.295-22.053 20.946-15.318-14.658-24.342-35.164-24.342-56.807 0-43.29 35.22-78.51 78.51-78.51 43.291 0 78.51 35.22 78.51 78.51.001 21.644-9.022 42.15-24.341 56.807z"/><path d="m138.136 218.646c-25.498 0-46.242 20.744-46.242 46.242s20.744 46.242 46.242 46.242 46.242-20.744 46.242-46.242c0-25.497-20.744-46.242-46.242-46.242zm0 72.485c-14.47 0-26.242-11.772-26.242-26.242s11.772-26.242 26.242-26.242 26.242 11.772 26.242 26.242c0 14.469-11.772 26.242-26.242 26.242z"/></g></g></g></g></g><g><g><g><g><path d="m403.83 220.02c-4.168 0-8.01-2.703-9.406-6.631-1.395-3.926-.177-8.449 3.062-11.096 3.283-2.684 8.018-2.986 11.62-.758 3.575 2.211 5.403 6.567 4.48 10.668-1.015 4.508-5.128 7.817-9.756 7.817z"/></g></g><g><g><path d="m361.216 220.02h-86.037c-5.523 0-10-4.477-10-10 0-5.522 4.477-10 10-10h86.037c5.523 0 10 4.478 10 10 0 5.523-4.477 10-10 10z"/></g></g></g><g><g><path d="m403.833 269.342h-128.654c-5.523 0-10-4.478-10-10s4.477-10 10-10h128.655c5.523 0 10 4.478 10 10s-4.478 10-10.001 10z"/></g></g><g><g><path d="m403.833 318.664h-128.654c-5.523 0-10-4.478-10-10s4.477-10 10-10h128.655c5.523 0 10 4.478 10 10-.001 5.522-4.478 10-10.001 10z"/></g></g><g><g><path d="m403.833 367.985h-66c-5.523 0-10-4.478-10-10 0-5.523 4.477-10 10-10h66c5.523 0 10 4.477 10 10s-4.477 10-10 10z"/></g></g></g></g></g></svg>