<?xml version="1.0" encoding="UTF-8"?>
<svg width="379px" height="368px" viewBox="0 0 379 368" version="1.1" xmlns="http://www.w3.org/2000/svg" xmlns:xlink="http://www.w3.org/1999/xlink">
    <!-- Generator: Sketch 62 (91390) - https://sketch.com -->
    <title>Group 3</title>
    <desc>Created with Sketch.</desc>
    <defs>
        <path d="M60.6502031,31.1926769 C60.6502031,47.9479385 47.0786563,61.5307077 30.3360625,61.5307077 C13.5934687,61.5307077 0.02096875,47.9479385 0.02096875,31.1926769 C0.02096875,14.4374154 13.5934687,0.854646154 30.3360625,0.854646154 C47.0786563,0.854646154 60.6502031,14.4374154 60.6502031,31.1926769 L60.6502031,31.1926769 Z" id="path-1"></path>
        <polygon id="path-3" points="0.0574358974 0.0391978022 111.972239 0.0391978022 111.972239 173.643396 0.0574358974 173.643396"></polygon>
    </defs>
    <g id="Page-1" stroke="none" stroke-width="1" fill="none" fill-rule="evenodd">
        <g id="Identity" transform="translate(-8.000000, -118.000000)">
            <g id="Group-3" transform="translate(8.000000, 118.000000)">
                <g id="Group-40">
                    <circle id="Oval-Copy-14" fill-opacity="0.579108392" fill="#FFF9E4" cx="184" cy="184" r="184"></circle>
                    <circle id="Oval" fill="#FFFFFF" cx="339" cy="147" r="40"></circle>
                    <circle id="Oval-Copy-14" fill="#FFFFFF" cx="58" cy="106" r="47"></circle>
                </g>
                <g id="Group-2" transform="translate(8.000000, 115.000000)">
                    <path d="M105,138.121845 C105,138.121845 102.717701,146.706773 97.9838313,149.249626 L97.9762236,149.252547 L97.9733707,149.252547 C97.4037469,149.557378 96.8008394,149.773584 96.1598937,149.879739 C95.5617411,149.979077 94.9559808,150.016085 94.3540243,149.993685 C90.2363758,149.87 86.1871963,147.168401 84.2092035,143.938949 C83.5929827,142.932911 83.177414,141.877203 83.0233588,140.830261 C82.3063364,135.93544 98.3100099,121.502243 101.656431,121.013345 C102.918353,120.826357 103.706697,122.624176 104.193588,125.160211 C104.513109,126.811946 104.706154,128.774354 104.82122,130.709493 C105,133.667227 105,136.551919 105,138.121845" id="Fill-6" fill="#E98471"></path>
                    <path d="M130.48197,112.773234 C128.354067,125.963679 125.154995,136.183251 123.598767,140.691378 C123.058851,142.265096 121.666234,143.396446 120.012803,143.620989 C118.068721,143.887753 116.218957,144.050882 114.50393,143.985631 L114.500081,143.985631 C109.600418,143.801391 105.810421,141.768991 104.128117,135.050942 C103.925047,134.240093 103.725827,133.206621 103.537194,131.991787 C101.346733,118.063422 100.019561,80.3316104 100.019561,80.3316104 C90.5898034,84.6708503 75.3585988,86.478707 75.3585988,86.478707 C68.1058275,78.5237537 72.0940818,59.3598969 72.0940818,59.3598969 C72.0940818,59.3598969 101.107092,52.4892737 117.995578,62.1945087 C134.888876,71.8959053 130.48197,112.773234 130.48197,112.773234" id="Fill-7" fill="#E98471"></path>
                    <path d="M148.668493,121.008674 C148.741452,122.706333 148.013779,124.333818 146.701471,125.41336 C145.872039,126.093962 144.838128,126.851468 143.676539,127.488811 C140.306011,129.346047 135.873733,130.244864 132.299686,125.629653 C129.76051,122.347768 128.393483,117.46916 127.67349,112.661688 C126.490781,104.732868 127.072535,97.0136128 127.072535,97.0136128 C120.18172,90.1316512 115.96352,69.4828827 115.96352,69.4828827 C106.642007,70.2077045 99.9643099,66.9479292 99.9643099,66.9479292 C88.0268221,69.4828827 75.0035844,63.325743 75.0035844,63.325743 C75.0035844,63.325743 75.365501,45.9377111 75.0035844,44.4890289 C74.6416678,43.0403466 101.772933,32.8976485 117.327667,44.4890289 C132.882401,56.0813706 150,85.6933196 150,85.6933196 C148.129938,101.631708 148.437135,115.556168 148.668493,121.008674" id="Fill-8" fill="#E98471"></path>
                    <path d="M74,67.1609089 C74,67.1609089 88.0949622,73.5741038 98.6057986,70.9051727 C98.6057986,70.9051727 106.847671,74.0831315 114.252709,72.6105541 L117,67.1609089 C117,67.1609089 115.088593,69.9767283 100.517206,67.192319 C100.517206,67.192319 84.2721483,69.0196453 74,63 L74,67.1609089" id="Fill-9" fill="#C56B67"></path>
                    <path d="M128.999748,123 C128.999748,123 127.240678,124.150527 125.348865,131.306039 C123.456125,138.460616 124.108698,141 124.108698,141 C124.108698,141 129.040592,130.78732 128.999748,123" id="Fill-10" fill="#FADAC2"></path>
                    <polyline id="Fill-11" fill="#C56B67" points="128 113 149.141224 95.1705567 150 86 128 104.820985 128 113"></polyline>
                    <path d="M98.0324752,68.3008908 C98.0324752,68.3008908 98.2245475,61.4981903 104,55 C104,55 100.394557,65.9436462 102.267262,69.4824695 C102.267262,69.4824695 97.5665975,71.2306936 98.0324752,68.3008908" id="Fill-12" fill="#C56B67"></path>
                    <path d="M77.3366066,56 C77.3366066,56 75.2773109,64.5602146 82,65.6740041 C82,65.6740041 72,66.9969209 72,64.3128095 C72,61.6277646 77.3366066,56 77.3366066,56" id="Fill-13" fill="#C56B67"></path>
                    <path d="M85,70.6505135 C85,70.6505135 79.6835494,69.8589789 78.2191204,74.7951712 C76.7537197,79.7313636 80.3103289,84.9678934 80.3103289,84.9678934 L71.2545799,90 C71.2545799,90 69.7843204,66.5882065 73.9103758,66.0408171 C78.0354595,65.492459 85,70.6505135 85,70.6505135" id="Fill-14" fill="#C56B67"></path>
                    <path d="M128,104 L128,110.912524 C128,110.912524 113.477568,121.352906 111.304058,129.319655 C109.129597,137.286404 111.608711,142.562333 114.851363,143.997117 L114.848506,144 L114.844698,144 C109.997858,143.815487 106.248721,141.780074 104.584553,135.052063 C104.383672,134.240012 104.1866,133.205007 104,131.988372 C104.516006,127.92139 105.542306,124.402181 105.542306,124.402181 L128,104" id="Fill-15" fill="#C56B67"></path>
                    <path d="M105.149724,131.073409 C104.811134,131.556108 104.359354,132.016823 103.752428,132.434525 C103.752428,132.434525 94.1186917,138.092143 92.0969049,144.381571 C90.1512278,150.429172 97.5270417,149.366278 98.1007921,149.276429 C97.8656325,149.329956 96.3873473,149.661633 94.4094699,150 C90.1844039,149.878608 86.0295929,147.227108 84,144.057542 C86.4677118,141.835213 100.883676,128.861594 104.505719,125.627031 C104.833576,125.331677 105.075566,125.11948 105.20827,125 C105.20827,125 107.028074,128.372204 105.149724,131.073409" id="Fill-16" fill="#C56B67"></path>
                    <path d="M149.19154,102 C149.19154,102 147.117214,103.98642 147.004068,111.500474 C146.891821,119.014529 149.139458,121 149.139458,121 C149.139458,121 151.040475,109.659194 149.19154,102" id="Fill-17" fill="#FADAC2"></path>
                    <path d="M144,127.504323 C140.630114,129.342495 136.19868,130.232086 132.625315,125.664249 C130.086623,122.416051 128.719856,117.587521 128,112.829397 L128,112.794194 L136.278344,106 C135.095861,107.024695 131.735573,110.925577 132.665627,116.612301 C133.75021,123.244751 139.056029,129.51851 144,127.504323" id="Fill-18" fill="#C56B67"></path>
                    <path d="M117.174507,48.7342626 L117.174507,48.7342626 C117.174507,48.7342626 121.868915,53.1345304 125.89012,49.6707348 C132.418295,43.8101078 145.078311,33.6374872 155,32.9428091 C153.617563,31.5975899 152.141256,30.5526942 150.059067,29.0779424 C142.912682,24.0156196 127.527616,11 127.527616,11 C127.527616,11 115.733283,29.656521 111,40.7924798 C111.303416,40.8318194 111.49305,40.8932274 111.49305,40.8932274 C111.49305,40.8932274 113.634975,44.7129975 117.174507,48.7342626" id="Fill-19" fill="#EE9E7A"></path>
                    <path d="M170.960865,58.9689407 C165.623013,49.5475727 162.368527,43.8052613 159.957515,40 L159.964201,40.0181658 C159.964201,40.0181658 134.299905,57.6715187 127,62.7082313 C128.209327,63.4979665 129.430118,64.1853994 130.647087,64.7332422 C130.647087,64.7332422 147.204173,89.232241 159.801811,89.9531372 C172.400404,90.6730774 184.70383,83.2222228 170.960865,58.9689407" id="Fill-20" fill="#EE9E7A"></path>
                    <path d="M160,40 C158.684725,36.9137438 155,34 155,34 C156.550949,35.3755833 157.992372,37.0835466 160,40" id="Fill-21" fill="#C56B67"></path>
                    <path d="M159.993254,39.346522 L159.985545,39.3360303 C158.00718,36.2562407 156.586766,34.4526229 155.058423,33 L155.054569,33 C144.970977,33.6905443 132.104376,43.8026311 125.469673,49.6283835 C121.382851,53.0715672 116.61184,48.697484 116.61184,48.697484 C113.014549,44.700148 110.837673,40.903108 110.837673,40.903108 C110.837673,40.903108 110.644944,40.8420654 110.336577,40.80296 C109.788262,42.0648249 109.334385,43.2246341 109,44.2528203 C109,44.2528203 113.462645,50.4343365 119.436286,56.1103437 C120.274658,56.9077125 121.142903,57.6945897 122.032348,58.4528531 C123.553945,59.750962 125.137216,60.9651373 126.745541,62 C134.109723,56.9754317 160,39.364644 160,39.364644 L159.993254,39.346522" id="Fill-22" fill="#C56B67"></path>
                    <path d="M175,67.3662273 C175,67.3662273 168.949979,81.0928631 151.780269,87 L150,85.8343427 C150,85.8343427 167.539272,70.5031469 173.073063,63 C173.073063,63 174.42684,65.7711673 175,67.3662273" id="Fill-23" fill="#C56B67"></path>
                    <path d="M360.004495,16.5775381 C359.204261,15.6158355 357.992425,15 356.643707,15 L145.357251,15 C142.961337,15 141,16.94262 141,19.3166132 L141,148.683387 C141,150.017857 141.620276,151.215902 142.58898,152.009475 C143.343267,152.627232 144.308141,153 145.357251,153 L356.643707,153 C359.03962,153 361,151.056419 361,148.683387 L361,19.3166132 C361,18.279012 360.625728,17.3240346 360.004495,16.5775381" id="Fill-24" fill="#9A9E9B"></path>
                    <path d="M154.404738,139.160898 L323,36 L140,36 L140,143.722056 C140,145.03783 140.622243,146.217622 141.594018,147 L154.404738,139.160898" id="Fill-25" fill="#FFFFFE"></path>
                    <path d="M323.320248,36 L154.804666,139.184059 L152.670075,140.49055 L142,147.024921 C142.756321,147.633148 143.723797,148 144.775736,148 L356.631959,148 C359.034334,148 361,146.085282 361,143.746241 L361,36 L323.320248,36" id="Fill-26" fill="#E9DAD4"></path>
                    <path d="M356.639281,12 L145.357161,12 C142.961297,12 141,13.9125718 141,16.2511168 L141,36 L323.417841,36 L360,13.5536056 C359.199783,12.6059349 357.987972,12 356.639281,12" id="Fill-27" fill="#00AC8C"></path>
                    <text id="ID-CARD" font-family="LucidaGrande, Lucida Grande" font-size="16.4498" font-weight="normal" letter-spacing="0.0001" fill="#222A3A">
                        <tspan x="232" y="53">ID CARD</tspan>
                    </text>
                    <text id="ID:-1234567891234567" font-family="LucidaGrande, Lucida Grande" font-size="6.5775" font-weight="normal" letter-spacing="-0.0002" fill="#222A3A">
                        <tspan x="233" y="68">I</tspan>
                        <tspan x="234.894685" y="68" letter-spacing="-0.27974375">D</tspan>
                        <tspan x="239.541643" y="68">:          12345678912345678 </tspan>
                    </text>
                    <text id="Adress:-" font-family="LucidaGrande, Lucida Grande" font-size="6.5775" font-weight="normal" letter-spacing="0.0001" fill="#222A3A">
                        <tspan x="232" y="87">Adress: </tspan>
                    </text>
                    <text id="123-ANYWERE-STREET" font-family="LucidaGrande, Lucida Grande" font-size="6.5775" font-weight="normal" fill="#222A3A">
                        <tspan x="262" y="87">123 A</tspan>
                        <tspan x="281.096589" y="87" letter-spacing="-0.089454">N</tspan>
                        <tspan x="285.866392" y="87" letter-spacing="0.05196225">Y</tspan>
                        <tspan x="290.016445" y="87" letter-spacing="0.00065775">W</tspan>
                        <tspan x="295.643948" y="87">ERE STRE</tspan>
                        <tspan x="324.439781" y="87" letter-spacing="0.063144">E</tspan>
                        <tspan x="328.067879" y="87">T</tspan>
                    </text>
                    <text id="CITY,-12345-875." font-family="LucidaGrande, Lucida Grande" font-size="6.5775" font-weight="normal" fill="#222A3A">
                        <tspan x="262" y="96">C</tspan>
                        <tspan x="266.550936" y="96" letter-spacing="-0.0907695">I</tspan>
                        <tspan x="268.355052" y="96" letter-spacing="0.05196225">T</tspan>
                        <tspan x="272.566127" y="96" letter-spacing="-0.744573">Y</tspan>
                        <tspan x="275.919645" y="96">, 12345-875.</tspan>
                    </text>
                    <text id="--" font-family="LucidaGrande, Lucida Grande" font-size="6.5775" font-weight="normal"></text>
                    <text id="Phone:-" font-family="LucidaGrande, Lucida Grande" font-size="6.5775" font-weight="normal" letter-spacing="0.0003" fill="#222A3A">
                        <tspan x="232" y="120">Phone: </tspan>
                    </text>
                    <text id="+5581487898" font-family="LucidaGrande, Lucida Grande" font-size="6.5775" font-weight="normal" letter-spacing="0.0001" fill="#222A3A">
                        <tspan x="232" y="131">+5581487898</tspan>
                    </text>
                    <text id="--" font-family="LucidaGrande, Lucida Grande" font-size="6.5775" font-weight="normal"></text>
                    <text id="Name:-" font-family="LucidaGrande, Lucida Grande" font-size="6.5775" font-weight="normal" fill="#222A3A">
                        <tspan x="232" y="79">Name: </tspan>
                    </text>
                    <text id="NAME-SURNAME" font-family="LucidaGrande, Lucida Grande" font-size="6.5775" font-weight="normal" letter-spacing="0.057882" fill="#222A3A">
                        <tspan x="262" y="79">N</tspan>
                        <tspan x="266.917139" y="79" letter-spacing="-0.00065775">A</tspan>
                        <tspan x="271.45457" y="79">ME SUR</tspan>
                        <tspan x="295.025016" y="79">N</tspan>
                        <tspan x="299.942155" y="79">AME</tspan>
                    </text>
                    <text id="--" font-family="LucidaGrande, Lucida Grande" font-size="6.5775" font-weight="normal" letter-spacing="-0.0001"></text>
                    <text id="Expedition--Date:" font-family="LucidaGrande, Lucida Grande" font-size="5.9259" font-weight="normal" letter-spacing="0.0001" fill="#222A3A">
                        <tspan x="295" y="120">Expedition  Date:</tspan>
                    </text>
                    <text id="00/00/00" font-family="LucidaGrande, Lucida Grande" font-size="5.9259" font-weight="normal" letter-spacing="0.0001" fill="#222A3A">
                        <tspan x="294" y="130">00/00/00</tspan>
                    </text>
                    <polygon id="Fill-28" fill="#222A3A" points="162 131 164 131 164 117 162 117"></polygon>
                    <polygon id="Fill-29" fill="#222A3A" points="165 131 168 131 168 117 165 117"></polygon>
                    <polygon id="Fill-30" fill="#222A3A" points="168.0255 131 168.9745 131 168.9745 117 168.0255 117"></polygon>
                    <polygon id="Fill-31" fill="#222A3A" points="170.025 131 170.975 131 170.975 117 170.025 117"></polygon>
                    <polygon id="Fill-32" fill="#222A3A" points="172 131 174 131 174 117 172 117"></polygon>
                    <polygon id="Fill-33" fill="#222A3A" points="175 131 178 131 178 117 175 117"></polygon>
                    <polygon id="Fill-34" fill="#222A3A" points="178.0255 131 178.9745 131 178.9745 117 178.0255 117"></polygon>
                    <polygon id="Fill-35" fill="#222A3A" points="180.0255 131 180.9745 131 180.9745 117 180.0255 117"></polygon>
                    <polygon id="Fill-36" fill="#222A3A" points="190 131 192 131 192 117 190 117"></polygon>
                    <polygon id="Fill-37" fill="#222A3A" points="186 131 189 131 189 117 186 117"></polygon>
                    <polygon id="Fill-38" fill="#222A3A" points="184.0255 131 184.9745 131 184.9745 117 184.0255 117"></polygon>
                    <polygon id="Fill-39" fill="#222A3A" points="183.025 131 183.975 131 183.975 117 183.025 117"></polygon>
                    <polygon id="Fill-40" fill="#222A3A" points="193 131 195 131 195 117 193 117"></polygon>
                    <polygon id="Fill-41" fill="#222A3A" points="196 131 199 131 199 117 196 117"></polygon>
                    <polygon id="Fill-42" fill="#222A3A" points="199.025 131 199.975 131 199.975 117 199.025 117"></polygon>
                    <polygon id="Fill-43" fill="#222A3A" points="201.0255 131 201.9745 131 201.9745 117 201.0255 117"></polygon>
                    <polygon id="Fill-44" fill="#222A3A" points="203 131 205 131 205 117 203 117"></polygon>
                    <polygon id="Fill-45" fill="#222A3A" points="206 131 209 131 209 117 206 117"></polygon>
                    <polygon id="Fill-46" fill="#222A3A" points="210.0255 131 210.9745 131 210.9745 117 210.0255 117"></polygon>
                    <polygon id="Fill-47" fill="#222A3A" points="212.0255 131 212.9745 131 212.9745 117 212.0255 117"></polygon>
                    <polygon id="Fill-48" fill="#222A3A" points="216.0255 131 216.9745 131 216.9745 117 216.0255 117"></polygon>
                    <polygon id="Fill-49" fill="#222A3A" points="214.026 131 214.974 131 214.974 117 214.026 117"></polygon>
                    <path d="M219,78.5 C219,95.3447148 205.345459,109 188.500479,109 C171.6555,109 158,95.3447148 158,78.5 C158,61.6552852 171.6555,48 188.500479,48 C205.345459,48 219,61.6552852 219,78.5" id="Fill-50" fill="#E9DAD4"></path>
                    <g id="Group-70" transform="translate(158.000000, 47.000000)">
                        <mask id="mask-2" fill="white">
                            <use xlink:href="#path-1"></use>
                        </mask>
                        <g id="Clip-52"></g>
                        <polygon id="Fill-51" fill="#D5655C" mask="url(#mask-2)" points="26.6388906 52.452 34.0179844 52.452 34.0179844 45.0663692 26.6388906 45.0663692"></polygon>
                        <path d="M41.7783281,28.0116 C41.7783281,28.0116 43.0621875,26.2298154 45.8443594,27.1207077 C48.6265312,28.0116 46.9118594,37.0349846 41.7592656,37.8142769 L41.7783281,28.0116" id="Fill-53" fill="#EEA07C" mask="url(#mask-2)"></path>
                        <path d="M42.9325625,30.3809538 C42.9325625,30.3809538 43.5892656,28.7365231 44.9703438,28.8013846 C46.3504687,28.8681538 45.8901094,32.8809846 42.9325625,35.1168 L42.9325625,30.3809538" id="Fill-54" fill="#D5655C" mask="url(#mask-2)"></path>
                        <path d="M18.2513906,28.0116 C18.2513906,28.0116 16.9675312,26.2298154 14.1844063,27.1207077 C11.4022344,28.0116 13.1178594,37.0349846 18.2695,37.8142769 L18.2513906,28.0116" id="Fill-55" fill="#EEA07C" mask="url(#mask-2)"></path>
                        <path d="M17.0971563,30.3809538 C17.0971563,30.3809538 16.4395,28.7365231 15.059375,28.8013846 C13.67925,28.8681538 14.1386563,32.8809846 17.0971563,35.1168 L17.0971563,30.3809538" id="Fill-56" fill="#D5655C" mask="url(#mask-2)"></path>
                        <path d="M30.3284375,8.928 C26.1165781,8.928 22.3364844,10.8728923 19.84025,13.9099385 C19.84025,13.9099385 17.6814219,27.9486462 19.5142813,36.4722154 C20.9725625,43.2502462 26.5864688,47.0150769 29.5678437,47.4061538 C29.8194687,47.4204615 30.073,47.4290462 30.3284375,47.4290462 C37.7990313,47.4290462 43.9104687,41.3120308 43.9104687,33.8367385 L43.9104687,22.5203077 C43.9104687,15.0450154 37.7990313,8.928 30.3284375,8.928" id="Fill-57" fill="#EEA07C" mask="url(#mask-2)"></path>
                        <path d="M16.7464062,33.8367385 C16.7464062,41.0564 22.448,47.0074462 29.5678437,47.4061538 C26.5864688,47.0150769 20.9725625,43.2502462 19.5142813,36.4722154 C17.6814219,27.9486462 19.84025,13.9099385 19.84025,13.9099385 C17.9101719,16.2583077 16.7464062,19.2600615 16.7464062,22.5203077 L16.7464062,33.8367385" id="Fill-58" fill="#D5655C" mask="url(#mask-2)"></path>
                        <path d="M22.1744531,17.3237538 C22.1744531,17.3237538 31.7952969,23.8089538 40.3467344,18.7755077 C40.3467344,18.7755077 22.5051875,12.5535692 22.4155937,14.6968615 C22.3250469,16.8401538 22.1744531,17.3237538 22.1744531,17.3237538" id="Fill-59" fill="#D5655C" mask="url(#mask-2)"></path>
                        <path d="M15.0422188,59.9187077 C15.989625,58.9562769 16.6139219,58.3944615 16.6139219,58.3944615 C16.7626094,58.8065231 16.8445781,59.3216 16.8703125,59.9187077 L17.6785625,59.9187077 C19.5285781,58.1188 20.8629531,57.1659077 20.8963125,57.1420615 L19.0415313,54.4865538 L17.1905625,51.8224615 C16.9341719,52.0017846 13.0177813,54.7717538 8.95651562,59.9187077 L15.0422188,59.9187077" id="Fill-60" fill="#00AC8C" mask="url(#mask-2)"></path>
                        <path d="M16.3203594,59.9187077 L16.3203594,58.6653538 C16.0487187,58.9200308 15.60075,59.3502154 15.0412656,59.9187077 L16.3203594,59.9187077" id="Fill-61" fill="#0C8C7A" mask="url(#mask-2)"></path>
                        <path d="M43.8008594,59.9187077 C43.8265937,59.3168308 43.9076094,58.7979385 44.0582031,58.3820615 C44.0582031,58.3820615 44.6882187,58.9496 45.6422969,59.9187077 L51.7251406,59.9187077 C47.6610156,54.7641231 43.7379531,51.9903385 43.4815625,51.8110154 L41.6305937,54.4741538 L39.7748594,57.1306154 C39.8091719,57.1544615 41.1483125,58.1111692 43.005,59.9187077 L43.8008594,59.9187077" id="Fill-62" fill="#00AC8C" mask="url(#mask-2)"></path>
                        <path d="M45.6422969,59.9187077 C45.0770938,59.3454462 44.6243594,58.9104923 44.3517656,58.6539077 L44.3517656,59.9187077 L45.6422969,59.9187077" id="Fill-63" fill="#0C8C7A" mask="url(#mask-2)"></path>
                        <path d="M43.66075,16.4328615 L42.8210469,16.802 C41.5857969,14.8323077 38.2832188,15.2691692 38.2832188,15.2691692 C37.9543906,17.8779385 41.1721406,19.9592308 41.1721406,19.9592308 L41.3789688,24.9612 L43.927625,28.9654462 L43.9333438,28.8605231 L43.9552656,28.9129846 C48.1175625,19.1913846 43.66075,16.4328615 43.66075,16.4328615" id="Fill-64" fill="#171E25" mask="url(#mask-2)"></path>
                        <path d="M17.1552969,16.4328615 L17.995,16.802 C19.23025,14.8323077 22.5328281,15.2691692 22.5328281,15.2691692 C22.8607031,17.8779385 19.6439063,19.9592308 19.6439063,19.9592308 L19.4370781,24.9612 L16.8874688,28.9654462 L16.88175,28.8605231 L16.8607813,28.9129846 C12.6975313,19.1913846 17.1552969,16.4328615 17.1552969,16.4328615" id="Fill-65" fill="#171E25" mask="url(#mask-2)"></path>
                        <path d="M19.6629687,11.5444 C19.3608281,12.4009538 20.0585156,13.2861231 20.9601719,13.1802462 C21.6692969,13.0972615 22.5738125,13.0982154 23.6403594,13.3204615 C26.3996563,13.8965846 29.6412344,18.1593231 37.8895781,16.7180615 C40.359125,16.2869231 42.3864219,15.2987385 44.02675,14.0768615 C44.2059375,10.8719385 43.2652031,5.41116923 35.09025,4.32092308 C32.147,4.28944615 28.7796094,4.464 25.7391406,5.11833846 C25.6390625,5.14504615 23.6699063,5.67443077 21.2947188,6.83621538 C21.2870938,6.96212308 21.2708906,7.09375385 21.2403906,7.23206154 C21.0097344,8.26793846 20.1919531,10.0392308 19.6629687,11.5444" id="Fill-66" fill="#222A3A" mask="url(#mask-2)"></path>
                        <path d="M37.8895781,16.7180615 C29.6412344,18.1593231 26.3996563,13.8965846 23.6403594,13.3204615 C22.5795313,13.0991692 21.6788281,13.0972615 20.9706563,13.1792923 C20.0642344,13.2842154 19.359875,12.4057231 19.6620156,11.5444 C20.1919531,10.0401846 21.0097344,8.26793846 21.2403906,7.23206154 C21.2708906,7.09375385 21.2870938,6.96212308 21.2947188,6.83621538 C20.7257031,7.11378462 20.1919531,7.56495385 19.6200781,7.97224615 C19.1806875,8.28606154 18.7632188,8.6304 18.399125,9.02910769 C17.3687969,10.1575077 16.7235312,11.4909846 16.7464062,13.3242769 C16.8617344,22.4916923 18.4315312,16.2602154 22.3917656,15.7193846 C22.3917656,15.7193846 27.6110781,20.7633231 36.9698125,19.3220615 C39.5251406,18.9281231 41.7802344,17.8712615 43.66075,16.4328615 C43.66075,16.4328615 43.9485938,15.4666154 44.02675,14.0768615 C42.3864219,15.2987385 40.359125,16.2869231 37.8895781,16.7180615" id="Fill-67" fill="#171E25" mask="url(#mask-2)"></path>
                        <path d="M42.1900781,51.4313846 L34.0179844,51.4313846 C34.0179844,51.4313846 33.5261719,53.6843692 30.4294688,53.6843692 C27.3327656,53.6843692 26.6179219,51.4313846 26.6179219,51.4313846 L18.4839531,51.4313846 C17.0971563,51.4313846 16.3203594,52.4014462 16.3203594,53.5966154 L16.3203594,62.4721538 L44.354625,62.4168308 L44.354625,53.5966154 C44.354625,52.4014462 43.4987188,51.4313846 42.1900781,51.4313846" id="Fill-68" fill="#00AC8C" mask="url(#mask-2)"></path>
                        <path d="M30.4294688,53.6843692 C33.5261719,53.6843692 34.0179844,51.4313846 34.0179844,51.4313846 L26.6179219,51.4313846 C26.6179219,51.4313846 27.3327656,53.6843692 30.4294688,53.6843692" id="Fill-69" fill="#D5655C" mask="url(#mask-2)"></path>
                    </g>
                    <path d="M360.01087,13 L347,21 L361,21 L361,15.6860479 C361,14.6680567 360.628125,13.7320386 360.01087,13" id="Fill-71" fill="#019580"></path>
                    <polyline id="Fill-72" fill="#019580" points="323 36 361 36 361 26 340.036018 26 323 36"></polyline>
                    <polyline id="Fill-73" fill="#FFFFFE" points="141 22 141 26 340.35592 26 347 22 141 22"></polyline>
                    <polyline id="Fill-74" fill="#E9DAD4" points="340 26 361 26 361 22 346.727214 22 340 26"></polyline>
                    <path d="M141,100 L141,41.8964873 C141,41.8964873 144.856736,38.1868972 151.519924,36 L169.165085,36 C174.426945,38.1524428 178.775142,42.524323 180,49.0563024 C167.458254,52.7496224 158.293169,64.4363625 158.293169,78.2812879 C158.293169,80.1131133 158.454459,81.9066561 158.760911,83.6494744 C149.602467,92.742564 141,100 141,100" id="Fill-78" fill="#D5D8D4"></path>
                    <path d="M169,36 L151,36 C153.762232,34.8620478 156.995806,34.0453709 160.631036,34.0012262 C160.699753,34.0012262 160.769438,34 160.838155,34 C163.607162,34 166.41198,34.6695279 169,36" id="Fill-79" fill="#009E81"></path>
                    <path d="M158.466636,84 C158.160909,82.2366856 158,80.4220501 158,78.5686817 C158,64.5609351 167.143418,52.7367547 179.655514,49 C179.911075,50.3808272 180.030337,51.85655 179.993423,53.4271683 C179.713252,53.5559552 179.422669,53.6934569 179.126407,53.8425785 C178.561333,54.1243602 178.031279,54.5823765 177.463365,54.99585 C177.027018,55.314428 176.612441,55.6639923 176.250868,56.0687509 C175.227676,57.2142758 174.58688,58.56799 174.609597,60.429105 C174.62758,61.9106377 174.682479,62.9961267 174.778078,63.7717527 C174.312388,64.1861945 173.300554,65.3326878 173.027009,67.6314843 C168.959797,73.0211648 163.624243,78.8068889 158.466636,84 M177.512584,59.4772444 C177.416039,59.2167658 177.403734,58.9185226 177.505012,58.6222161 C178.026547,57.1067921 178.831092,55.3241112 179.066776,54.2686402 C178.831092,55.3241112 178.027493,57.1067921 177.505959,58.6222161 C177.404681,58.916586 177.416986,59.2157975 177.512584,59.4772444" id="Fill-80" fill="#C8C3BE"></path>
                    <path d="M173,67 C173.276291,64.6176618 174.298279,63.4295033 174.768642,63 C174.828872,63.5067737 174.905354,63.8850978 175,64.1590567 C174.375717,65.0903161 173.707457,66.0386352 173,67" id="Fill-81" fill="#161C23"></path>
                    <path d="M178.6046,60 C178.373718,59.8476928 178.193896,59.6350759 178.092885,59.3897488 C178.091775,59.3897488 178.091775,59.3887266 178.091775,59.3877044 L178.090665,59.3866822 C177.978554,59.1106893 177.964124,58.7948306 178.082895,58.4840829 C178.694511,56.8843458 179.636908,55.0024825 179.913301,53.8882886 C179.915521,53.880111 179.917741,53.8709112 179.919961,53.8627336 C179.955481,53.7145152 179.974351,53.5734521 179.983231,53.4385222 C180.330664,53.281104 180.671437,53.1359521 181,53 C180.99778,53.0960864 180.99445,53.1911507 180.99112,53.2882593 C180.917859,55.2058995 180.052052,57.4864194 178.6046,60" id="Fill-82" fill="#1F2534"></path>
                    <path d="M175.440657,65 C175.336941,64.7367867 175.253129,64.3733018 175.187128,63.8864055 C175.081316,63.1141204 175.020552,62.033307 175.000647,60.5581558 C174.975504,58.7050574 175.684758,57.3571742 176.81726,56.2165834 C177.21746,55.8135682 177.676328,55.4655097 178.159291,55.148304 C178.787877,54.7366114 179.374557,54.280568 180,54 C179.991619,54.1272679 179.973809,54.2603208 179.940284,54.4001227 C179.938189,54.4078359 179.936094,54.4165133 179.933998,54.4242265 C179.673135,55.4751512 178.782639,57.2501534 178.205387,58.7590499 C178.09329,59.0540801 178.106909,59.3510387 178.213769,59.6103953 L178.214816,59.6113595 C178.214816,59.6123236 178.214816,59.6132878 178.215864,59.6132878 C178.311199,59.844684 178.480918,60.0452275 178.698827,60.188886 C177.820902,61.7122447 176.716687,63.328162 175.440657,65" id="Fill-83" fill="#161C23"></path>
                    <path d="M175.128979,43.554455 C170.310768,39.2176777 165.448495,37.0358863 160.218389,36.9344076 C153.703747,36.7975071 146.614368,39.896436 138.312295,46.0789763 C133.5688,49.614455 128.068568,54.3619336 123.011842,58.9543223 C114.316074,66.8438104 106.924,74.2747299 106.924,74.2747299 C106.176842,74.4987488 105.256305,74.8127583 104.209326,75.1947393 C100.206284,76.6489479 94.3372632,79.0987962 89.0420211,81.3744076 C82.3645368,84.2464455 76.5893895,86.8437251 76.5893895,86.8437251 C72.2577895,57.9835735 85.6635263,43.554455 85.6635263,43.554455 C98.7081368,49.3262938 110.157853,44.6362559 110.157853,44.6362559 L128.183516,11.4479431 C118.839253,0.838635071 116.135116,-2.89501422 94.4924421,3.31337441 C93.3487158,3.63791469 92.1503895,3.99500474 90.8974632,4.38081517 C89.2518,4.88246445 87.5122632,5.43389573 85.6635263,6.0370237 C57.6106211,15.174891 23.0708526,19.8639716 13.831,26.9636493 C13.2208211,27.4327488 12.7188842,27.9123791 12.3395579,28.4025403 C11.2782105,29.7734597 9.38732632,32.6167773 6.90733684,36.4949858 C5.19366316,39.1745972 3.19357895,42.3625592 1,45.8932512 L1,201.64291 C3.48286316,200.281564 6.17071579,198.92309 9.09133684,197.592379 C33.6364316,186.409621 76.9505158,155.746787 87.7785579,143.480313 C92.2078632,138.462863 98.8709789,131.694427 106.064768,124.804408 L106.187379,124.693355 C116.549884,114.776209 127.989063,104.628341 135.424242,99.1082844 C148.057916,89.7301232 168.992705,68.0845308 168.992705,68.0845308 C168.992705,68.0845308 185.957979,53.2944929 175.128979,43.554455" id="Fill-87" fill="#EE9E7A"></path>
                    <path d="M145,55.2453298 C145,55.2453298 157.80722,65.3291724 160.641557,73 C160.641557,73 175.617804,61.3237203 173.855893,53.2879791 C170.976106,40.1549109 152.464432,44.0084749 145,55.2453298" id="Fill-89" fill="#FADFCB"></path>
                    <path d="M115.242268,79 C115.242268,79 116.41503,93.3586487 128,96.9187634 C128,96.9187634 112.924533,99.2450893 115.242268,79" id="Fill-90" fill="#C56B67"></path>
                    <path d="M121,74 C121,74 129.080099,80.9433052 131.966977,90 C131.966977,90 133.173558,79.600965 121,74" id="Fill-91" fill="#C56B67"></path>
                    <path d="M128,73 C128,73 133.890558,79.0001857 135.71863,88 C135.71863,88 138.271174,79.5043015 128,73" id="Fill-92" fill="#C56B67"></path>
                    <g id="Group-96" transform="translate(0.000000, 28.000000)">
                        <mask id="mask-4" fill="white">
                            <use xlink:href="#path-3"></use>
                        </mask>
                        <g id="Clip-94"></g>
                        <path d="M110.478906,13.0108022 C110.119932,7.9561978 111.972239,2.32031868 111.972239,2.32031868 C108.805607,5.63587912 107.872274,9.69237363 107.609983,12.1723516 C98.8146325,16.4248352 90.1858462,13.4343297 85.8523077,11.2927912 C83.8947009,7.52597802 84.6078632,0.0391978022 84.6078632,0.0391978022 C82.7612991,4.00295604 82.2922393,7.59194505 82.3123419,10.2793846 C73.3590427,19.0711648 70.8586667,28.8132527 68.7488547,37.0390549 C61.8441026,27.6287143 47.7665641,22.8179011 47.7665641,22.8179011 C59.4049915,31.2148352 64.237265,40.0238242 66.2293333,45.5029121 C66.1068034,45.8126703 65.9794872,46.1157363 65.8492991,46.414022 C61.2955897,42.4292308 54.7938462,39.9090989 52.6974359,39.1614725 C52.560547,39.1127143 52.4600342,39.2962747 52.5758632,39.3842308 C58.2026667,43.7189341 61.0151111,48.1196044 62.3313504,51.9275275 C59.9094701,55.2287473 58.9512479,58.3215495 58.6745983,60.8321209 C50.0975043,65.859956 43.3995214,74.123044 43.3995214,74.123044 C47.3788718,72.2549341 53.5771624,69.4728462 59.3083077,66.9259451 C66.7223248,64.597978 71.0233162,62.2728791 73.313094,60.747989 L73.3753162,60.7212198 L73.374359,60.7068791 C74.9394872,59.6590549 75.5396923,59.0003407 75.5396923,59.0003407 C74.1899487,59.2852418 73.4499829,59.4362967 73.1139829,59.4974835 L75.5396923,59.0003407 C76.2911453,58.6638132 76.0575726,58.768978 76.0575726,58.768978 C71.7288205,29.9480769 84.6078632,15.7699451 84.6078632,15.7699451 C97.6438974,21.5339341 109.086085,16.8502747 109.086085,16.8502747 L109.356034,16.3540879 C110.156308,16.2183297 110.91159,15.6494835 110.91159,15.6494835 C110.770872,15.1446923 110.66653,14.6188681 110.590906,14.0825275 L110.91159,13.4926484 C110.758427,13.3234286 110.614838,13.1637692 110.478906,13.0108022" id="Fill-93" fill="#C56B67" mask="url(#mask-4)"></path>
                        <path d="M70.5657436,125.168143 C56.0421197,135.38156 22.4679658,156.752011 0,167.68533 L0,173.643396 C2.48123077,172.283901 5.16731624,170.927275 8.08601709,169.598374 C32.6149744,158.430824 75.9005812,127.809692 86.7215043,115.559901 C91.1478974,110.549275 97.8066325,103.790044 104.995692,96.9093956 C103.357812,98.4084725 85.5383248,114.637319 70.5657436,125.168143" id="Fill-95" fill="#C56B67" mask="url(#mask-4)"></path>
                    </g>
                    <path d="M106,82 C106,82 104.400494,80.7598755 103,74.9202777 C104.157022,74.5381853 105.174312,74.2240843 106,74 C106,74 104.986944,78.0009576 106,82" id="Fill-97" fill="#C56B67"></path>
                </g>
            </g>
        </g>
    </g>
</svg>