<?xml version="1.0" encoding="UTF-8"?>
<svg width="110px" height="97px" viewBox="0 0 110 97" version="1.1" xmlns="http://www.w3.org/2000/svg" xmlns:xlink="http://www.w3.org/1999/xlink">
    <!-- Generator: Sketch 62 (91390) - https://sketch.com -->
    <title>translation</title>
    <desc>Created with Sketch.</desc>
    <g id="Page-1" stroke="none" stroke-width="1" fill="none" fill-rule="evenodd">
        <g id="choose-language" transform="translate(-152.000000, -88.000000)" fill="#303030" fill-rule="nonzero">
            <g id="translation" transform="translate(152.000000, 88.000000)">
                <path d="M93.9937132,34.2462293 L77.4304488,17.6545812 C76.868609,17.0917288 76.0092377,16.9544007 75.3004525,17.3142063 C74.5916672,17.674012 74.1940765,18.4494206 74.3150033,19.2360966 L75.8375843,29.1487523 C72.326626,29.1736731 68.8411283,29.7481165 65.507278,30.8512857 C64.4773711,13.6662816 50.1953367,0 32.7845352,0 C14.7069586,0 3.6166128e-06,14.7317454 3.6166128e-06,32.8397987 C-0.00531370048,44.1981246 5.85301486,54.7516863 15.4878871,60.74064 L31.485208,76.7651604 C32.0470161,77.3282164 32.9065229,77.4656716 33.6154271,77.1058321 C34.3243313,76.7459926 34.7219459,75.9704231 34.6008831,75.183645 L33.1405468,65.6777568 C36.2400212,65.6458927 39.3191947,65.1723345 42.2854495,64.2713261 C42.9175422,82.4256239 57.8557862,97 76.1311215,97 C94.8065679,97 110.000004,81.7809619 110.000004,63.073801 C110.005767,51.3370045 103.950992,40.4320803 93.9937132,34.2457692 L93.9937132,34.2462293 Z M32.7845352,61.998444 C32.2450055,61.998444 31.6765355,61.9814187 31.0956624,61.9482883 C30.5422742,61.916676 30.0042103,62.1369799 29.6313718,62.5478249 C29.2585333,62.95867 29.0907657,63.5161488 29.174808,64.0649515 L30.1149081,70.1848688 L17.9349496,57.9841464 C17.8327807,57.8818858 17.7189102,57.7920723 17.5957051,57.7165725 C5.18861336,50.1210841 0.278412361,34.5206414 6.09294593,21.1705871 C11.9074795,7.82053285 26.6637458,0.814603875 40.6613429,4.75832346 C54.6589399,8.70204304 63.6055645,22.3860865 61.6199284,36.8149043 C59.6342924,51.2437222 47.3252824,61.9927794 32.7845352,61.9959133 L32.7845352,61.998444 Z M76.1311215,93.3188467 C59.4821847,93.3188467 45.9369794,79.7510359 45.9369794,63.073801 C45.9369794,63.0213445 45.9390466,62.9693482 45.9392763,62.9171219 C57.2209441,57.950415 64.778211,47.0763077 65.5118717,34.7542285 C68.9064622,33.4751847 72.5043239,32.8228235 76.1311215,32.8287552 C76.6917823,32.8287552 77.2809239,32.8464708 77.8822389,32.8809816 C78.435705,32.9127389 78.9739007,32.6924979 79.3468459,32.2816336 C79.7197911,31.8707693 79.8876161,31.313205 79.8035528,30.7643184 L78.8007487,24.2341825 L91.546421,37.0018026 C91.648624,37.1040247 91.7624897,37.1938345 91.8856655,37.2693765 C100.88242,42.7405704 106.361252,52.5320755 106.325212,63.0747212 C106.325212,79.7510359 92.7800584,93.3188467 76.1311215,93.3188467 Z M77.0094364,50.7743776 C76.7112763,50.1172836 76.0572107,49.6954024 75.3366416,49.6954024 C74.6160725,49.6954024 73.9620069,50.1172836 73.6638468,50.7743776 L64.4764523,71.0207207 C64.0564473,71.9461373 64.4649016,73.0373911 65.3887606,73.4581043 C66.3126197,73.8788174 67.4020368,73.4696746 67.822042,72.544258 L69.8382157,68.1013361 L80.8350675,68.1013361 L82.8512412,72.544258 C83.2712463,73.4696746 84.3606635,73.8788176 85.2845226,73.4581043 C86.2083817,73.0373911 86.616836,71.9461373 86.1968309,71.0207207 L77.0094364,50.7743776 Z M71.508484,64.4201828 L75.3366416,55.9841298 L79.1647992,64.4201828 L71.508484,64.4201828 Z M40.9528179,34.6290693 C39.9366289,33.7554599 38.8066574,33.0241983 37.5939065,32.4553482 C37.6040127,32.2034193 37.608836,31.9491896 37.608836,31.6961104 L37.608836,29.4492264 C37.608836,28.432704 36.7861687,27.6086498 35.7713572,27.6086498 C34.7565456,27.6086498 33.9338783,28.432704 33.9338783,29.4492264 L33.9338783,31.2964752 C32.7212695,31.0823979 31.4866027,31.0218745 30.2589205,31.1163287 L30.2589205,25.7680731 L39.4463149,25.7680731 C40.4611265,25.7680731 41.2837938,24.9440189 41.2837938,23.9274965 C41.2837938,22.910974 40.4611265,22.0869198 39.4463149,22.0869198 L30.2589205,22.0869198 L30.2589205,16.5651899 C30.2589205,15.5486674 29.4362532,14.7246132 28.4214416,14.7246132 C27.40663,14.7246132 26.5839627,15.5486674 26.5839627,16.5651899 L26.5839627,22.0869198 L19.2340472,22.0869198 C18.2192356,22.0869198 17.3965683,22.910974 17.3965683,23.9274965 C17.3965683,24.9440189 18.2192356,25.7680731 19.2340472,25.7680731 L26.5839627,25.7680731 L26.5839627,31.8810883 C25.2419855,32.3445188 23.973772,32.9994542 22.8185091,33.8256575 C21.1979374,34.9854603 20.1249087,36.7618594 19.8512275,38.7379929 C19.5775462,40.7141264 20.1273053,42.7160291 21.3714945,44.273921 C22.6601405,45.8870835 24.5735803,46.8742696 26.6329875,46.9884422 C28.6923948,47.1026148 30.7029048,46.3329707 32.1614002,44.8721084 C34.5264169,42.5147414 36.2105683,39.5602817 37.0353129,36.3219396 C37.5743838,36.6454507 38.0851845,37.014035 38.5622579,37.4237548 C39.5153688,38.2422015 40.0844468,39.4218002 40.132406,40.6783961 C40.1803652,41.9349919 39.7028578,43.1546694 38.8149112,44.0436188 C38.1212288,44.7660363 38.1321729,45.9116416 38.8395298,46.6206296 C39.5468866,47.3296177 40.6905569,47.3412892 41.4121877,46.6468844 C43.0235443,45.0325744 43.8897676,42.8182467 43.8022685,40.5371182 C43.7147693,38.2559898 42.6814765,36.1147692 40.9512101,34.6290693 L40.9528179,34.6290693 Z M24.2402584,41.9741204 C23.6264635,41.2056758 23.3552905,40.2181417 23.4904012,39.2433565 C23.6255118,38.2685714 24.1550065,37.3923888 24.9545783,36.8205058 C25.4692511,36.4525248 26.0143603,36.129249 26.5839627,35.8542031 L26.5839627,43.2855313 C25.6604088,43.1752394 24.8177688,42.7038819 24.2395693,41.9741204 L24.2402584,41.9741204 Z M30.2580018,41.5211085 L30.2580018,34.813357 C31.365413,34.6982349 32.4838869,34.7533994 33.5746511,34.9769382 C33.0346756,37.4024443 31.894202,39.6528992 30.2582314,41.5211085 L30.2580018,41.5211085 Z" id="Shape"></path>
            </g>
        </g>
    </g>
</svg>