<svg height="462pt" viewBox="-37 0 462 462.07063" width="462pt" xmlns="http://www.w3.org/2000/svg"><path d="m113.480469 74.765625c1.269531 0 2.300781-1.03125 2.300781-2.300781 0-1.269532-1.03125-2.300782-2.300781-2.300782s-2.300781 1.03125-2.300781 2.300782c0 1.269531 1.03125 2.300781 2.300781 2.300781zm0 0"/><path d="m146.8125 167.664062c5.476562 0 9.914062-4.4375 9.914062-9.914062s-4.4375-9.914062-9.914062-9.914062-9.914062 4.4375-9.914062 9.914062c.007812 5.472656 4.441406 9.910156 9.914062 9.914062zm0 0"/><path d="m146.8125 74.765625c1.269531 0 2.300781-1.03125 2.300781-2.300781 0-1.269532-1.03125-2.300782-2.300781-2.300782s-2.300781 1.03125-2.300781 2.300782c0 1.269531 1.03125 2.300781 2.300781 2.300781zm0 0"/><path d="m146.8125 231.324219c5.476562 0 9.914062-4.441407 9.914062-9.917969 0-5.472656-4.4375-9.914062-9.914062-9.914062s-9.914062 4.441406-9.914062 9.914062c.007812 5.476562 4.441406 9.910156 9.914062 9.917969zm0 0"/><path d="m80.144531 74.765625c1.273438 0 2.300781-1.03125 2.300781-2.300781 0-1.269532-1.027343-2.300782-2.300781-2.300782-1.269531 0-2.296875 1.03125-2.296875 2.300782 0 1.269531 1.027344 2.300781 2.296875 2.300781zm0 0"/><path d="m215.773438 277.273438c-5.472657 0-9.914063 4.4375-9.914063 9.914062s4.4375 9.914062 9.914063 9.914062c5.476562 0 9.917968-4.4375 9.914062-9.914062-.003906-5.472656-4.4375-9.910156-9.914062-9.914062zm0 0"/><path d="m146.8125 297.101562c5.476562 0 9.914062-4.4375 9.914062-9.914062s-4.4375-9.914062-9.914062-9.914062-9.914062 4.4375-9.914062 9.914062c.007812 5.472656 4.441406 9.910156 9.914062 9.914062zm0 0"/><path d="m180.144531 74.765625c1.273438 0 2.300781-1.03125 2.300781-2.300781 0-1.269532-1.027343-2.300782-2.300781-2.300782-1.269531 0-2.296875 1.03125-2.296875 2.300782 0 1.269531 1.027344 2.300781 2.296875 2.300781zm0 0"/><path d="m215.773438 147.835938c-5.472657 0-9.914063 4.4375-9.914063 9.914062s4.4375 9.917969 9.914063 9.917969c5.476562 0 9.914062-4.441407 9.914062-9.914063-.003906-5.476562-4.4375-9.910156-9.914062-9.917968zm0 0"/><path d="m215.773438 211.492188c-5.472657 0-9.914063 4.441406-9.914063 9.917968 0 5.476563 4.4375 9.914063 9.914063 9.914063 5.476562 0 9.917968-4.441407 9.914062-9.917969-.003906-5.472656-4.4375-9.90625-9.914062-9.914062zm0 0"/><path d="m281.074219 0h-268.519531c-6.910157.0078125-12.5117192 5.609375-12.5195318 12.519531v336.417969c.0078126 6.910156 5.6093748 12.511719 12.5195318 12.519531h191.300781c6.539062-45.601562 43.804687-80.585937 89.730469-84.234375v-264.703125c-.007813-6.910156-5.605469-12.5078122-12.511719-12.519531zm-203.222657 309.101562c-12.105468 0-21.917968-9.8125-21.917968-21.917968.003906-12.101563 9.816406-21.914063 21.917968-21.914063 12.105469 0 21.914063 9.8125 21.914063 21.917969-.015625 12.097656-9.816406 21.902344-21.914063 21.914062zm0-65.78125c-12.105468 0-21.917968-9.8125-21.917968-21.914062 0-12.105469 9.8125-21.914062 21.917968-21.914062 12.101563 0 21.914063 9.808593 21.914063 21.914062-.011719 12.097656-9.816406 21.902344-21.914063 21.917969zm0-63.65625c-12.105468 0-21.917968-9.8125-21.917968-21.917968 0-12.101563 9.8125-21.914063 21.917968-21.914063 12.101563 0 21.914063 9.8125 21.914063 21.917969-.011719 12.097656-9.816406 21.902344-21.914063 21.914062zm85.957032 169.386719h-33.992188c-3.3125 0-6-2.6875-6-6 0-3.316406 2.6875-6 6-6h33.992188c3.3125 0 6 2.683594 6 6 0 3.3125-2.6875 6-6 6zm-16.996094-149.558593c12.105469 0 21.914062 9.8125 21.914062 21.917968 0 12.101563-9.808593 21.914063-21.914062 21.914063-12.101562 0-21.914062-9.8125-21.914062-21.917969.011718-12.09375 9.816406-21.898438 21.914062-21.914062zm-21.914062-41.742188c0-12.101562 9.8125-21.914062 21.914062-21.914062 12.105469 0 21.914062 9.808593 21.914062 21.914062 0 12.101562-9.808593 21.914062-21.914062 21.914062-12.097656-.011718-21.898438-9.816406-21.914062-21.914062zm21.914062 107.523438c12.105469 0 21.914062 9.8125 21.914062 21.914062 0 12.105469-9.808593 21.914062-21.914062 21.914062-12.101562 0-21.914062-9.8125-21.914062-21.914062.011718-12.097656 9.816406-21.902344 21.914062-21.914062zm68.960938 43.828124c-12.101563 0-21.914063-9.808593-21.914063-21.914062 0-12.101562 9.8125-21.914062 21.914063-21.914062 12.105468 0 21.914062 9.808593 21.914062 21.914062-.011719 12.097656-9.816406 21.902344-21.914062 21.914062zm0-65.777343c-12.101563 0-21.914063-9.8125-21.914063-21.914063 0-12.105468 9.8125-21.917968 21.914063-21.917968 12.105468 0 21.914062 9.8125 21.914062 21.914062-.011719 12.097656-9.816406 21.902344-21.914062 21.917969zm0-63.660157c-12.101563 0-21.914063-9.808593-21.914063-21.914062 0-12.101562 9.8125-21.914062 21.914063-21.914062 12.105468 0 21.917968 9.8125 21.914062 21.914062-.011719 12.097656-9.816406 21.902344-21.914062 21.914062zm27.574218-83.828124c0 3.316406-2.6875 6-6 6h-181.070312c-3.3125 0-6-2.683594-6-6v-46.738282c0-3.316406 2.6875-6 6-6h181.070312c3.3125 0 6 2.683594 6 6zm0 0"/><path d="m77.851562 277.273438c-5.476562 0-9.917968 4.4375-9.917968 9.914062s4.441406 9.914062 9.917968 9.914062c5.476563 0 9.914063-4.4375 9.914063-9.914062-.007813-5.472656-4.441406-9.910156-9.914063-9.914062zm0 0"/><path d="m12.554688 373.457031c-.207032 0-.40625-.011719-.609376-.015625l.980469 2.457032c4.679688 11.808593 16.113281 19.550781 28.820313 19.507812h163.132812c-1.347656-6.554688-2.027344-13.230469-2.027344-19.925781 0-.671875.027344-1.347657.042969-2.023438zm0 0"/><path d="m327.542969 280.386719v-238.675781c.039062-12.703126-7.699219-24.136719-19.507813-28.820313l-2.457031-.980469c0 .199219.015625.398438.015625.609375v264.460938c7.421875.300781 14.785156 1.445312 21.949219 3.40625zm0 0"/><path d="m242.75 311.816406c-15.894531 14.609375-25.734375 34.644532-27.578125 56.152344-.214844 2.480469-.320313 5.007812-.320313 7.511719 0 40.980469 28.726563 76.347656 68.835938 84.75 40.105469 8.402343 80.613281-12.460938 97.0625-49.996094 16.449219-37.53125 4.332031-81.457031-29.03125-105.25-33.363281-23.796875-78.839844-20.945313-108.96875 6.832031zm64.691406 27.605469v30.058594h30.058594c3.3125 0 6 2.6875 6 6s-2.6875 6-6 6h-30.058594v30.054687c0 3.316406-2.683594 6-6 6-3.3125 0-6-2.683594-6-6v-30.054687h-30.058594c-3.3125 0-6-2.6875-6-6s2.6875-6 6-6h30.058594v-30.058594c0-3.3125 2.6875-6 6-6 3.316406 0 6 2.6875 6 6zm0 0"/><path d="m62.277344 89.835938h169.070312v-34.738282h-169.070312zm151.199218-27.074219c5.359376 0 9.703126 4.34375 9.703126 9.699219 0 5.355468-4.34375 9.699218-9.703126 9.699218-5.355468 0-9.699218-4.34375-9.699218-9.699218.011718-5.351563 4.347656-9.6875 9.703125-9.695313zm-33.332031 0c5.359375 0 9.699219 4.34375 9.699219 9.699219 0 5.355468-4.339844 9.699218-9.699219 9.699218-5.355469 0-9.699219-4.34375-9.699219-9.699218.011719-5.351563 4.347657-9.6875 9.699219-9.695313zm-33.332031 0c5.355469 0 9.699219 4.34375 9.699219 9.699219 0 5.355468-4.34375 9.699218-9.699219 9.699218s-9.699219-4.34375-9.699219-9.699218c.007813-5.351563 4.347657-9.6875 9.699219-9.695313zm-33.335938 0c5.359376 0 9.703126 4.34375 9.703126 9.699219 0 5.355468-4.34375 9.699218-9.703126 9.699218-5.355468 0-9.699218-4.34375-9.699218-9.699218.011718-5.351563 4.347656-9.6875 9.703125-9.695313zm-33.332031 0c5.359375 0 9.699219 4.34375 9.699219 9.699219 0 5.355468-4.339844 9.699218-9.699219 9.699218-5.355469 0-9.699219-4.34375-9.699219-9.699218.011719-5.351563 4.347657-9.6875 9.699219-9.695313zm0 0"/><path d="m77.851562 147.835938c-5.476562 0-9.917968 4.441406-9.917968 9.917968 0 5.472656 4.441406 9.914063 9.917968 9.914063 5.476563 0 9.914063-4.441407 9.914063-9.914063-.007813-5.476562-4.441406-9.910156-9.914063-9.917968zm0 0"/><path d="m213.480469 74.765625c1.269531 0 2.300781-1.03125 2.300781-2.300781 0-1.269532-1.03125-2.300782-2.300781-2.300782s-2.300781 1.03125-2.300781 2.300782c0 1.269531 1.03125 2.300781 2.300781 2.300781zm0 0"/><path d="m77.851562 211.492188c-5.476562 0-9.917968 4.441406-9.917968 9.917968 0 5.476563 4.441406 9.914063 9.917968 9.914063 5.476563 0 9.914063-4.441407 9.914063-9.917969-.007813-5.472656-4.441406-9.90625-9.914063-9.914062zm0 0"/></svg>