<?xml version="1.0" encoding="UTF-8"?>
<svg width="16px" height="15px" viewBox="0 0 16 15" version="1.1" xmlns="http://www.w3.org/2000/svg" xmlns:xlink="http://www.w3.org/1999/xlink">
    <!-- Generator: Sketch 62 (91390) - https://sketch.com -->
    <title>upload</title>
    <desc>Created with Sketch.</desc>
    <g id="Page-1" stroke="none" stroke-width="1" fill="none" fill-rule="evenodd">
        <g id="more" transform="translate(-26.000000, -731.000000)" fill="#FA6400" fill-rule="nonzero">
            <g id="upload" transform="translate(34.000000, 738.500000) rotate(-90.000000) translate(-34.000000, -738.500000) translate(26.500000, 730.500000)">
                <path d="M10.4542595,3.98326226 C10.3613184,4.22460256 10.1422588,4.38241567 9.89990899,4.38241567 L8.09997268,4.38241567 L8.09997268,10.85299 C8.09997268,11.2100836 7.83114674,11.5 7.50003051,11.5 C7.16880443,11.5 6.89997851,11.2100836 6.89997851,10.85299 L6.89997851,4.38241567 L5.1000422,4.38241567 C4.85769236,4.38241567 4.6387426,4.22460256 4.54569168,3.98326226 C4.45275065,3.74121107 4.5042747,3.463024 4.67587509,3.2779609 L7.0758634,0.689802249 C7.31041321,0.436732584 7.68953798,0.436732584 7.92419765,0.689802249 L10.3240761,3.2779609 C10.4956765,3.463024 10.5473104,3.74121107 10.4542595,3.98326226 L10.4542595,3.98326226 Z" id="Path"></path>
                <path d="M13.125,16 L1.87499999,16 C0.841255188,16 0,15.158732 0,14.1249714 L0,11.6249714 C0,11.2799267 0.279922493,11 0.624961868,11 C0.970001214,11 1.24992371,11.2799267 1.24992371,11.6249714 L1.24992371,14.1249714 C1.24992371,14.4694438 1.53053284,14.7500572 1.87499999,14.7500572 L13.125,14.7500572 C13.4693527,14.7500572 13.7499619,14.4694438 13.7499619,14.1249714 L13.7499619,11.6249714 C13.7499619,11.2799267 14.0299988,11 14.3749237,11 C14.7199631,11 15,11.2799267 15,11.6249714 L15,14.1249714 C15,15.158732 14.1587448,16 13.125,16 L13.125,16 Z" id="Path"></path>
            </g>
        </g>
    </g>
</svg>