<?xml version="1.0" encoding="iso-8859-1"?>
<!-- Generator: Adobe Illustrator 16.0.0, SVG Export Plug-In . SVG Version: 6.00 Build 0)  -->
<!DOCTYPE svg PUBLIC "-//W3C//DTD SVG 1.1//EN" "http://www.w3.org/Graphics/SVG/1.1/DTD/svg11.dtd">
<svg version="1.1" id="Capa_1" xmlns="http://www.w3.org/2000/svg" xmlns:xlink="http://www.w3.org/1999/xlink" x="0px" y="0px"
	 width="540.588px" height="540.588px" viewBox="0 0 540.588 540.588" style="enable-background:new 0 0 540.588 540.588;"
	 xml:space="preserve">
<g>
	<g>
		<path d="M383.906,0H156.682C136.457,0,120,16.457,120,36.682v467.215c0,20.225,16.457,36.691,36.682,36.691h227.225
			c20.225,0,36.682-16.467,36.682-36.691V36.682C420.588,16.457,404.131,0,383.906,0z M406.244,503.896
			c0,12.325-10.021,22.347-22.338,22.347H156.682c-12.316,0-22.338-10.021-22.338-22.347V36.682
			c0-12.307,10.021-22.338,22.338-22.338h227.225c12.316,0,22.338,10.031,22.338,22.338V503.896L406.244,503.896z"/>
		<path d="M388.467,59.651H152.121c-1.979,0-3.586,1.606-3.586,3.586v410.174c0,1.979,1.606,3.586,3.586,3.586h236.346
			c1.979,0,3.586-1.606,3.586-3.586V63.237C392.053,61.257,390.446,59.651,388.467,59.651z M375.318,469.825H165.269
			c-5.279,0-9.562-4.284-9.562-9.562V76.385c0-5.278,4.284-9.562,9.562-9.562h210.049c5.279,0,9.562,4.284,9.562,9.562v383.877
			C384.881,465.541,380.598,469.825,375.318,469.825z"/>
		<path d="M250.127,37.81h40.334c1.979,0,3.586-1.606,3.586-3.586c0-1.979-1.606-3.586-3.586-3.586h-40.334
			c-1.979,0-3.586,1.607-3.586,3.586C246.541,36.204,248.147,37.81,250.127,37.81z"/>
		<path d="M290.949,485.191h-41.311c-8.482,0-15.386,6.904-15.386,15.377v2.467c0,8.482,6.904,15.387,15.386,15.387h41.311
			c8.481,0,15.386-6.914,15.386-15.387v-2.467C306.335,492.096,299.431,485.191,290.949,485.191z M299.163,503.035
			c0,4.533-3.691,8.215-8.214,8.215h-41.311c-4.533,0-8.214-3.691-8.214-8.215v-2.467c0-4.523,3.691-8.205,8.214-8.205h41.311
			c4.532,0,8.214,3.691,8.214,8.205V503.035z"/>
		<path d="M301.812,338.981c17.872,0,32.407-14.545,32.407-32.407V205.967c0-4.246-3.452-7.708-7.707-7.708c0,0-3.366,0-7.525,0
			c-4.16,0-7.526-4.284-7.526-9.562v-11.58c0-9.888-8.042-17.939-17.93-17.939h-46.483c-9.896,0-17.939,8.051-17.939,17.939
			c0,1.97,1.616,3.586,3.586,3.586c1.979,0,3.596-1.616,3.596-3.586c0-5.938,4.829-10.758,10.757-10.758h46.483
			c5.938,0,10.758,4.829,10.758,10.758v11.58c0,5.279-4.283,9.562-9.562,9.562h-80.669c-4.246,0-7.708,3.452-7.708,7.708v100.607
			c0,17.872,14.535,32.407,32.408,32.407H301.812z M213.541,205.967c0-0.296,0.229-0.526,0.526-0.526h112.445
			c0.297,0,0.535,0.229,0.535,0.526v100.607c0,13.913-11.321,25.235-25.235,25.235h-63.045c-13.914,0-25.226-11.322-25.226-25.235
			V205.967L213.541,205.967z"/>
		<path d="M270.284,291.953c12.871,0,23.342-10.472,23.342-23.333c0-12.871-10.471-23.333-23.342-23.333
			c-12.861,0-23.323,10.461-23.323,23.333C246.961,281.481,257.423,291.953,270.284,291.953z M270.284,252.459
			c8.912,0,16.16,7.249,16.16,16.161s-7.248,16.151-16.16,16.151c-8.902,0-16.151-7.248-16.151-16.151
			C254.133,259.708,261.382,252.459,270.284,252.459z"/>
	</g>
</g>
<g>
</g>
<g>
</g>
<g>
</g>
<g>
</g>
<g>
</g>
<g>
</g>
<g>
</g>
<g>
</g>
<g>
</g>
<g>
</g>
<g>
</g>
<g>
</g>
<g>
</g>
<g>
</g>
<g>
</g>
</svg>
